<svg width="100%" height="100%" viewBox="0 0 22 21" fill="none" xmlns="http://www.w3.org/2000/svg">
<path d="M11 0.164062C5.30703 0.164062 0.664062 4.80703 0.664062 10.5C0.664062 16.193 5.30703 20.8359 11 20.8359C16.693 20.8359 21.3359 16.193 21.3359 10.5C21.3359 4.80703 16.693 0.164062 11 0.164062ZM11 19.5234C6.02891 19.5234 1.97656 15.4711 1.97656 10.5C1.97656 5.52891 6.02891 1.47656 11 1.47656C15.9711 1.47656 20.0234 5.52891 20.0234 10.5C20.0234 15.4711 15.9711 19.5234 11 19.5234Z" fill="#8087A2"/>
<path d="M11.6562 8.94141H10.3438V15.5039H11.6562V8.94141Z" fill="#8087A2"/>
<path d="M11.6562 5.82422H10.3438V7.13672H11.6562V5.82422Z" fill="#8087A2"/>
</svg>
