<svg width="24" height="23" viewBox="0 0 24 23" fill="none" xmlns="http://www.w3.org/2000/svg">
<path fill-rule="evenodd" clip-rule="evenodd" d="M9.15184 2.06332C10.5477 0.109103 13.4521 0.109103 14.848 2.06332L15.0702 2.37443C15.3158 2.71836 15.7284 2.90252 16.1484 2.85586L17.1389 2.74579C19.3681 2.49811 21.2517 4.3817 21.004 6.6109L20.894 7.60143C20.8473 8.02148 21.0314 8.43395 21.3754 8.67961L21.6865 8.90184C23.6407 10.2977 23.6407 13.2021 21.6865 14.598L21.3754 14.8202C21.0314 15.0658 20.8473 15.4784 20.894 15.8984L21.004 16.8889C21.2517 19.1181 19.3681 21.0017 17.1389 20.754L16.1484 20.644C15.7284 20.5973 15.3158 20.7814 15.0702 21.1254L14.848 21.4365C13.4521 23.3907 10.5478 23.3907 9.15184 21.4365L8.92961 21.1254C8.68395 20.7814 8.27148 20.5973 7.85141 20.644L6.8609 20.754C4.6317 21.0017 2.74811 19.1181 2.99579 16.8889L3.10586 15.8984C3.15252 15.4784 2.96836 15.0658 2.62443 14.8202L2.31332 14.598C0.359103 13.2021 0.359103 10.2978 2.31332 8.90184L2.62443 8.67961C2.96836 8.43395 3.15252 8.02148 3.10586 7.60141L2.99579 6.6109C2.74811 4.3817 4.6317 2.49811 6.8609 2.74579L7.85143 2.85586C8.27148 2.90252 8.68395 2.71836 8.92961 2.37443L9.15184 2.06332ZM16.3249 8.59162C16.7805 9.04724 16.7805 9.78595 16.3249 10.2415L11.8695 14.6969C11.2972 15.2693 10.3693 15.2693 9.79702 14.6969L7.67495 12.5749C7.21935 12.1193 7.21935 11.3806 7.67495 10.925C8.13057 10.4694 8.86926 10.4694 9.32488 10.925L10.8333 12.4334L14.675 8.59162C15.1306 8.13601 15.8693 8.13601 16.3249 8.59162Z" fill="#8BD5CA"/>
</svg>
