<svg width="17" height="18" viewBox="0 0 17 18" fill="none" xmlns="http://www.w3.org/2000/svg">
<path fill-rule="evenodd" clip-rule="evenodd" d="M3.74023 9.65045C3.74866 10.3886 4.05001 11.0932 4.57797 11.6092C5.10593 12.1252 5.81726 12.4102 6.55543 12.4017H6.93623L8.06503 13.5795C8.18002 13.696 8.3369 13.7615 8.50057 13.7615C8.66425 13.7615 8.82113 13.696 8.93611 13.5795L10.0642 12.4017H10.445C11.1832 12.4102 11.8945 12.1252 12.4225 11.6092C12.9504 11.0932 13.2518 10.3886 13.2602 9.65045V6.31163C13.2419 4.77498 11.9817 3.54396 10.445 3.56171H6.55543C5.01878 3.54396 3.75853 4.77498 3.74023 6.31163V9.65045Z" stroke="#7DC4E4" stroke-width="2" stroke-linecap="round" stroke-linejoin="round"/>
<path fill-rule="evenodd" clip-rule="evenodd" d="M3.73975 9.65045C3.74817 10.3886 4.04952 11.0932 4.57749 11.6092C5.10544 12.1252 5.81677 12.4102 6.55495 12.4017H6.93575L8.06455 13.5795C8.17953 13.696 8.33641 13.7615 8.50009 13.7615C8.66376 13.7615 8.82064 13.696 8.93563 13.5795L10.0637 12.4017H10.4445C11.1828 12.4102 11.894 12.1252 12.422 11.6092C12.9499 11.0932 13.2513 10.3886 13.2597 9.65045V6.31163C13.2415 4.77498 11.9812 3.54396 10.4445 3.56171H6.55495C5.01829 3.54396 3.75804 4.77498 3.73975 6.31163V9.65045Z" stroke="#7DC4E4" stroke-width="2" stroke-linecap="round" stroke-linejoin="round"/>
<mask id="path-3-inside-1_736_1092" fill="white">
<path d="M6.4602 6.45166C6.17853 6.45166 5.9502 6.68 5.9502 6.96166C5.9502 7.24333 6.17853 7.47166 6.4602 7.47166V6.45166ZM10.5402 7.47166C10.8219 7.47166 11.0502 7.24333 11.0502 6.96166C11.0502 6.68 10.8219 6.45166 10.5402 6.45166V7.47166ZM6.4602 8.49163C6.17853 8.49163 5.9502 8.71998 5.9502 9.00163C5.9502 9.28336 6.17853 9.51163 6.4602 9.51163V8.49163ZM10.5402 9.51163C10.8219 9.51163 11.0502 9.28336 11.0502 9.00163C11.0502 8.71998 10.8219 8.49163 10.5402 8.49163V9.51163ZM6.4602 7.47166H10.5402V6.45166H6.4602V7.47166ZM6.4602 9.51163H10.5402V8.49163H6.4602V9.51163Z"/>
</mask>
<path d="M6.4602 6.45166C6.17853 6.45166 5.9502 6.68 5.9502 6.96166C5.9502 7.24333 6.17853 7.47166 6.4602 7.47166V6.45166ZM10.5402 7.47166C10.8219 7.47166 11.0502 7.24333 11.0502 6.96166C11.0502 6.68 10.8219 6.45166 10.5402 6.45166V7.47166ZM6.4602 8.49163C6.17853 8.49163 5.9502 8.71998 5.9502 9.00163C5.9502 9.28336 6.17853 9.51163 6.4602 9.51163V8.49163ZM10.5402 9.51163C10.8219 9.51163 11.0502 9.28336 11.0502 9.00163C11.0502 8.71998 10.8219 8.49163 10.5402 8.49163V9.51163ZM6.4602 7.47166H10.5402V6.45166H6.4602V7.47166ZM6.4602 9.51163H10.5402V8.49163H6.4602V9.51163Z" fill="#A5ADCB"/>
<path d="M6.4602 7.47166H7.4602V6.45166H6.4602H5.4602V7.47166H6.4602ZM10.5402 6.45166H9.5402V7.47166H10.5402H11.5402V6.45166H10.5402ZM6.4602 9.51163H7.4602V8.49163H6.4602H5.4602V9.51163H6.4602ZM10.5402 8.49163H9.5402V9.51163H10.5402H11.5402V8.49163H10.5402ZM6.4602 6.45166V4.45166C5.07396 4.45166 3.9502 5.57543 3.9502 6.96166H5.9502H7.9502C7.9502 7.78457 7.2831 8.45166 6.4602 8.45166V6.45166ZM5.9502 6.96166H3.9502C3.9502 8.34792 5.07398 9.47166 6.4602 9.47166V7.47166V5.47166C7.28308 5.47166 7.9502 6.13874 7.9502 6.96166H5.9502ZM10.5402 7.47166V9.47166C11.9264 9.47166 13.0502 8.34793 13.0502 6.96166H11.0502H9.0502C9.0502 6.13873 9.71732 5.47166 10.5402 5.47166V7.47166ZM11.0502 6.96166H13.0502C13.0502 5.57541 11.9264 4.45166 10.5402 4.45166V6.45166V8.45166C9.7173 8.45166 9.0502 7.78458 9.0502 6.96166H11.0502ZM6.4602 8.49163V6.49163C5.07395 6.49163 3.9502 7.61542 3.9502 9.00163H5.9502H7.9502C7.9502 9.82453 7.28312 10.4916 6.4602 10.4916V8.49163ZM5.9502 9.00163H3.9502C3.9502 10.3881 5.07412 11.5116 6.4602 11.5116V9.51163V7.51163C7.28295 7.51163 7.9502 8.17863 7.9502 9.00163H5.9502ZM10.5402 9.51163V11.5116C11.9262 11.5116 13.0502 10.3881 13.0502 9.00163H11.0502H9.0502C9.0502 8.17861 9.71746 7.51163 10.5402 7.51163V9.51163ZM11.0502 9.00163H13.0502C13.0502 7.61541 11.9264 6.49163 10.5402 6.49163V8.49163V10.4916C9.71728 10.4916 9.0502 9.82455 9.0502 9.00163H11.0502ZM6.4602 7.47166V9.47166H10.5402V7.47166V5.47166H6.4602V7.47166ZM10.5402 6.45166V4.45166H6.4602V6.45166V8.45166H10.5402V6.45166ZM6.4602 9.51163V11.5116H10.5402V9.51163V7.51163H6.4602V9.51163ZM10.5402 8.49163V6.49163H6.4602V8.49163V10.4916H10.5402V8.49163Z" fill="#7DC4E4" mask="url(#path-3-inside-1_736_1092)"/>
</svg>
