<svg width="29" height="30" viewBox="0 0 29 30" fill="none" xmlns="http://www.w3.org/2000/svg">
<path fill-rule="evenodd" clip-rule="evenodd" d="M6.37988 15.7857C6.39426 17.0448 6.90832 18.2468 7.80897 19.127C8.7096 20.0073 9.92305 20.4935 11.1823 20.479H11.8319L13.7575 22.4881C13.9536 22.6869 14.2213 22.7987 14.5005 22.7987C14.7797 22.7987 15.0473 22.6869 15.2434 22.4881L17.1679 20.479H17.8175C19.0768 20.4935 20.2901 20.0073 21.1908 19.127C22.0914 18.2468 22.6055 17.0448 22.6199 15.7857V10.09C22.5887 7.4687 20.4388 5.36872 17.8175 5.39901H11.1823C8.56093 5.36872 6.41109 7.4687 6.37988 10.09V15.7857Z" stroke="#8087A2" stroke-width="2" stroke-linecap="round" stroke-linejoin="round"/>
<path fill-rule="evenodd" clip-rule="evenodd" d="M6.37988 15.7857C6.39426 17.0448 6.90832 18.2468 7.80897 19.127C8.7096 20.0073 9.92305 20.4935 11.1823 20.479H11.8319L13.7575 22.4881C13.9536 22.6869 14.2213 22.7987 14.5005 22.7987C14.7797 22.7987 15.0473 22.6869 15.2434 22.4881L17.1679 20.479H17.8175C19.0768 20.4935 20.2901 20.0073 21.1908 19.127C22.0914 18.2468 22.6055 17.0448 22.6199 15.7857V10.09C22.5887 7.4687 20.4388 5.36872 17.8175 5.39901H11.1823C8.56093 5.36872 6.41109 7.4687 6.37988 10.09V15.7857Z" stroke="#8087A2" stroke-width="2" stroke-linecap="round" stroke-linejoin="round"/>
<mask id="path-3-inside-1_530_1322" fill="white">
<path d="M11.0199 10.3291C10.5394 10.3291 10.1499 10.7186 10.1499 11.1991C10.1499 11.6796 10.5394 12.0691 11.0199 12.0691V10.3291ZM17.9799 12.0691C18.4604 12.0691 18.8499 11.6796 18.8499 11.1991C18.8499 10.7186 18.4604 10.3291 17.9799 10.3291V12.0691ZM11.0199 13.8091C10.5394 13.8091 10.1499 14.1986 10.1499 14.6791C10.1499 15.1596 10.5394 15.5491 11.0199 15.5491V13.8091ZM17.9799 15.5491C18.4604 15.5491 18.8499 15.1596 18.8499 14.6791C18.8499 14.1986 18.4604 13.8091 17.9799 13.8091V15.5491ZM11.0199 12.0691H17.9799V10.3291H11.0199V12.0691ZM11.0199 15.5491H17.9799V13.8091H11.0199V15.5491Z"/>
</mask>
<path d="M11.0199 10.3291C10.5394 10.3291 10.1499 10.7186 10.1499 11.1991C10.1499 11.6796 10.5394 12.0691 11.0199 12.0691V10.3291ZM17.9799 12.0691C18.4604 12.0691 18.8499 11.6796 18.8499 11.1991C18.8499 10.7186 18.4604 10.3291 17.9799 10.3291V12.0691ZM11.0199 13.8091C10.5394 13.8091 10.1499 14.1986 10.1499 14.6791C10.1499 15.1596 10.5394 15.5491 11.0199 15.5491V13.8091ZM17.9799 15.5491C18.4604 15.5491 18.8499 15.1596 18.8499 14.6791C18.8499 14.1986 18.4604 13.8091 17.9799 13.8091V15.5491ZM11.0199 12.0691H17.9799V10.3291H11.0199V12.0691ZM11.0199 15.5491H17.9799V13.8091H11.0199V15.5491Z" fill="#A5ADCB"/>
<path d="M11.0199 12.0691H12.0199V10.3291H11.0199H10.0199V12.0691H11.0199ZM17.9799 10.3291H16.9799V12.0691H17.9799H18.9799V10.3291H17.9799ZM11.0199 15.5491H12.0199V13.8091H11.0199H10.0199V15.5491H11.0199ZM17.9799 13.8091H16.9799V15.5491H17.9799H18.9799V13.8091H17.9799ZM11.0199 10.3291V8.3291C9.43485 8.3291 8.1499 9.61405 8.1499 11.1991H10.1499H12.1499C12.1499 11.8232 11.644 12.3291 11.0199 12.3291V10.3291ZM10.1499 11.1991H8.1499C8.1499 12.7842 9.43487 14.0691 11.0199 14.0691V12.0691V10.0691C11.644 10.0691 12.1499 10.575 12.1499 11.1991H10.1499ZM17.9799 12.0691V14.0691C19.5649 14.0691 20.8499 12.7842 20.8499 11.1991H18.8499H16.8499C16.8499 10.575 17.3558 10.0691 17.9799 10.0691V12.0691ZM18.8499 11.1991H20.8499C20.8499 9.61403 19.5649 8.3291 17.9799 8.3291V10.3291V12.3291C17.3558 12.3291 16.8499 11.8232 16.8499 11.1991H18.8499ZM11.0199 13.8091V11.8091C9.43483 11.8091 8.1499 13.094 8.1499 14.6791H10.1499H12.1499C12.1499 15.3031 11.644 15.8091 11.0199 15.8091V13.8091ZM10.1499 14.6791H8.1499C8.1499 16.2644 9.43501 17.5491 11.0199 17.5491V15.5491V13.5491C11.6438 13.5491 12.1499 14.0549 12.1499 14.6791H10.1499ZM17.9799 15.5491V17.5491C19.5648 17.5491 20.8499 16.2644 20.8499 14.6791H18.8499H16.8499C16.8499 14.0549 17.356 13.5491 17.9799 13.5491V15.5491ZM18.8499 14.6791H20.8499C20.8499 13.094 19.5649 11.8091 17.9799 11.8091V13.8091V15.8091C17.3558 15.8091 16.8499 15.3032 16.8499 14.6791H18.8499ZM11.0199 12.0691V14.0691H17.9799V12.0691V10.0691H11.0199V12.0691ZM17.9799 10.3291V8.3291H11.0199V10.3291V12.3291H17.9799V10.3291ZM11.0199 15.5491V17.5491H17.9799V15.5491V13.5491H11.0199V15.5491ZM17.9799 13.8091V11.8091H11.0199V13.8091V15.8091H17.9799V13.8091Z" fill="#8087A2" mask="url(#path-3-inside-1_530_1322)"/>
</svg>
