<svg width="88" height="20" viewBox="0 0 88 20" fill="none" xmlns="http://www.w3.org/2000/svg">
<g clip-path="url(#clip0_251_1074)">
<path d="M21.296 15.7772H9.05272C6.06093 15.7772 3.63658 13.3292 3.63658 10.2821C3.63658 7.26119 6.06093 4.81315 9.05272 4.81315H21.296C23.1778 4.81315 24.8325 5.76319 25.8098 7.22159C26.2722 7.9115 26.9799 8.45915 27.8047 8.45915C29.038 8.45915 29.9651 7.29887 29.4082 6.1875C27.9106 3.19888 24.8391 1.14111 21.296 1.14111L9.05272 1.14111C4.04923 1.14111 0 5.22984 0 10.2821C0 15.3345 4.04923 19.4492 9.05272 19.4492H21.296C24.8378 19.4492 27.9084 17.393 29.4065 14.4061C29.9647 13.2933 29.0363 12.1312 27.8011 12.1312C26.9778 12.1312 26.2703 12.6759 25.8068 13.3632C24.8291 14.8128 23.1758 15.7772 21.296 15.7772Z" fill="white"/>
<path d="M32.2491 15.5375L30.7209 18.1187H54.8551L50.5676 11.7056H33.7867V2.68457H50.5676V7.39465" stroke="#F67160" stroke-width="3" stroke-linecap="round" stroke-linejoin="round"/>
<path d="M61.2311 3.26996C61.2311 2.09423 60.2873 1.14111 59.1233 1.14111H55.7772C54.7734 1.14111 53.9592 1.9696 53.9592 2.98361C53.9592 3.99049 54.7676 4.81315 55.7645 4.81315C56.761 4.81315 57.5693 5.62939 57.5693 6.63626V17.6001C57.5693 18.6213 58.3893 19.4492 59.4005 19.4492C60.4112 19.4492 61.2311 18.6213 61.2311 17.6001V3.26996Z" fill="white"/>
<path d="M58.1222 3.74899C58.4714 3.74899 58.7545 3.46305 58.7545 3.11034C58.7545 2.75762 58.4714 2.47168 58.1222 2.47168C57.773 2.47168 57.4899 2.75762 57.4899 3.11034C57.4899 3.46305 57.773 3.74899 58.1222 3.74899Z" fill="#1C1C1C"/>
<path d="M57.0683 3.42967C57.3011 3.42967 57.4898 3.23904 57.4898 3.0039C57.4898 2.76875 57.3011 2.57812 57.0683 2.57812C56.8355 2.57812 56.6467 2.76875 56.6467 3.0039C56.6467 3.23904 56.8355 3.42967 57.0683 3.42967Z" fill="#1C1C1C"/>
<path d="M74.3905 13.0691C79.102 12.444 88 11.5845 88 6.58363C88 3.56227 85.5539 1.08789 82.5672 1.08789L66.3151 1.19208C63.7921 1.19208 61.7581 3.24972 61.7581 5.80224C61.7581 6.2338 62.1043 6.58363 62.5316 6.58363H64.6146C65.042 6.58363 65.3882 6.2338 65.3882 5.80224C65.3882 5.28131 65.8003 4.86457 66.3151 4.86457L73.7208 4.86458L82.5672 4.76038C83.5715 4.76038 84.3698 5.56781 84.3698 6.58363C84.3698 8.22449 81.1771 8.7715 73.9268 9.42261C69.2154 10.0477 61.7581 10.8291 61.7581 15.83V17.3651C61.7581 18.5442 62.7071 19.4986 63.8743 19.494L85.9322 19.4055C86.9334 19.4015 87.7423 18.5809 87.7423 17.5699C87.7423 16.5528 86.9239 15.7296 85.9164 15.7343L67.506 15.8201C66.3377 15.8256 65.7723 14.8892 66.8626 14.4661C68.6089 13.7883 71.6314 13.4287 74.3905 13.0691Z" fill="white"/>
</g>
<defs>
<clipPath id="clip0_251_1074">
<rect width="88" height="19" fill="white" transform="translate(0 0.875)"/>
</clipPath>
</defs>
</svg>
