<svg width="28" height="29" viewBox="0 0 28 29" fill="none" xmlns="http://www.w3.org/2000/svg">
<path d="M20.9999 14.7682H21.0116M13.9999 14.7682H14.0116M6.99992 14.7682H7.01159M15.1666 14.7682C15.1666 15.4126 14.6443 15.9349 13.9999 15.9349C13.3556 15.9349 12.8333 15.4126 12.8333 14.7682C12.8333 14.1239 13.3556 13.6016 13.9999 13.6016C14.6443 13.6016 15.1666 14.1239 15.1666 14.7682ZM22.1666 14.7682C22.1666 15.4126 21.6443 15.9349 20.9999 15.9349C20.3556 15.9349 19.8333 15.4126 19.8333 14.7682C19.8333 14.1239 20.3556 13.6016 20.9999 13.6016C21.6443 13.6016 22.1666 14.1239 22.1666 14.7682ZM8.16659 14.7682C8.16659 15.4126 7.64425 15.9349 6.99992 15.9349C6.35559 15.9349 5.83325 15.4126 5.83325 14.7682C5.83325 14.1239 6.35559 13.6016 6.99992 13.6016C7.64425 13.6016 8.16659 14.1239 8.16659 14.7682Z" stroke="#A5ADCB" stroke-width="2" stroke-linecap="round" stroke-linejoin="round"/>
</svg>
