<svg width="9" height="29" viewBox="0 0 9 29" fill="none" xmlns="http://www.w3.org/2000/svg">
<g clip-path="url(#clip0_555_1373)">
<path d="M1.30826 20.5444C1.21446 20.1338 1.10847 19.8342 1.08045 19.5272C0.675994 15.016 0.317832 10.5 0.639447 5.96694C0.738125 4.57571 0.931825 3.19301 1.08776 1.80787C1.11942 1.63692 1.16009 1.46775 1.20958 1.30108C1.23466 1.14513 1.30957 1.0015 1.42311 0.891693C1.53665 0.781885 1.68271 0.711811 1.83941 0.691964C2.35473 0.606687 2.8737 0.484863 3.39145 0.484863C4.22594 0.484863 5.06044 0.551866 5.89615 0.596941C6.24335 0.615215 6.59054 0.644453 6.93896 0.668817C7.14701 0.67019 7.35467 0.686885 7.56026 0.718765C8.9186 1.02089 9.07331 1.12322 8.97707 2.40968C8.80165 4.73408 8.65668 7.06335 8.46176 9.38653C8.30582 11.2602 8.10969 13.1302 7.91111 14.999C7.75883 16.4243 7.38118 17.8009 6.93652 19.1617C6.84715 19.4639 6.67805 19.7366 6.44697 19.9509C6.21589 20.1653 5.93137 20.3135 5.62326 20.3799C4.21192 20.7335 2.74243 20.7895 1.30826 20.5444ZM7.90015 1.72259C6.50161 1.62513 5.22003 1.52402 3.92869 1.45093C3.54469 1.43877 3.16035 1.45956 2.77989 1.51306C2.17077 1.58493 2.01849 1.7567 1.94905 2.38288C1.89302 2.90307 1.83941 3.42326 1.80287 3.94588C1.68104 5.65141 1.52389 7.35695 1.46054 9.06248C1.34481 12.2104 1.80896 15.3328 1.9722 18.4685C1.99047 18.8035 1.98073 19.1702 2.20001 19.4431C2.26673 19.4867 2.3388 19.5215 2.41442 19.5466C3.42921 19.7014 4.43304 19.5004 5.43931 19.4407C5.80478 19.4187 5.9729 19.1361 6.05696 18.8157C6.2604 18.0397 6.48821 17.2673 6.63806 16.4816C6.8281 15.4875 6.96089 14.4836 7.09855 13.481C7.24108 12.4504 7.0754 11.3881 7.41164 10.3757C7.38484 9.08807 7.66625 7.82597 7.70401 6.54195C7.74422 5.18239 7.87335 3.82527 7.95497 2.46694C7.95096 2.21798 7.93266 1.96945 7.90015 1.72259Z" />
<path d="M0.139903 25.5562C0.117974 23.4219 1.41174 22.2609 2.98327 21.5897C3.95786 21.1767 4.75337 21.5604 5.47092 22.1915C5.87289 22.5282 6.1883 22.9563 6.39072 23.44C6.59315 23.9237 6.67668 24.4489 6.63433 24.9715C6.5917 25.7475 6.46987 26.4894 6.05932 27.1643C5.5233 28.0488 4.71926 28.4885 3.71543 28.4764C3.05232 28.4643 2.39688 28.3323 1.78087 28.0865C0.828208 27.7235 0.0278247 26.7087 0.139903 25.5562ZM5.68654 25.3211C5.71014 24.7079 5.54885 24.1018 5.22361 23.5815C4.89834 23.0174 4.33917 22.7056 3.7264 22.5253C3.52282 22.4723 3.30707 22.493 3.11728 22.5837C2.23284 23.0406 1.51286 23.6668 1.19246 24.6547C1.0859 24.9871 1.0859 25.3445 1.19246 25.6768C1.69194 27.3592 3.27443 27.514 4.48171 27.2727C4.54932 27.2564 4.61226 27.2247 4.66566 27.1802C5.25407 26.677 5.81933 26.1593 5.68654 25.3211Z" />
<path d="M7.90031 1.72253C7.93259 1.96737 7.95089 2.21386 7.95513 2.46078C7.87351 3.81912 7.74437 5.17624 7.70417 6.53579C7.66641 7.81982 7.38499 9.08191 7.4118 10.3696C7.07556 11.3819 7.24124 12.4406 7.09871 13.4749C6.96105 14.4775 6.82826 15.4813 6.63821 16.4754C6.48837 17.2612 6.26056 18.0335 6.05711 18.8095C5.97306 19.1299 5.81347 19.4187 5.43947 19.4345C4.4332 19.4942 3.42937 19.6952 2.41458 19.5405C2.33896 19.5153 2.26689 19.4805 2.20017 19.4369C1.98089 19.1665 1.99063 18.7998 1.97236 18.4623C1.80912 15.3266 1.34497 12.2043 1.4607 9.05633C1.52405 7.35079 1.6812 5.64526 1.80302 3.93973C1.83957 3.4171 1.89317 2.89691 1.94921 2.37672C2.01865 1.7469 2.17215 1.57878 2.78005 1.5069C3.16051 1.4534 3.54485 1.43262 3.92885 1.44477C5.21653 1.52396 6.50177 1.62507 7.90031 1.72253Z" />
<path d="M5.68631 25.3212C5.8191 26.1593 5.25384 26.6795 4.65934 27.1814C4.60593 27.226 4.54299 27.2577 4.47538 27.274C3.2742 27.5177 1.69171 27.3605 1.19223 25.6781C1.08566 25.3457 1.08566 24.9884 1.19223 24.656C1.51262 23.6668 2.2326 23.0406 3.11705 22.585C3.30683 22.4943 3.52258 22.4736 3.72616 22.5265C4.33528 22.7068 4.89811 23.0138 5.22338 23.5827C5.54838 24.1027 5.70966 24.7084 5.68631 25.3212Z" />
</g>
<defs>
<clipPath id="clip0_555_1373">
<rect width="8.87077" height="27.9917" fill="white" transform="translate(0.129395 0.484863)"/>
</clipPath>
</defs>
</svg>
