<svg width="100%" height="100%" viewBox="0 0 28 29" fill="none" xmlns="http://www.w3.org/2000/svg">
<path d="M0 14.7497C0.0373333 14.8243 0.084 14.927 0.14 15.0577C0.196 15.1883 0.336 15.459 0.56 15.8697C0.784 16.2803 1.02667 16.6723 1.288 17.0457C1.54933 17.419 1.91333 17.867 2.38 18.3897C2.84667 18.9123 3.332 19.407 3.836 19.8737C4.34 20.3403 4.96533 20.7977 5.712 21.2457C6.45867 21.6937 7.224 22.0857 8.008 22.4217C8.792 22.7577 9.70667 23.019 10.752 23.2057C11.7973 23.3923 12.88 23.495 14 23.5137C15.12 23.5323 16.2027 23.4297 17.248 23.2057C18.2933 22.9817 19.2173 22.711 20.02 22.3937C20.8227 22.0763 21.5787 21.6937 22.288 21.2457C22.9973 20.7977 23.6227 20.331 24.164 19.8457C24.7053 19.3603 25.1907 18.8843 25.62 18.4177C26.0493 17.951 26.4133 17.4843 26.712 17.0177C27.0107 16.551 27.2533 16.1683 27.44 15.8697C27.6267 15.571 27.7667 15.3003 27.86 15.0577L28 14.7497C27.9813 14.675 27.9347 14.5723 27.86 14.4417C27.7853 14.311 27.6453 14.0497 27.44 13.6577C27.2347 13.2657 26.992 12.8737 26.712 12.4817C26.432 12.0897 26.068 11.6323 25.62 11.1097C25.172 10.587 24.6867 10.1017 24.164 9.65367C23.6413 9.20567 23.016 8.74834 22.288 8.28167C21.56 7.81501 20.7947 7.42301 19.992 7.10567C19.1893 6.78834 18.2747 6.52701 17.248 6.32167C16.2213 6.11634 15.1387 6.01367 14 6.01367C12.8613 6.01367 11.7787 6.11634 10.752 6.32167C9.72533 6.52701 8.80133 6.78834 7.98 7.10567C7.15867 7.42301 6.40267 7.81501 5.712 8.28167C5.02133 8.74834 4.396 9.20567 3.836 9.65367C3.276 10.1017 2.79067 10.587 2.38 11.1097C1.96933 11.6323 1.60533 12.0897 1.288 12.4817C0.970667 12.8737 0.728 13.2657 0.56 13.6577C0.392 14.0497 0.252 14.3203 0.14 14.4697L0 14.7497ZM8.764 14.7497C8.764 13.3123 9.268 12.0803 10.276 11.0537C11.284 10.027 12.5253 9.51367 14 9.51367C15.4747 9.51367 16.716 10.027 17.724 11.0537C18.732 12.0803 19.2453 13.3123 19.264 14.7497C19.2827 16.187 18.7693 17.4283 17.724 18.4737C16.6787 19.519 15.4373 20.0323 14 20.0137C12.5627 19.995 11.3213 19.4817 10.276 18.4737C9.23067 17.4657 8.72667 16.2243 8.764 14.7497ZM10.5 14.7497C10.5 15.7203 10.8453 16.551 11.536 17.2417C12.2267 17.9323 13.048 18.2683 14 18.2497C14.952 18.231 15.7733 17.895 16.464 17.2417C17.1547 16.5883 17.5 15.7577 17.5 14.7497C17.5 13.7417 17.1547 12.9203 16.464 12.2857C15.7733 11.651 14.952 11.3057 14 11.2497C13.048 11.1937 12.2267 11.539 11.536 12.2857L14 14.7497H10.5Z" fill="#6E738D"/>
</svg>
