<?xml version="1.0" encoding="UTF-8"?>
<svg id="Layer_1" data-name="Layer 1" xmlns="http://www.w3.org/2000/svg" width="244.59" height="357.6" viewBox="0 0 244.59 357.6">
  <defs>
    <style>
      .cls-1 {
        fill: #b3612f;
      }

      .cls-1, .cls-2, .cls-3, .cls-4, .cls-5, .cls-6, .cls-7 {
        stroke-width: 0px;
      }

      .cls-2 {
        fill: #3c2a20;
      }

      .cls-3 {
        fill: #772b1d;
      }

      .cls-8 {
        fill: #f2d7a2;
        stroke: #2e1b0d;
        stroke-miterlimit: 10;
        stroke-width: 4px;
      }

      .cls-4 {
        fill: #d35d3f;
      }

      .cls-5 {
        fill: #2d200d;
      }

      .cls-6 {
        fill: #402c23;
      }

      .cls-7 {
        fill: #2e1b0d;
      }
    </style>
  </defs>
  <path class="cls-7" d="M135.49,211.27c-6.26-1-11.59,3.22-16.79,5.7-18.64,8.71-44.58,11.16-63.16,1.22-1.32-.81-2.85-1.44-4.43-1.3-5.13.24-6.88,5.96-7.9,10.14-2.54,11.94,6.33,22.07,12.91,31.02,7.22,9.04,17.92,15.39,29.38,17.27,14.34,2.46,29.71-1.31,40.8-10.83,5.52-4.67,9.89-10.55,13.42-16.79,2.22-3.78,4.18-7.69,5.24-12.05,2.05-8.17.36-22.19-9.47-24.38ZM133.76,248.96c-6.93,11.34-18.42,19.98-31.7,21.98-7.34,1.27-14.87.54-21.8-1.88-.59-10.77,7.33-17.33,16.78-21.57,11.95-5.92,25.78-5.44,38.15-.82-.48.77-.95,1.54-1.43,2.29ZM136.9,243.71c-12.4-7.86-29.19-7.25-42.06-.56-7.54,3.73-15.35,9.44-17.35,18.16-.52,2.12-.69,4.3-.56,6.44-6.52-2.88-12.35-7.31-16.74-13.09-3.19-4-6.45-8.85-9.35-13.15-3.46-5.23-5.56-11.45-3.35-17.54.63-1.88,1.54-4.1,3.79-4.07.99-.09,2,.53,2.8,1.01,5.03,2.81,10.46,5.03,16.08,6.37,16.86,4.18,35.03,1.64,50.42-6.27,4.46-2.13,9.19-5.99,13.99-5.52,4.76.84,6.29,7.23,6.74,11.51.63,5.84-1.54,11.5-4.41,16.71ZM211.57,208.54c-2.68-6.39-10.79-9.44-17.06-6.52-8.39,4.23-13.29,14.41-10.99,23.44.18.81,1.43.73,1.51-.1.67-5.42,2.47-10.17,5.96-14.31,2.4-2.86,5.09-5.21,8.69-5.56,3.33-.27,7.05,1.6,8.58,4.57,3.05,5.76-2.81,17.16-7.14,21.44-.32.33.15.86.52.58,2.28-1.73,4.3-3.86,5.94-6.28,1.61-2.52,2.91-5.02,3.92-7.83,1.02-2.97,1.38-6.4.07-9.43ZM211.57,208.54c-2.68-6.39-10.79-9.44-17.06-6.52-8.39,4.23-13.29,14.41-10.99,23.44.18.81,1.43.73,1.51-.1.67-5.42,2.47-10.17,5.96-14.31,2.4-2.86,5.09-5.21,8.69-5.56,3.33-.27,7.05,1.6,8.58,4.57,3.05,5.76-2.81,17.16-7.14,21.44-.32.33.15.86.52.58,2.28-1.73,4.3-3.86,5.94-6.28,1.61-2.52,2.91-5.02,3.92-7.83,1.02-2.97,1.38-6.4.07-9.43ZM135.49,211.27c-6.26-1-11.59,3.22-16.79,5.7-18.64,8.71-44.58,11.16-63.16,1.22-1.32-.81-2.85-1.44-4.43-1.3-5.13.24-6.88,5.96-7.9,10.14-2.54,11.94,6.33,22.07,12.91,31.02,7.22,9.04,17.92,15.39,29.38,17.27,14.34,2.46,29.71-1.31,40.8-10.83,5.52-4.67,9.89-10.55,13.42-16.79,2.22-3.78,4.18-7.69,5.24-12.05,2.05-8.17.36-22.19-9.47-24.38ZM133.76,248.96c-6.93,11.34-18.42,19.98-31.7,21.98-7.34,1.27-14.87.54-21.8-1.88-.59-10.77,7.33-17.33,16.78-21.57,11.95-5.92,25.78-5.44,38.15-.82-.48.77-.95,1.54-1.43,2.29ZM136.9,243.71c-12.4-7.86-29.19-7.25-42.06-.56-7.54,3.73-15.35,9.44-17.35,18.16-.52,2.12-.69,4.3-.56,6.44-6.52-2.88-12.35-7.31-16.74-13.09-3.19-4-6.45-8.85-9.35-13.15-3.46-5.23-5.56-11.45-3.35-17.54.63-1.88,1.54-4.1,3.79-4.07.99-.09,2,.53,2.8,1.01,5.03,2.81,10.46,5.03,16.08,6.37,16.86,4.18,35.03,1.64,50.42-6.27,4.46-2.13,9.19-5.99,13.99-5.52,4.76.84,6.29,7.23,6.74,11.51.63,5.84-1.54,11.5-4.41,16.71ZM135.49,211.27c-6.26-1-11.59,3.22-16.79,5.7-18.64,8.71-44.58,11.16-63.16,1.22-1.32-.81-2.85-1.44-4.43-1.3-5.13.24-6.88,5.96-7.9,10.14-2.54,11.94,6.33,22.07,12.91,31.02,7.22,9.04,17.92,15.39,29.38,17.27,14.34,2.46,29.71-1.31,40.8-10.83,5.52-4.67,9.89-10.55,13.42-16.79,2.22-3.78,4.18-7.69,5.24-12.05,2.05-8.17.36-22.19-9.47-24.38ZM133.76,248.96c-6.93,11.34-18.42,19.98-31.7,21.98-7.34,1.27-14.87.54-21.8-1.88-.59-10.77,7.33-17.33,16.78-21.57,11.95-5.92,25.78-5.44,38.15-.82-.48.77-.95,1.54-1.43,2.29ZM136.9,243.71c-12.4-7.86-29.19-7.25-42.06-.56-7.54,3.73-15.35,9.44-17.35,18.16-.52,2.12-.69,4.3-.56,6.44-6.52-2.88-12.35-7.31-16.74-13.09-3.19-4-6.45-8.85-9.35-13.15-3.46-5.23-5.56-11.45-3.35-17.54.63-1.88,1.54-4.1,3.79-4.07.99-.09,2,.53,2.8,1.01,5.03,2.81,10.46,5.03,16.08,6.37,16.86,4.18,35.03,1.64,50.42-6.27,4.46-2.13,9.19-5.99,13.99-5.52,4.76.84,6.29,7.23,6.74,11.51.63,5.84-1.54,11.5-4.41,16.71ZM211.57,208.54c-2.68-6.39-10.79-9.44-17.06-6.52-8.39,4.23-13.29,14.41-10.99,23.44.18.81,1.43.73,1.51-.1.67-5.42,2.47-10.17,5.96-14.31,2.4-2.86,5.09-5.21,8.69-5.56,3.33-.27,7.05,1.6,8.58,4.57,3.05,5.76-2.81,17.16-7.14,21.44-.32.33.15.86.52.58,2.28-1.73,4.3-3.86,5.94-6.28,1.61-2.52,2.91-5.02,3.92-7.83,1.02-2.97,1.38-6.4.07-9.43ZM211.57,208.54c-2.68-6.39-10.79-9.44-17.06-6.52-8.39,4.23-13.29,14.41-10.99,23.44.18.81,1.43.73,1.51-.1.67-5.42,2.47-10.17,5.96-14.31,2.4-2.86,5.09-5.21,8.69-5.56,3.33-.27,7.05,1.6,8.58,4.57,3.05,5.76-2.81,17.16-7.14,21.44-.32.33.15.86.52.58,2.28-1.73,4.3-3.86,5.94-6.28,1.61-2.52,2.91-5.02,3.92-7.83,1.02-2.97,1.38-6.4.07-9.43ZM135.49,211.27c-6.26-1-11.59,3.22-16.79,5.7-18.64,8.71-44.58,11.16-63.16,1.22-1.32-.81-2.85-1.44-4.43-1.3-5.13.24-6.88,5.96-7.9,10.14-2.54,11.94,6.33,22.07,12.91,31.02,7.22,9.04,17.92,15.39,29.38,17.27,14.34,2.46,29.71-1.31,40.8-10.83,5.52-4.67,9.89-10.55,13.42-16.79,2.22-3.78,4.18-7.69,5.24-12.05,2.05-8.17.36-22.19-9.47-24.38ZM133.76,248.96c-6.93,11.34-18.42,19.98-31.7,21.98-7.34,1.27-14.87.54-21.8-1.88-.59-10.77,7.33-17.33,16.78-21.57,11.95-5.92,25.78-5.44,38.15-.82-.48.77-.95,1.54-1.43,2.29ZM136.9,243.71c-12.4-7.86-29.19-7.25-42.06-.56-7.54,3.73-15.35,9.44-17.35,18.16-.52,2.12-.69,4.3-.56,6.44-6.52-2.88-12.35-7.31-16.74-13.09-3.19-4-6.45-8.85-9.35-13.15-3.46-5.23-5.56-11.45-3.35-17.54.63-1.88,1.54-4.1,3.79-4.07.99-.09,2,.53,2.8,1.01,5.03,2.81,10.46,5.03,16.08,6.37,16.86,4.18,35.03,1.64,50.42-6.27,4.46-2.13,9.19-5.99,13.99-5.52,4.76.84,6.29,7.23,6.74,11.51.63,5.84-1.54,11.5-4.41,16.71ZM135.49,211.27c-6.26-1-11.59,3.22-16.79,5.7-18.64,8.71-44.58,11.16-63.16,1.22-1.32-.81-2.85-1.44-4.43-1.3-5.13.24-6.88,5.96-7.9,10.14-2.54,11.94,6.33,22.07,12.91,31.02,7.22,9.04,17.92,15.39,29.38,17.27,14.34,2.46,29.71-1.31,40.8-10.83,5.52-4.67,9.89-10.55,13.42-16.79,2.22-3.78,4.18-7.69,5.24-12.05,2.05-8.17.36-22.19-9.47-24.38ZM133.76,248.96c-6.93,11.34-18.42,19.98-31.7,21.98-7.34,1.27-14.87.54-21.8-1.88-.59-10.77,7.33-17.33,16.78-21.57,11.95-5.92,25.78-5.44,38.15-.82-.48.77-.95,1.54-1.43,2.29ZM136.9,243.71c-12.4-7.86-29.19-7.25-42.06-.56-7.54,3.73-15.35,9.44-17.35,18.16-.52,2.12-.69,4.3-.56,6.44-6.52-2.88-12.35-7.31-16.74-13.09-3.19-4-6.45-8.85-9.35-13.15-3.46-5.23-5.56-11.45-3.35-17.54.63-1.88,1.54-4.1,3.79-4.07.99-.09,2,.53,2.8,1.01,5.03,2.81,10.46,5.03,16.08,6.37,16.86,4.18,35.03,1.64,50.42-6.27,4.46-2.13,9.19-5.99,13.99-5.52,4.76.84,6.29,7.23,6.74,11.51.63,5.84-1.54,11.5-4.41,16.71ZM211.57,208.54c-2.68-6.39-10.79-9.44-17.06-6.52-8.39,4.23-13.29,14.41-10.99,23.44.18.81,1.43.73,1.51-.1.67-5.42,2.47-10.17,5.96-14.31,2.4-2.86,5.09-5.21,8.69-5.56,3.33-.27,7.05,1.6,8.58,4.57,3.05,5.76-2.81,17.16-7.14,21.44-.32.33.15.86.52.58,2.28-1.73,4.3-3.86,5.94-6.28,1.61-2.52,2.91-5.02,3.92-7.83,1.02-2.97,1.38-6.4.07-9.43ZM211.57,208.54c-2.68-6.39-10.79-9.44-17.06-6.52-8.39,4.23-13.29,14.41-10.99,23.44.18.81,1.43.73,1.51-.1.67-5.42,2.47-10.17,5.96-14.31,2.4-2.86,5.09-5.21,8.69-5.56,3.33-.27,7.05,1.6,8.58,4.57,3.05,5.76-2.81,17.16-7.14,21.44-.32.33.15.86.52.58,2.28-1.73,4.3-3.86,5.94-6.28,1.61-2.52,2.91-5.02,3.92-7.83,1.02-2.97,1.38-6.4.07-9.43ZM135.49,211.27c-6.26-1-11.59,3.22-16.79,5.7-18.64,8.71-44.58,11.16-63.16,1.22-1.32-.81-2.85-1.44-4.43-1.3-5.13.24-6.88,5.96-7.9,10.14-2.54,11.94,6.33,22.07,12.91,31.02,7.22,9.04,17.92,15.39,29.38,17.27,14.34,2.46,29.71-1.31,40.8-10.83,5.52-4.67,9.89-10.55,13.42-16.79,2.22-3.78,4.18-7.69,5.24-12.05,2.05-8.17.36-22.19-9.47-24.38ZM133.76,248.96c-6.93,11.34-18.42,19.98-31.7,21.98-7.34,1.27-14.87.54-21.8-1.88-.59-10.77,7.33-17.33,16.78-21.57,11.95-5.92,25.78-5.44,38.15-.82-.48.77-.95,1.54-1.43,2.29ZM136.9,243.71c-12.4-7.86-29.19-7.25-42.06-.56-7.54,3.73-15.35,9.44-17.35,18.16-.52,2.12-.69,4.3-.56,6.44-6.52-2.88-12.35-7.31-16.74-13.09-3.19-4-6.45-8.85-9.35-13.15-3.46-5.23-5.56-11.45-3.35-17.54.63-1.88,1.54-4.1,3.79-4.07.99-.09,2,.53,2.8,1.01,5.03,2.81,10.46,5.03,16.08,6.37,16.86,4.18,35.03,1.64,50.42-6.27,4.46-2.13,9.19-5.99,13.99-5.52,4.76.84,6.29,7.23,6.74,11.51.63,5.84-1.54,11.5-4.41,16.71ZM244.37,119.86c-2.07-14.2-12.46-22.06-25.61-21.49,1.15-.93,2.23-1.95,3.26-3.03,5.5-6.04,8.82-14.07,8.52-22.37-.4-8.46-4.46-16.97-11.98-21.36-9.12-5.24-20.65-3.54-28.68,2.71.71-2.49,1.18-5.07,1.36-7.65.53-5.03.14-10.73-3.16-14.93-6.71-8.75-18.4-10.2-27.42-4.32-3.69,2.14-6.73,5.2-8.95,8.77-1.07-15.95-12.24-31.31-28.11-35.13-6.98-1.84-14.27-1.14-21.09.94-10.39,2.65-17.61,11.09-18.87,21.21-.06-.09-.11-.19-.17-.29-5.93-9.26-16.02-16.02-27.09-17.1-11-1.07-21.55,3.54-28.01,12.53-6.43,8.63-6.11,19.59-.17,27.74-7.88-1.56-16.57.89-22.18,6.79-7,7.21-7.97,19.33-2.54,27.7,3.07,4.75,8.02,8.13,13.48,9.35-.3.23-.59.46-.87.72-9.85,9.93,1.06,26.07,11.83,31.4-4.02,3.22-6.35,8.52-6.12,13.76.13,6.24,4.38,12.04,10.03,14.34.7.3,1.35.04,1.73-.44.18-.22.3-.49.34-.77h0c.07-.46-.07-.93-.49-1.29-.05-.05-.1-.09-.16-.13-9.31-6.22-8.68-17.68-.95-24.94.5-.81.16-1.85-.7-2.26-7.05-4.08-15.53-14.56-13.9-22.95.55-2.62,2.41-5.05,4.95-7.15,1.03-.82.59-2.6-.75-2.81-5.55-1.21-10.35-4.47-13.19-8.91-1.46-2.2-2.31-4.67-2.67-7.28-2.38-15.22,13.03-24.71,26.66-20.46.5.16,1.07.06,1.49-.32.65-.6.66-1.62.02-2.24-8.48-9.15-8.13-21.45,1.14-29.87,5.42-5.48,12.98-7.57,20.53-6.9,11.6,1.17,21.79,8.6,27.88,18.57.25.41.69.7,1.21.74.89.05,1.64-.66,1.64-1.56.52-10.46,7.09-19.17,17.49-21.41,5.85-1.54,12.11-2.17,18.01-.68,9.94,2.36,17.99,10,22.36,19.06,2.68,5.67,3.96,11.89,3.84,18.23-.02,1.64,2.29,2.15,2.95.57,2.54-4.93,6.33-9.35,11.25-11.96,4.71-2.59,9.71-3.85,14.64-1.72,9.04,3.68,9.05,11.12,8.79,19.58-.09,2.87-.63,5.72-1.29,8.59-.11.45-.02.94.29,1.33.54.7,1.56.79,2.24.21,1.39-1.09,2.87-2.09,4.4-2.99,9.88-6.02,24.4-5.29,30.08,5.91,4.92,9.05,2.81,20.41-3.18,28.5-2.01,2.84-4.63,5.26-7.52,7.37-.38.28-.64.75-.63,1.27.02.9.8,1.59,1.71,1.51,8.47-.01,18.31,2.25,22.37,10.36,7.46,13.47-1.29,29.76-15.62,34.36-1.46.45-1.39,2.67.15,2.99,7.11,1.74,11.41,7.66,9.98,14.94-1.39,8.99-11.57,16.84-20.42,17.87-1.95.19-3.7-.27-5.84-.39-9.58-.35-19.84,3.51-25.87,11.08.11-1.54.23-3.07.38-4.56,1.69-17.41,4.32-34.84,8.41-51.84l1.66-6.35c.55-2.12,1.19-4.22,1.76-6.35l.11-.42c.27-.93-.65-1.85-1.57-1.61-6.09-1.5-10.8-4.55-13.47-10.15-2.65-5.63-3.28-11.92-1.94-18.16.21-.79.29-1.62-.49-2.12-.65-.41-1.51-.21-1.91.44-11.3,8.67-27.47,3.1-28.3-11.86,0-.11-.02-.22-.04-.31.08-.33.18-.65.25-.98.47-1.76-2.06-2.67-2.82-1.01-1.71,3.8-4.22,7.27-7.49,9.82-8.27,6.64-19.85,7.81-26.62-1.52-1.26-1.62-2.25-3.51-3-5.42-.26-.66-.96-1.06-1.68-.92-.83.15-1.37.96-1.2,1.78.32,1.62.85,3.16,1.54,4.64-7.45,5.98-17.65,8.55-25.4,1.69-3.24-2.66-6-5.93-7.52-9.9-.92-2.15-1.62-4.52-1.21-6.75.48-2.55,2.11-5.83,4.87-6.14,2.42-.33,5.91,1.98,8.76,3.82,2.85,2.02,5.32,4.61,7.37,7.54.75,1.08,2.44.04,1.81-1.12-3.24-5.92-8.54-10.89-14.79-13.62-6.05-2.39-11.34,2.98-12.47,8.62-1.03,5.67,1.32,11.97,5.31,17.08-1.5.1-3,.11-4.53.01-4.22-.13-8.13-1-11.26-3.86-1.54-1.36-2.56-3.07-4.35-4.58-.35-.33-.98-.04-.95.45.29,3.1,2.32,5.73,4.87,7.64-.02,0-.03.01-.04.02-12.05,8.47-16.51,20.47-17.78,34.66-.97,7.87-.75,15.96,1.13,23.66.05.19.12.36.22.5.12.19.28.34.47.44.9.52,2.31-.02,2.28-1.34-.02-.68-.04-1.35-.05-2.02-.15-6.94-.08-13.79.69-20.68,1.14-13.31,4.48-23.88,14.89-32.86.3-.27.46-.59.5-.91.74.39,1.5.74,2.24,1.02,4.63,1.45,9.26,1.46,13.93.66.06-.01.11-.03.17-.05,3.78,3.81,8.48,6.57,13.11,7.23,7.28,1.23,15.57-1.6,19.69-7.75,9.46,13.54,28.61,8.85,36.4-3.73.83,3.88,2.89,7.54,5.99,10.06,6.08,5.12,15.33,5.56,22.24,1.86-1.57,5.4-1.06,11.44,1.21,16.64,2.61,6.71,9.75,11.53,16.89,10.93-6.92,15.55-9.82,32.6-11.72,49.39-.51,4.43-.96,8.86-1.29,13.32-.4,13.73-.72,23.57-10.89,33.18-2.26-5.7-5.57-10.91-10-15.27-4.99-4.92-12.24-7.59-19.18-7.41-3.44.02-6.86.08-10.24.8-3.4.72-6.54,1.74-9.72,2.65-6.32,1.84-12.73,3.57-19.1,5.2-6.26,1.83-12.58,1.15-18.92.05-6.4-1.19-12.71-3-19.19-4.69-1.66-.41-3.45-.75-5.3-.73-7.16.21-14.36,4.35-17.45,10.97-1.7,4.07-2.52,8.33-3,12.66-8.94-6.42-7.64-19.97-3.33-29.15,3.02-6.54,6.28-13.1,9.55-19.59.04-.08.08-.16.12-.24.72-1.21-.42-2.51-1.57-2.28-.28.05-.56.19-.81.45-5.02,5.4-9.56,11.54-13.08,18.17-.05-1.04-.04-2.09.03-3.15.3-8.34,4.76-15.89,12.22-19.86.04-.02.09-.05.13-.07,1.42-.77.78-2.89-.74-2.86-.08,0-.16.01-.25.03-11.6,2.08-17.49,14.38-16.04,25.35.28,2.32.87,4.59,1.75,6.71-2.94,7.16-4.6,14.77-4.37,22.6.56,17.7,8.11,35.04,20.33,47.8,15.07,15.42,32.51,26.68,52.94,29.86.03.72.07,1.5.11,2.33-24.45,8.71-45.09,29.7-50.88,55.3h3.19c2.1-5.65,4.73-11.05,7.88-16.09,9.55-15.53,24.14-26.96,39.96-35.7.31,6.83.66,14.64.66,14.64,0,.19.05.38.13.56,6.23,13.53,25.43,15.1,37.95,10.76,11.9-3.33,21.82-11.07,26.39-22.82.63-1.48.65-3.29.55-4.81-.13-3.27-.24-6.53-.35-9.8,15.03,5.06,29.83,12.41,41.9,22.48,12.04,10.62,20.99,24.97,24.13,40.78h5.25c-1.2-8.75-4.31-17.3-8.85-24.84-8.92-15.33-23.39-26.35-39.4-33.43-7.42-3.56-15.18-6.35-23.14-8.29-.13-4.4-.23-8.8-.29-13.2,2.91-3.11,5.6-6.46,8.04-10,2.03-2.94,3.84-6.02,5.45-9.21,3.13,1.72,6.86,2.49,10.44,2.11,7.14-.63,13.4-6.04,14.29-13.05,1.75.27,3.53.38,5.31.32,12.44-.17,23.81-8.3,28.69-19.63,3-6.61,4.8-13.91,3.61-21.19-1.13-7.67-5.88-14.62-12.27-18.91.45-.15.9-.29,1.34-.46,6.71-2.56,12.25-7.23,16.04-13.2,5.18-8.47,3.82-21.29-5.91-25.72,1.15-.39,2.27-.85,3.37-1.39,10.02-4.99,16.32-16.5,14.84-27.65ZM147.39,308.25c-2.47,5.84-6.64,10.99-11.9,14.52-3.51,2.39-7.47,3.93-11.75,5.29-4.14,1.35-8.34,2.11-12.56,1.99-7.78-.27-16.82-2.82-20.33-10.35-.4-5.64-1.05-12.97-1.64-19.3,4.67.52,9.5.63,14.49.27,16.6-.75,31.55-7.89,43.39-18.82.28,8.01.65,16.02.93,24.02.01.82-.31,1.65-.63,2.38ZM161.02,254.18c-12.64,26.65-40.8,42.46-70.14,39.76-21.13-1.54-39.04-13.29-53.81-27.81-13.66-13.79-21.93-33.97-19.37-53.4.67,7.43,4.7,14.94,12.03,17.38.94.34,1.97-.34,2.09-1.32.69-3.15,1.65-6.23,2.64-9.28.96-3.03,2.15-5.38,4.1-7.24,2.77-2.73,6.97-4.62,10.95-4.74,4.22.14,9.47,2,13.73,2.87,7.86,1.77,16,3.41,24.15,2.88,5.65-.51,10.81-2.47,16.21-3.81,6.26-1.59,12.81-3.81,19-5.24,16.99-2.81,25.71,1.72,34.35,16.55.82,1.4,1.52,2.88,2.21,4.37.4.87,1.54,1.16,2.3.58,3.34-2.29,6.27-5.24,8.62-8.61-.31,2.54-.56,5.07-.72,7.6-1.1,10.15-4.03,20.23-8.34,29.46ZM183.08,250.93c-4.25,4.69-10.81,5.57-16.8,4.26,2.38-5.27,4.25-10.77,5.7-16.36,3.74,3.82,8.52,6.61,13.68,8.06-.69,1.52-1.54,2.89-2.58,4.04ZM221.31,207.98c1.06,11.43-5.08,25.65-15.34,31.31-10.52,6.16-24.29,4.11-33.09-4.2.25-1.12.5-2.25.72-3.38.63-3,.99-6.6,1.25-9.68.45-5.16,1.29-10.18,2.44-15.28.72-2.96,1.04-5.65,2.65-8.03,4.74-6.87,14.12-10.42,22.27-9.84,2.07.2,4.52.74,6.77.53.27-.02.53-.06.8-.09,6.19,4.43,10.74,11.08,11.53,18.66ZM194.51,202.02c-8.39,4.23-13.29,14.41-10.99,23.44.18.81,1.43.73,1.51-.1.67-5.42,2.47-10.17,5.96-14.31,2.4-2.86,5.09-5.21,8.69-5.56,3.33-.27,7.05,1.6,8.58,4.57,3.05,5.76-2.81,17.16-7.14,21.44-.32.33.15.86.52.58,2.28-1.73,4.3-3.86,5.94-6.28,1.61-2.52,2.91-5.02,3.92-7.83,1.02-2.97,1.38-6.4.07-9.43-2.68-6.39-10.79-9.44-17.06-6.52ZM135.49,211.27c-6.26-1-11.59,3.22-16.79,5.7-18.64,8.71-44.58,11.16-63.16,1.22-1.32-.81-2.85-1.44-4.43-1.3-5.13.24-6.88,5.96-7.9,10.14-2.54,11.94,6.33,22.07,12.91,31.02,7.22,9.04,17.92,15.39,29.38,17.27,14.34,2.46,29.71-1.31,40.8-10.83,5.52-4.67,9.89-10.55,13.42-16.79,2.22-3.78,4.18-7.69,5.24-12.05,2.05-8.17.36-22.19-9.47-24.38ZM133.76,248.96c-6.93,11.34-18.42,19.98-31.7,21.98-7.34,1.27-14.87.54-21.8-1.88-.59-10.77,7.33-17.33,16.78-21.57,11.95-5.92,25.78-5.44,38.15-.82-.48.77-.95,1.54-1.43,2.29ZM136.9,243.71c-12.4-7.86-29.19-7.25-42.06-.56-7.54,3.73-15.35,9.44-17.35,18.16-.52,2.12-.69,4.3-.56,6.44-6.52-2.88-12.35-7.31-16.74-13.09-3.19-4-6.45-8.85-9.35-13.15-3.46-5.23-5.56-11.45-3.35-17.54.63-1.88,1.54-4.1,3.79-4.07.99-.09,2,.53,2.8,1.01,5.03,2.81,10.46,5.03,16.08,6.37,16.86,4.18,35.03,1.64,50.42-6.27,4.46-2.13,9.19-5.99,13.99-5.52,4.76.84,6.29,7.23,6.74,11.51.63,5.84-1.54,11.5-4.41,16.71ZM135.49,211.27c-6.26-1-11.59,3.22-16.79,5.7-18.64,8.71-44.58,11.16-63.16,1.22-1.32-.81-2.85-1.44-4.43-1.3-5.13.24-6.88,5.96-7.9,10.14-2.54,11.94,6.33,22.07,12.91,31.02,7.22,9.04,17.92,15.39,29.38,17.27,14.34,2.46,29.71-1.31,40.8-10.83,5.52-4.67,9.89-10.55,13.42-16.79,2.22-3.78,4.18-7.69,5.24-12.05,2.05-8.17.36-22.19-9.47-24.38ZM133.76,248.96c-6.93,11.34-18.42,19.98-31.7,21.98-7.34,1.27-14.87.54-21.8-1.88-.59-10.77,7.33-17.33,16.78-21.57,11.95-5.92,25.78-5.44,38.15-.82-.48.77-.95,1.54-1.43,2.29ZM136.9,243.71c-12.4-7.86-29.19-7.25-42.06-.56-7.54,3.73-15.35,9.44-17.35,18.16-.52,2.12-.69,4.3-.56,6.44-6.52-2.88-12.35-7.31-16.74-13.09-3.19-4-6.45-8.85-9.35-13.15-3.46-5.23-5.56-11.45-3.35-17.54.63-1.88,1.54-4.1,3.79-4.07.99-.09,2,.53,2.8,1.01,5.03,2.81,10.46,5.03,16.08,6.37,16.86,4.18,35.03,1.64,50.42-6.27,4.46-2.13,9.19-5.99,13.99-5.52,4.76.84,6.29,7.23,6.74,11.51.63,5.84-1.54,11.5-4.41,16.71ZM211.57,208.54c-2.68-6.39-10.79-9.44-17.06-6.52-8.39,4.23-13.29,14.41-10.99,23.44.18.81,1.43.73,1.51-.1.67-5.42,2.47-10.17,5.96-14.31,2.4-2.86,5.09-5.21,8.69-5.56,3.33-.27,7.05,1.6,8.58,4.57,3.05,5.76-2.81,17.16-7.14,21.44-.32.33.15.86.52.58,2.28-1.73,4.3-3.86,5.94-6.28,1.61-2.52,2.91-5.02,3.92-7.83,1.02-2.97,1.38-6.4.07-9.43ZM211.57,208.54c-2.68-6.39-10.79-9.44-17.06-6.52-8.39,4.23-13.29,14.41-10.99,23.44.18.81,1.43.73,1.51-.1.67-5.42,2.47-10.17,5.96-14.31,2.4-2.86,5.09-5.21,8.69-5.56,3.33-.27,7.05,1.6,8.58,4.57,3.05,5.76-2.81,17.16-7.14,21.44-.32.33.15.86.52.58,2.28-1.73,4.3-3.86,5.94-6.28,1.61-2.52,2.91-5.02,3.92-7.83,1.02-2.97,1.38-6.4.07-9.43ZM135.49,211.27c-6.26-1-11.59,3.22-16.79,5.7-18.64,8.71-44.58,11.16-63.16,1.22-1.32-.81-2.85-1.44-4.43-1.3-5.13.24-6.88,5.96-7.9,10.14-2.54,11.94,6.33,22.07,12.91,31.02,7.22,9.04,17.92,15.39,29.38,17.27,14.34,2.46,29.71-1.31,40.8-10.83,5.52-4.67,9.89-10.55,13.42-16.79,2.22-3.78,4.18-7.69,5.24-12.05,2.05-8.17.36-22.19-9.47-24.38ZM133.76,248.96c-6.93,11.34-18.42,19.98-31.7,21.98-7.34,1.27-14.87.54-21.8-1.88-.59-10.77,7.33-17.33,16.78-21.57,11.95-5.92,25.78-5.44,38.15-.82-.48.77-.95,1.54-1.43,2.29ZM136.9,243.71c-12.4-7.86-29.19-7.25-42.06-.56-7.54,3.73-15.35,9.44-17.35,18.16-.52,2.12-.69,4.3-.56,6.44-6.52-2.88-12.35-7.31-16.74-13.09-3.19-4-6.45-8.85-9.35-13.15-3.46-5.23-5.56-11.45-3.35-17.54.63-1.88,1.54-4.1,3.79-4.07.99-.09,2,.53,2.8,1.01,5.03,2.81,10.46,5.03,16.08,6.37,16.86,4.18,35.03,1.64,50.42-6.27,4.46-2.13,9.19-5.99,13.99-5.52,4.76.84,6.29,7.23,6.74,11.51.63,5.84-1.54,11.5-4.41,16.71ZM95.69,195.06c-3.03,3.96-7.39,6.48-12.25,7.02-7.33.9-16.09-3.35-18.37-10.56-1.28-5.67,3.29-11.4,8.96-13.01,6.26-2.08,13.23-1.29,19,2.09,1.59.91,3.13-1.29,1.71-2.47-2.92-2.45-6.59-4.12-10.47-4.93-.15.55-.31,1.1-.49,1.67-.8-.16-10.76-1.94-17.47,5.09-3.65,3.84-4.49,8.35-4.72,10.21-.71.02-1.55,0-2.5-.03.31,6.86,5.76,12.9,13.16,15.68,9.4,3.78,21.35-.05,25.97-9.14.83-1.6-1.41-3.05-2.53-1.62ZM135.49,211.27c-6.26-1-11.59,3.22-16.79,5.7-18.64,8.71-44.58,11.16-63.16,1.22-1.32-.81-2.85-1.44-4.43-1.3-5.13.24-6.88,5.96-7.9,10.14-2.54,11.94,6.33,22.07,12.91,31.02,7.22,9.04,17.92,15.39,29.38,17.27,14.34,2.46,29.71-1.31,40.8-10.83,5.52-4.67,9.89-10.55,13.42-16.79,2.22-3.78,4.18-7.69,5.24-12.05,2.05-8.17.36-22.19-9.47-24.38ZM133.76,248.96c-6.93,11.34-18.42,19.98-31.7,21.98-7.34,1.27-14.87.54-21.8-1.88-.59-10.77,7.33-17.33,16.78-21.57,11.95-5.92,25.78-5.44,38.15-.82-.48.77-.95,1.54-1.43,2.29ZM136.9,243.71c-12.4-7.86-29.19-7.25-42.06-.56-7.54,3.73-15.35,9.44-17.35,18.16-.52,2.12-.69,4.3-.56,6.44-6.52-2.88-12.35-7.31-16.74-13.09-3.19-4-6.45-8.85-9.35-13.15-3.46-5.23-5.56-11.45-3.35-17.54.63-1.88,1.54-4.1,3.79-4.07.99-.09,2,.53,2.8,1.01,5.03,2.81,10.46,5.03,16.08,6.37,16.86,4.18,35.03,1.64,50.42-6.27,4.46-2.13,9.19-5.99,13.99-5.52,4.76.84,6.29,7.23,6.74,11.51.63,5.84-1.54,11.5-4.41,16.71ZM211.57,208.54c-2.68-6.39-10.79-9.44-17.06-6.52-8.39,4.23-13.29,14.41-10.99,23.44.18.81,1.43.73,1.51-.1.67-5.42,2.47-10.17,5.96-14.31,2.4-2.86,5.09-5.21,8.69-5.56,3.33-.27,7.05,1.6,8.58,4.57,3.05,5.76-2.81,17.16-7.14,21.44-.32.33.15.86.52.58,2.28-1.73,4.3-3.86,5.94-6.28,1.61-2.52,2.91-5.02,3.92-7.83,1.02-2.97,1.38-6.4.07-9.43ZM211.57,208.54c-2.68-6.39-10.79-9.44-17.06-6.52-8.39,4.23-13.29,14.41-10.99,23.44.18.81,1.43.73,1.51-.1.67-5.42,2.47-10.17,5.96-14.31,2.4-2.86,5.09-5.21,8.69-5.56,3.33-.27,7.05,1.6,8.58,4.57,3.05,5.76-2.81,17.16-7.14,21.44-.32.33.15.86.52.58,2.28-1.73,4.3-3.86,5.94-6.28,1.61-2.52,2.91-5.02,3.92-7.83,1.02-2.97,1.38-6.4.07-9.43ZM135.49,211.27c-6.26-1-11.59,3.22-16.79,5.7-18.64,8.71-44.58,11.16-63.16,1.22-1.32-.81-2.85-1.44-4.43-1.3-5.13.24-6.88,5.96-7.9,10.14-2.54,11.94,6.33,22.07,12.91,31.02,7.22,9.04,17.92,15.39,29.38,17.27,14.34,2.46,29.71-1.31,40.8-10.83,5.52-4.67,9.89-10.55,13.42-16.79,2.22-3.78,4.18-7.69,5.24-12.05,2.05-8.17.36-22.19-9.47-24.38ZM133.76,248.96c-6.93,11.34-18.42,19.98-31.7,21.98-7.34,1.27-14.87.54-21.8-1.88-.59-10.77,7.33-17.33,16.78-21.57,11.95-5.92,25.78-5.44,38.15-.82-.48.77-.95,1.54-1.43,2.29ZM136.9,243.71c-12.4-7.86-29.19-7.25-42.06-.56-7.54,3.73-15.35,9.44-17.35,18.16-.52,2.12-.69,4.3-.56,6.44-6.52-2.88-12.35-7.31-16.74-13.09-3.19-4-6.45-8.85-9.35-13.15-3.46-5.23-5.56-11.45-3.35-17.54.63-1.88,1.54-4.1,3.79-4.07.99-.09,2,.53,2.8,1.01,5.03,2.81,10.46,5.03,16.08,6.37,16.86,4.18,35.03,1.64,50.42-6.27,4.46-2.13,9.19-5.99,13.99-5.52,4.76.84,6.29,7.23,6.74,11.51.63,5.84-1.54,11.5-4.41,16.71ZM95.69,195.06c-3.03,3.96-7.39,6.48-12.25,7.02-7.33.9-16.09-3.35-18.37-10.56-1.28-5.67,3.29-11.4,8.96-13.01,6.26-2.08,13.23-1.29,19,2.09,1.59.91,3.13-1.29,1.71-2.47-2.92-2.45-6.59-4.12-10.47-4.93-8.05-1.67-17,.43-22.03,7.16-2.35,3.27-3.3,6.61-3.15,9.78.31,6.86,5.76,12.9,13.16,15.68,9.4,3.78,21.35-.05,25.97-9.14.83-1.6-1.41-3.05-2.53-1.62Z"/>
  <path class="cls-1" d="M211.5,217.97c-1.01,2.81-2.31,5.31-3.92,7.83-1.64,2.42-3.66,4.55-5.94,6.28-.37.28-.84-.25-.52-.58,4.33-4.28,10.19-15.68,7.14-21.44-1.53-2.97-5.25-4.84-8.58-4.57-3.6.35-6.29,2.7-8.69,5.56-3.49,4.14-5.29,8.89-5.96,14.31-.08.83-1.33.91-1.51.1-2.3-9.03,2.6-19.21,10.99-23.44,6.27-2.92,14.38.13,17.06,6.52,1.31,3.03.95,6.46-.07,9.43ZM148.02,305.87c.01.82-.31,1.65-.63,2.38-2.47,5.84-6.64,10.99-11.9,14.52-3.51,2.39-7.47,3.93-11.75,5.29-4.14,1.35-8.34,2.11-12.56,1.99-7.78-.27-16.82-2.82-20.33-10.35-.4-5.64-1.05-12.97-1.64-19.3,4.67.52,9.5.63,14.49.27,16.6-.75,31.55-7.89,43.39-18.82.28,8.01.65,16.02.93,24.02ZM168.17,115.15c-2.27-5.2-2.78-11.24-1.21-16.64-6.91,3.7-16.16,3.26-22.24-1.86-3.1-2.52-5.16-6.18-5.99-10.06-7.79,12.58-26.94,17.27-36.4,3.73-4.12,6.15-12.41,8.98-19.69,7.75-4.63-.66-9.33-3.42-13.11-7.23-.06.02-.11.04-.17.05-4.67.8-9.3.79-13.93-.66-.74-.28-1.5-.63-2.24-1.02-.04.32-.2.64-.5.91-10.41,8.98-13.75,19.55-14.89,32.86-.77,6.89-.84,13.74-.69,20.68,2.15-2.83,5.59-6.31,10.69-8.76,1.79-.86,7.4-3.33,14.81-2.81,2.1.15,5.79.44,9.96,2.55,1.17.59,6.04,3.18,9.57,8.81,3.83,6.1,3.83,12.15,3.83,17.36,0,3.03-.3,7.34-1.7,12.39,3.88.81,7.55,2.48,10.47,4.93,1.42,1.18-.12,3.38-1.71,2.47-5.77-3.38-12.74-4.17-19-2.09-5.67,1.61-10.24,7.34-8.96,13.01,2.28,7.21,11.04,11.46,18.37,10.56,4.86-.54,9.22-3.06,12.25-7.02,1.12-1.43,3.36.02,2.53,1.62-4.62,9.09-16.57,12.92-25.97,9.14-7.4-2.78-12.85-8.82-13.16-15.68-3.73-.19-9.13-1.09-14.61-4.31-2.19-1.29-6.13-3.66-9.2-8.37-3.27,6.49-6.53,13.05-9.55,19.59-4.31,9.18-5.61,22.73,3.33,29.15.48-4.33,1.3-8.59,3-12.66,3.09-6.62,10.29-10.76,17.45-10.97,1.85-.02,3.64.32,5.3.73,6.48,1.69,12.79,3.5,19.19,4.69,6.34,1.1,12.66,1.78,18.92-.05,6.37-1.63,12.78-3.36,19.1-5.2,3.18-.91,6.32-1.93,9.72-2.65,3.38-.72,6.8-.78,10.24-.8,6.94-.18,14.19,2.49,19.18,7.41,4.43,4.36,7.74,9.57,10,15.27,10.17-9.61,10.49-19.45,10.89-33.18.33-4.46.78-8.89,1.29-13.32,1.9-16.79,4.8-33.84,11.72-49.39-7.14.6-14.28-4.22-16.89-10.93ZM164.78,167.03c-.13,3.4-1.07,12.92-8.85,20.59-6.65,6.56-14.46,7.97-17.53,8.34-10.36,1.24-17.97-3.31-20.6-4.93-2.96-1.84-9.3-5.89-12.42-13.96-1.65-4.26-1.81-8.11-1.7-10.56.7-14.38,10.03-26.52,22.8-30.12,9.91-2.8,21.39-.33,29.28,7.32,9.29,8.99,9.12,20.83,9.02,23.32ZM33.02,175.39c-5.02,5.4-9.56,11.54-13.08,18.17-.05-1.04-.04-2.09.03-3.15.3-8.39,4.81-15.98,12.35-19.93l.7,4.91Z"/>
  <path class="cls-1" d="M205.97,239.29c-10.52,6.16-24.29,4.11-33.09-4.2.25-1.12.5-2.25.72-3.38.63-3,.99-6.6,1.25-9.68.45-5.16,1.29-10.18,2.44-15.28.72-2.96,1.04-5.65,2.65-8.03,4.74-6.87,14.12-10.42,22.27-9.84,2.07.2,4.52.74,6.77.53.27-.02.53-.06.8-.09,6.19,4.43,10.74,11.08,11.53,18.66,1.06,11.43-5.08,25.65-15.34,31.31Z"/>
  <path class="cls-4" d="M135.19,246.67c-.48.77-.95,1.54-1.43,2.29-6.93,11.34-18.42,19.98-31.7,21.98-7.34,1.27-14.87.54-21.8-1.88-.59-10.77,7.33-17.33,16.78-21.57,11.95-5.92,25.78-5.44,38.15-.82Z"/>
  <path class="cls-3" d="M136.9,243.71c-12.4-7.86-29.19-7.25-42.06-.56-7.54,3.73-15.35,9.44-17.35,18.16-.52,2.12-.69,4.3-.56,6.44-6.52-2.88-12.35-7.31-16.74-13.09-3.19-4-6.45-8.85-9.35-13.15-3.46-5.23-5.56-11.45-3.35-17.54.63-1.88,1.54-4.1,3.79-4.07.99-.09,2,.53,2.8,1.01,5.03,2.81,10.46,5.03,16.08,6.37,16.86,4.18,35.03,1.64,50.42-6.27,4.46-2.13,9.19-5.99,13.99-5.52,4.76.84,6.29,7.23,6.74,11.51.63,5.84-1.54,11.5-4.41,16.71Z"/>
  <path class="cls-5" d="M41.27,101.03c3.39-1.9,10.76-5.37,20.03-4.47,2.71.26,7.76.82,12.68,4.34,4.31,3.09,6,6.64,6.38,7.49.81,1.79,2.62,5.8.77,8.94-.09.15-1.55,2.55-3.66,2.55-2.07,0-3.39-2.29-4.51-3.57-5.65-6.51-19.81-3.34-21.7-2.89-8.39,1.99-13.66,7.02-15.83,9.36M110.79,123.2c2.99,1.73,9.31-2.75,17.31-4.38,7.14-1.46,12.85-.09,14.17.26,2.23.58,5.87,1.52,9.7,4.21,3.48,2.45,4.29,4.36,7.66,5.36.68.2,5.06,1.5,7.02-.64,1.73-1.89.58-5.37-.13-7.53-.39-1.19-1.97-5.61-7.02-10.09-5.3-4.7-10.86-6.29-13.53-7.02-1.98-.54-7.47-1.87-14.55-1.02-3.69.44-9.54,1.22-15.19,5.36,0,0-6.1,4.48-7.4,10.34-.14.63-.46,2.08.26,3.45,0,0,.54,1.03,1.71,1.7Z"/>
  <path class="cls-6" d="M217.56,357.6H38.36c2.1-5.65,4.73-11.05,7.88-16.09,9.55-15.53,24.14-26.96,39.96-35.7.31,6.83.66,14.64.66,14.64,0,.19.05.38.13.56,6.23,13.53,25.43,15.1,37.95,10.76,11.9-3.33,21.82-11.07,26.39-22.82.63-1.48.65-3.29.55-4.81-.13-3.27-.24-6.53-.35-9.8,15.03,5.06,29.83,12.41,41.9,22.48,12.04,10.62,20.99,24.97,24.13,40.78Z"/>
  <path class="cls-2" d="M218.79,147.27c14.33-4.6,23.08-20.89,15.62-34.36-4.06-8.11-13.9-10.37-22.37-10.36-.91.08-1.69-.61-1.71-1.51-.01-.52.25-.99.63-1.27,2.89-2.11,5.51-4.53,7.52-7.37,5.99-8.09,8.1-19.45,3.18-28.5-5.68-11.2-20.2-11.93-30.08-5.91-1.53.9-3.01,1.9-4.4,2.99-.68.58-1.7.49-2.24-.21-.31-.39-.4-.88-.29-1.33.66-2.87,1.2-5.72,1.29-8.59.26-8.46.25-15.9-8.79-19.58-4.93-2.13-9.93-.87-14.64,1.72-4.92,2.61-8.71,7.03-11.25,11.96-.66,1.58-2.97,1.07-2.95-.57.12-6.34-1.16-12.56-3.84-18.23-4.37-9.06-12.42-16.7-22.36-19.06-5.9-1.49-12.16-.86-18.01.68-10.4,2.24-16.97,10.95-17.49,21.41,0,.9-.75,1.61-1.64,1.56-.52-.04-.96-.33-1.21-.74-6.09-9.97-16.28-17.4-27.88-18.57-7.55-.67-15.11,1.42-20.53,6.9-9.27,8.42-9.62,20.72-1.14,29.87.64.62.63,1.64-.02,2.24-.42.38-.99.48-1.49.32-13.63-4.25-29.04,5.24-26.66,20.46.36,2.61,1.21,5.08,2.67,7.28,2.84,4.44,7.64,7.7,13.19,8.91,1.34.21,1.78,1.99.75,2.81-2.54,2.1-4.4,4.53-4.95,7.15-1.63,8.39,6.85,18.87,13.9,22.95.86.41,1.2,1.45.7,2.26-7.73,7.26-8.36,18.72.95,24.94.06.04.11.08.16.13l1-1.07c-.1-.14-.17-.31-.22-.5-1.88-7.7-2.1-15.79-1.13-23.66,1.27-14.19,5.73-26.19,17.78-34.66.01-.01.02-.02.04-.02-2.55-1.91-4.58-4.54-4.87-7.64-.03-.49.6-.78.95-.45,1.79,1.51,2.81,3.22,4.35,4.58,3.13,2.86,7.04,3.73,11.26,3.86,1.53.1,3.03.09,4.53-.01-3.99-5.11-6.34-11.41-5.31-17.08,1.13-5.64,6.42-11.01,12.47-8.62,6.25,2.73,11.55,7.7,14.79,13.62.63,1.16-1.06,2.2-1.81,1.12-2.05-2.93-4.52-5.52-7.37-7.54-2.85-1.84-6.34-4.15-8.76-3.82-2.76.31-4.39,3.59-4.87,6.14-.41,2.23.29,4.6,1.21,6.75,1.52,3.97,4.28,7.24,7.52,9.9,7.75,6.86,17.95,4.29,25.4-1.69-.69-1.48-1.22-3.02-1.54-4.64-.17-.82.37-1.63,1.2-1.78.72-.14,1.42.26,1.68.92.75,1.91,1.74,3.8,3,5.42,6.77,9.33,18.35,8.16,26.62,1.52,3.27-2.55,5.78-6.02,7.49-9.82.76-1.66,3.29-.75,2.82,1.01-.07.33-.17.65-.25.98.02.09.04.2.04.31.83,14.96,17,20.53,28.3,11.86.4-.65,1.26-.85,1.91-.44.78.5.7,1.33.49,2.12-1.34,6.24-.71,12.53,1.94,18.16,2.67,5.6,7.38,8.65,13.47,10.15.92-.24,1.84.68,1.57,1.61l-.11.42c-.57,2.13-1.21,4.23-1.76,6.35l-1.66,6.35c-4.09,17-6.72,34.43-8.41,51.84-.15,1.49-.27,3.02-.38,4.56,6.03-7.57,16.29-11.43,25.87-11.08,2.14.12,3.89.58,5.84.39,8.85-1.03,19.03-8.88,20.42-17.87,1.43-7.28-2.87-13.2-9.98-14.94-1.54-.32-1.61-2.54-.15-2.99ZM161.46,225.73c-.76.58-1.9.29-2.3-.58-.69-1.49-1.39-2.97-2.21-4.37-8.64-14.83-17.36-19.36-34.35-16.55-6.19,1.43-12.74,3.65-19,5.24-5.4,1.34-10.56,3.3-16.21,3.81-8.15.53-16.29-1.11-24.15-2.88-4.26-.87-9.51-2.73-13.73-2.87-3.98.12-8.18,2.01-10.95,4.74-1.95,1.86-3.14,4.21-4.1,7.24-.99,3.05-1.95,6.13-2.64,9.28-.12.98-1.15,1.66-2.09,1.32-7.33-2.44-11.36-9.95-12.03-17.38-2.56,19.43,5.71,39.61,19.37,53.4,14.77,14.52,32.68,26.27,53.81,27.81,29.34,2.7,57.5-13.11,70.14-39.76,4.31-9.23,7.24-19.31,8.34-29.46.16-2.53.41-5.06.72-7.6-2.35,3.37-5.28,6.32-8.62,8.61ZM144.96,235.65c-1.06,4.36-3.02,8.27-5.24,12.05-3.53,6.24-7.9,12.12-13.42,16.79-11.09,9.52-26.46,13.29-40.8,10.83-11.46-1.88-22.16-8.23-29.38-17.27-6.58-8.95-15.45-19.08-12.91-31.02,1.02-4.18,2.77-9.9,7.9-10.14,1.58-.14,3.11.49,4.43,1.3,18.58,9.94,44.52,7.49,63.16-1.22,5.2-2.48,10.53-6.7,16.79-5.7,9.83,2.19,11.52,16.21,9.47,24.38ZM171.98,238.83c-1.45,5.59-3.32,11.09-5.7,16.36,5.99,1.31,12.55.43,16.8-4.26,1.04-1.15,1.89-2.52,2.58-4.04-5.16-1.45-9.94-4.24-13.68-8.06Z"/>
  <path class="cls-8" d="M155.76,143.71c-7.89-7.65-19.37-10.12-29.28-7.32-12.77,3.6-22.1,15.74-22.8,30.12-.11,2.45.05,6.3,1.7,10.56,3.12,8.07,9.46,12.12,12.42,13.96,2.63,1.62,10.24,6.17,20.6,4.93,3.07-.37,10.88-1.78,17.53-8.34,7.78-7.67,8.72-17.19,8.85-20.59.1-2.49.27-14.33-9.02-23.32ZM82.14,143.45c-3.53-5.63-8.4-8.22-9.57-8.81-4.17-2.11-7.86-2.4-9.96-2.55-7.41-.52-13.02,1.95-14.81,2.81-5.1,2.45-8.54,5.93-10.69,8.76-1.01,1.32-1.73,2.49-2.23,3.36-.2.36-.36.66-.48.9-.17.34-.34.68-.5,1.01h0c-.12.27-.24.53-.34.78-2.71,6.23-2.48,11.73-2.35,14.04.06,1.06.14,2.38.37,3.87.13.92.32,1.9.61,2.93.36,1.39.89,2.87,1.64,4.39.32.65.68,1.3,1.08,1.96.12.19.24.38.37.56,3.07,4.71,7.01,7.08,9.2,8.37,5.48,3.22,10.88,4.12,14.61,4.31.95.04,1.79.05,2.5.03.23-1.86,1.07-6.37,4.72-10.21,6.71-7.03,16.67-5.25,17.47-5.09.18-.57.34-1.12.49-1.67,1.4-5.05,1.7-9.36,1.7-12.39,0-5.21,0-11.26-3.83-17.36Z"/>
  <path class="cls-7" d="M141.81,168.48c-.06,1.16-.26,4.22-2.55,7.06-2.29,2.83-5.23,3.67-6.13,3.91-4.86,1.31-8.8-.9-9.45-1.28-.73-.43-4.97-2.99-5.96-8.34-.11-.59-1.02-5.99,2.89-10.3,3.3-3.63,7.67-3.89,8.85-3.91.9-.02,5.99-.03,9.53,4.09,3.01,3.49,2.87,7.58,2.81,8.77ZM75.92,157.11c-3.4-3.94-8.28-3.93-9.14-3.92-1.13.02-5.32.27-8.48,3.75-3.75,4.13-2.88,9.3-2.77,9.87.95,5.13,5.01,7.59,5.71,8,.62.36,4.4,2.48,9.06,1.22.86-.23,3.68-1.04,5.87-3.75,2.2-2.73,2.39-5.66,2.45-6.77.06-1.14.19-5.06-2.69-8.4Z"/>
  <path class="cls-7" d="M135.49,211.27c-6.26-1-11.59,3.22-16.79,5.7-18.64,8.71-44.58,11.16-63.16,1.22-1.32-.81-2.85-1.44-4.43-1.3-5.13.24-6.88,5.96-7.9,10.14-2.54,11.94,6.33,22.07,12.91,31.02,7.22,9.04,17.92,15.39,29.38,17.27,14.34,2.46,29.71-1.31,40.8-10.83,5.52-4.67,9.89-10.55,13.42-16.79,2.22-3.78,4.18-7.69,5.24-12.05,2.05-8.17.36-22.19-9.47-24.38ZM133.76,248.96c-6.93,11.34-18.42,19.98-31.7,21.98-7.34,1.27-14.87.54-21.8-1.88-.59-10.77,7.33-17.33,16.78-21.57,11.95-5.92,25.78-5.44,38.15-.82-.48.77-.95,1.54-1.43,2.29ZM136.9,243.71c-12.4-7.86-29.19-7.25-42.06-.56-7.54,3.73-15.35,9.44-17.35,18.16-.52,2.12-.69,4.3-.56,6.44-6.52-2.88-12.35-7.31-16.74-13.09-3.19-4-6.45-8.85-9.35-13.15-3.46-5.23-5.56-11.45-3.35-17.54.63-1.88,1.54-4.1,3.79-4.07.99-.09,2,.53,2.8,1.01,5.03,2.81,10.46,5.03,16.08,6.37,16.86,4.18,35.03,1.64,50.42-6.27,4.46-2.13,9.19-5.99,13.99-5.52,4.76.84,6.29,7.23,6.74,11.51.63,5.84-1.54,11.5-4.41,16.71ZM211.57,208.54c-2.68-6.39-10.79-9.44-17.06-6.52-8.39,4.23-13.29,14.41-10.99,23.44.18.81,1.43.73,1.51-.1.67-5.42,2.47-10.17,5.96-14.31,2.4-2.86,5.09-5.21,8.69-5.56,3.33-.27,7.05,1.6,8.58,4.57,3.05,5.76-2.81,17.16-7.14,21.44-.32.33.15.86.52.58,2.28-1.73,4.3-3.86,5.94-6.28,1.61-2.52,2.91-5.02,3.92-7.83,1.02-2.97,1.38-6.4.07-9.43ZM211.57,208.54c-2.68-6.39-10.79-9.44-17.06-6.52-8.39,4.23-13.29,14.41-10.99,23.44.18.81,1.43.73,1.51-.1.67-5.42,2.47-10.17,5.96-14.31,2.4-2.86,5.09-5.21,8.69-5.56,3.33-.27,7.05,1.6,8.58,4.57,3.05,5.76-2.81,17.16-7.14,21.44-.32.33.15.86.52.58,2.28-1.73,4.3-3.86,5.94-6.28,1.61-2.52,2.91-5.02,3.92-7.83,1.02-2.97,1.38-6.4.07-9.43ZM135.49,211.27c-6.26-1-11.59,3.22-16.79,5.7-18.64,8.71-44.58,11.16-63.16,1.22-1.32-.81-2.85-1.44-4.43-1.3-5.13.24-6.88,5.96-7.9,10.14-2.54,11.94,6.33,22.07,12.91,31.02,7.22,9.04,17.92,15.39,29.38,17.27,14.34,2.46,29.71-1.31,40.8-10.83,5.52-4.67,9.89-10.55,13.42-16.79,2.22-3.78,4.18-7.69,5.24-12.05,2.05-8.17.36-22.19-9.47-24.38ZM133.76,248.96c-6.93,11.34-18.42,19.98-31.7,21.98-7.34,1.27-14.87.54-21.8-1.88-.59-10.77,7.33-17.33,16.78-21.57,11.95-5.92,25.78-5.44,38.15-.82-.48.77-.95,1.54-1.43,2.29ZM136.9,243.71c-12.4-7.86-29.19-7.25-42.06-.56-7.54,3.73-15.35,9.44-17.35,18.16-.52,2.12-.69,4.3-.56,6.44-6.52-2.88-12.35-7.31-16.74-13.09-3.19-4-6.45-8.85-9.35-13.15-3.46-5.23-5.56-11.45-3.35-17.54.63-1.88,1.54-4.1,3.79-4.07.99-.09,2,.53,2.8,1.01,5.03,2.81,10.46,5.03,16.08,6.37,16.86,4.18,35.03,1.64,50.42-6.27,4.46-2.13,9.19-5.99,13.99-5.52,4.76.84,6.29,7.23,6.74,11.51.63,5.84-1.54,11.5-4.41,16.71ZM135.49,211.27c-6.26-1-11.59,3.22-16.79,5.7-18.64,8.71-44.58,11.16-63.16,1.22-1.32-.81-2.85-1.44-4.43-1.3-5.13.24-6.88,5.96-7.9,10.14-2.54,11.94,6.33,22.07,12.91,31.02,7.22,9.04,17.92,15.39,29.38,17.27,14.34,2.46,29.71-1.31,40.8-10.83,5.52-4.67,9.89-10.55,13.42-16.79,2.22-3.78,4.18-7.69,5.24-12.05,2.05-8.17.36-22.19-9.47-24.38ZM133.76,248.96c-6.93,11.34-18.42,19.98-31.7,21.98-7.34,1.27-14.87.54-21.8-1.88-.59-10.77,7.33-17.33,16.78-21.57,11.95-5.92,25.78-5.44,38.15-.82-.48.77-.95,1.54-1.43,2.29ZM136.9,243.71c-12.4-7.86-29.19-7.25-42.06-.56-7.54,3.73-15.35,9.44-17.35,18.16-.52,2.12-.69,4.3-.56,6.44-6.52-2.88-12.35-7.31-16.74-13.09-3.19-4-6.45-8.85-9.35-13.15-3.46-5.23-5.56-11.45-3.35-17.54.63-1.88,1.54-4.1,3.79-4.07.99-.09,2,.53,2.8,1.01,5.03,2.81,10.46,5.03,16.08,6.37,16.86,4.18,35.03,1.64,50.42-6.27,4.46-2.13,9.19-5.99,13.99-5.52,4.76.84,6.29,7.23,6.74,11.51.63,5.84-1.54,11.5-4.41,16.71ZM211.57,208.54c-2.68-6.39-10.79-9.44-17.06-6.52-8.39,4.23-13.29,14.41-10.99,23.44.18.81,1.43.73,1.51-.1.67-5.42,2.47-10.17,5.96-14.31,2.4-2.86,5.09-5.21,8.69-5.56,3.33-.27,7.05,1.6,8.58,4.57,3.05,5.76-2.81,17.16-7.14,21.44-.32.33.15.86.52.58,2.28-1.73,4.3-3.86,5.94-6.28,1.61-2.52,2.91-5.02,3.92-7.83,1.02-2.97,1.38-6.4.07-9.43ZM211.57,208.54c-2.68-6.39-10.79-9.44-17.06-6.52-8.39,4.23-13.29,14.41-10.99,23.44.18.81,1.43.73,1.51-.1.67-5.42,2.47-10.17,5.96-14.31,2.4-2.86,5.09-5.21,8.69-5.56,3.33-.27,7.05,1.6,8.58,4.57,3.05,5.76-2.81,17.16-7.14,21.44-.32.33.15.86.52.58,2.28-1.73,4.3-3.86,5.94-6.28,1.61-2.52,2.91-5.02,3.92-7.83,1.02-2.97,1.38-6.4.07-9.43ZM135.49,211.27c-6.26-1-11.59,3.22-16.79,5.7-18.64,8.71-44.58,11.16-63.16,1.22-1.32-.81-2.85-1.44-4.43-1.3-5.13.24-6.88,5.96-7.9,10.14-2.54,11.94,6.33,22.07,12.91,31.02,7.22,9.04,17.92,15.39,29.38,17.27,14.34,2.46,29.71-1.31,40.8-10.83,5.52-4.67,9.89-10.55,13.42-16.79,2.22-3.78,4.18-7.69,5.24-12.05,2.05-8.17.36-22.19-9.47-24.38ZM133.76,248.96c-6.93,11.34-18.42,19.98-31.7,21.98-7.34,1.27-14.87.54-21.8-1.88-.59-10.77,7.33-17.33,16.78-21.57,11.95-5.92,25.78-5.44,38.15-.82-.48.77-.95,1.54-1.43,2.29ZM136.9,243.71c-12.4-7.86-29.19-7.25-42.06-.56-7.54,3.73-15.35,9.44-17.35,18.16-.52,2.12-.69,4.3-.56,6.44-6.52-2.88-12.35-7.31-16.74-13.09-3.19-4-6.45-8.85-9.35-13.15-3.46-5.23-5.56-11.45-3.35-17.54.63-1.88,1.54-4.1,3.79-4.07.99-.09,2,.53,2.8,1.01,5.03,2.81,10.46,5.03,16.08,6.37,16.86,4.18,35.03,1.64,50.42-6.27,4.46-2.13,9.19-5.99,13.99-5.52,4.76.84,6.29,7.23,6.74,11.51.63,5.84-1.54,11.5-4.41,16.71ZM135.49,211.27c-6.26-1-11.59,3.22-16.79,5.7-18.64,8.71-44.58,11.16-63.16,1.22-1.32-.81-2.85-1.44-4.43-1.3-5.13.24-6.88,5.96-7.9,10.14-2.54,11.94,6.33,22.07,12.91,31.02,7.22,9.04,17.92,15.39,29.38,17.27,14.34,2.46,29.71-1.31,40.8-10.83,5.52-4.67,9.89-10.55,13.42-16.79,2.22-3.78,4.18-7.69,5.24-12.05,2.05-8.17.36-22.19-9.47-24.38ZM133.76,248.96c-6.93,11.34-18.42,19.98-31.7,21.98-7.34,1.27-14.87.54-21.8-1.88-.59-10.77,7.33-17.33,16.78-21.57,11.95-5.92,25.78-5.44,38.15-.82-.48.77-.95,1.54-1.43,2.29ZM136.9,243.71c-12.4-7.86-29.19-7.25-42.06-.56-7.54,3.73-15.35,9.44-17.35,18.16-.52,2.12-.69,4.3-.56,6.44-6.52-2.88-12.35-7.31-16.74-13.09-3.19-4-6.45-8.85-9.35-13.15-3.46-5.23-5.56-11.45-3.35-17.54.63-1.88,1.54-4.1,3.79-4.07.99-.09,2,.53,2.8,1.01,5.03,2.81,10.46,5.03,16.08,6.37,16.86,4.18,35.03,1.64,50.42-6.27,4.46-2.13,9.19-5.99,13.99-5.52,4.76.84,6.29,7.23,6.74,11.51.63,5.84-1.54,11.5-4.41,16.71ZM211.57,208.54c-2.68-6.39-10.79-9.44-17.06-6.52-8.39,4.23-13.29,14.41-10.99,23.44.18.81,1.43.73,1.51-.1.67-5.42,2.47-10.17,5.96-14.31,2.4-2.86,5.09-5.21,8.69-5.56,3.33-.27,7.05,1.6,8.58,4.57,3.05,5.76-2.81,17.16-7.14,21.44-.32.33.15.86.52.58,2.28-1.73,4.3-3.86,5.94-6.28,1.61-2.52,2.91-5.02,3.92-7.83,1.02-2.97,1.38-6.4.07-9.43ZM211.57,208.54c-2.68-6.39-10.79-9.44-17.06-6.52-8.39,4.23-13.29,14.41-10.99,23.44.18.81,1.43.73,1.51-.1.67-5.42,2.47-10.17,5.96-14.31,2.4-2.86,5.09-5.21,8.69-5.56,3.33-.27,7.05,1.6,8.58,4.57,3.05,5.76-2.81,17.16-7.14,21.44-.32.33.15.86.52.58,2.28-1.73,4.3-3.86,5.94-6.28,1.61-2.52,2.91-5.02,3.92-7.83,1.02-2.97,1.38-6.4.07-9.43ZM135.49,211.27c-6.26-1-11.59,3.22-16.79,5.7-18.64,8.71-44.58,11.16-63.16,1.22-1.32-.81-2.85-1.44-4.43-1.3-5.13.24-6.88,5.96-7.9,10.14-2.54,11.94,6.33,22.07,12.91,31.02,7.22,9.04,17.92,15.39,29.38,17.27,14.34,2.46,29.71-1.31,40.8-10.83,5.52-4.67,9.89-10.55,13.42-16.79,2.22-3.78,4.18-7.69,5.24-12.05,2.05-8.17.36-22.19-9.47-24.38ZM133.76,248.96c-6.93,11.34-18.42,19.98-31.7,21.98-7.34,1.27-14.87.54-21.8-1.88-.59-10.77,7.33-17.33,16.78-21.57,11.95-5.92,25.78-5.44,38.15-.82-.48.77-.95,1.54-1.43,2.29ZM136.9,243.71c-12.4-7.86-29.19-7.25-42.06-.56-7.54,3.73-15.35,9.44-17.35,18.16-.52,2.12-.69,4.3-.56,6.44-6.52-2.88-12.35-7.31-16.74-13.09-3.19-4-6.45-8.85-9.35-13.15-3.46-5.23-5.56-11.45-3.35-17.54.63-1.88,1.54-4.1,3.79-4.07.99-.09,2,.53,2.8,1.01,5.03,2.81,10.46,5.03,16.08,6.37,16.86,4.18,35.03,1.64,50.42-6.27,4.46-2.13,9.19-5.99,13.99-5.52,4.76.84,6.29,7.23,6.74,11.51.63,5.84-1.54,11.5-4.41,16.71ZM244.37,119.86c-2.07-14.2-12.46-22.06-25.61-21.49,1.15-.93,2.23-1.95,3.26-3.03,5.5-6.04,8.82-14.07,8.52-22.37-.4-8.46-4.46-16.97-11.98-21.36-9.12-5.24-20.65-3.54-28.68,2.71.71-2.49,1.18-5.07,1.36-7.65.53-5.03.14-10.73-3.16-14.93-6.71-8.75-18.4-10.2-27.42-4.32-3.69,2.14-6.73,5.2-8.95,8.77-1.07-15.95-12.24-31.31-28.11-35.13-6.98-1.84-14.27-1.14-21.09.94-10.39,2.65-17.61,11.09-18.87,21.21-.06-.09-.11-.19-.17-.29-5.93-9.26-16.02-16.02-27.09-17.1-11-1.07-21.55,3.54-28.01,12.53-6.43,8.63-6.11,19.59-.17,27.74-7.88-1.56-16.57.89-22.18,6.79-7,7.21-7.97,19.33-2.54,27.7,3.07,4.75,8.02,8.13,13.48,9.35-.3.23-.59.46-.87.72-9.85,9.93,1.06,26.07,11.83,31.4-4.02,3.22-6.35,8.52-6.12,13.76.13,6.24,4.38,12.04,10.03,14.34.7.3,1.35.04,1.73-.44.18-.22.3-.49.34-.77h0c.07-.46-.07-.93-.49-1.29-.05-.05-.1-.09-.16-.13-9.31-6.22-8.68-17.68-.95-24.94.5-.81.16-1.85-.7-2.26-7.05-4.08-15.53-14.56-13.9-22.95.55-2.62,2.41-5.05,4.95-7.15,1.03-.82.59-2.6-.75-2.81-5.55-1.21-10.35-4.47-13.19-8.91-1.46-2.2-2.31-4.67-2.67-7.28-2.38-15.22,13.03-24.71,26.66-20.46.5.16,1.07.06,1.49-.32.65-.6.66-1.62.02-2.24-8.48-9.15-8.13-21.45,1.14-29.87,5.42-5.48,12.98-7.57,20.53-6.9,11.6,1.17,21.79,8.6,27.88,18.57.25.41.69.7,1.21.74.89.05,1.64-.66,1.64-1.56.52-10.46,7.09-19.17,17.49-21.41,5.85-1.54,12.11-2.17,18.01-.68,9.94,2.36,17.99,10,22.36,19.06,2.68,5.67,3.96,11.89,3.84,18.23-.02,1.64,2.29,2.15,2.95.57,2.54-4.93,6.33-9.35,11.25-11.96,4.71-2.59,9.71-3.85,14.64-1.72,9.04,3.68,9.05,11.12,8.79,19.58-.09,2.87-.63,5.72-1.29,8.59-.11.45-.02.94.29,1.33.54.7,1.56.79,2.24.21,1.39-1.09,2.87-2.09,4.4-2.99,9.88-6.02,24.4-5.29,30.08,5.91,4.92,9.05,2.81,20.41-3.18,28.5-2.01,2.84-4.63,5.26-7.52,7.37-.38.28-.64.75-.63,1.27.02.9.8,1.59,1.71,1.51,8.47-.01,18.31,2.25,22.37,10.36,7.46,13.47-1.29,29.76-15.62,34.36-1.46.45-1.39,2.67.15,2.99,7.11,1.74,11.41,7.66,9.98,14.94-1.39,8.99-11.57,16.84-20.42,17.87-1.95.19-3.7-.27-5.84-.39-9.58-.35-19.84,3.51-25.87,11.08.11-1.54.23-3.07.38-4.56,1.69-17.41,4.32-34.84,8.41-51.84l1.66-6.35c.55-2.12,1.19-4.22,1.76-6.35l.11-.42c.27-.93-.65-1.85-1.57-1.61-6.09-1.5-10.8-4.55-13.47-10.15-2.65-5.63-3.28-11.92-1.94-18.16.21-.79.29-1.62-.49-2.12-.65-.41-1.51-.21-1.91.44-11.3,8.67-27.47,3.1-28.3-11.86,0-.11-.02-.22-.04-.31.08-.33.18-.65.25-.98.47-1.76-2.06-2.67-2.82-1.01-1.71,3.8-4.22,7.27-7.49,9.82-8.27,6.64-19.85,7.81-26.62-1.52-1.26-1.62-2.25-3.51-3-5.42-.26-.66-.96-1.06-1.68-.92-.83.15-1.37.96-1.2,1.78.32,1.62.85,3.16,1.54,4.64-7.45,5.98-17.65,8.55-25.4,1.69-3.24-2.66-6-5.93-7.52-9.9-.92-2.15-1.62-4.52-1.21-6.75.48-2.55,2.11-5.83,4.87-6.14,2.42-.33,5.91,1.98,8.76,3.82,2.85,2.02,5.32,4.61,7.37,7.54.75,1.08,2.44.04,1.81-1.12-3.24-5.92-8.54-10.89-14.79-13.62-6.05-2.39-11.34,2.98-12.47,8.62-1.03,5.67,1.32,11.97,5.31,17.08-1.5.1-3,.11-4.53.01-4.22-.13-8.13-1-11.26-3.86-1.54-1.36-2.56-3.07-4.35-4.58-.35-.33-.98-.04-.95.45.29,3.1,2.32,5.73,4.87,7.64-.02,0-.03.01-.04.02-12.05,8.47-16.51,20.47-17.78,34.66-.97,7.87-.75,15.96,1.13,23.66.05.19.12.36.22.5.12.19.28.34.47.44.9.52,2.31-.02,2.28-1.34-.02-.68-.04-1.35-.05-2.02-.15-6.94-.08-13.79.69-20.68,1.14-13.31,4.48-23.88,14.89-32.86.3-.27.46-.59.5-.91.74.39,1.5.74,2.24,1.02,4.63,1.45,9.26,1.46,13.93.66.06-.01.11-.03.17-.05,3.78,3.81,8.48,6.57,13.11,7.23,7.28,1.23,15.57-1.6,19.69-7.75,9.46,13.54,28.61,8.85,36.4-3.73.83,3.88,2.89,7.54,5.99,10.06,6.08,5.12,15.33,5.56,22.24,1.86-1.57,5.4-1.06,11.44,1.21,16.64,2.61,6.71,9.75,11.53,16.89,10.93-6.92,15.55-9.82,32.6-11.72,49.39-.51,4.43-.96,8.86-1.29,13.32-.4,13.73-.72,23.57-10.89,33.18-2.26-5.7-5.57-10.91-10-15.27-4.99-4.92-12.24-7.59-19.18-7.41-3.44.02-6.86.08-10.24.8-3.4.72-6.54,1.74-9.72,2.65-6.32,1.84-12.73,3.57-19.1,5.2-6.26,1.83-12.58,1.15-18.92.05-6.4-1.19-12.71-3-19.19-4.69-1.66-.41-3.45-.75-5.3-.73-7.16.21-14.36,4.35-17.45,10.97-1.7,4.07-2.52,8.33-3,12.66-8.94-6.42-7.64-19.97-3.33-29.15,3.02-6.54,6.28-13.1,9.55-19.59.04-.08.08-.16.12-.24.72-1.21-.42-2.51-1.57-2.28-.28.05-.56.19-.81.45-5.02,5.4-9.56,11.54-13.08,18.17-.05-1.04-.04-2.09.03-3.15.3-8.34,4.76-15.89,12.22-19.86.04-.02.09-.05.13-.07,1.42-.77.78-2.89-.74-2.86-.08,0-.16.01-.25.03-11.6,2.08-17.49,14.38-16.04,25.35.28,2.32.87,4.59,1.75,6.71-2.94,7.16-4.6,14.77-4.37,22.6.56,17.7,8.11,35.04,20.33,47.8,15.07,15.42,32.51,26.68,52.94,29.86.03.72.07,1.5.11,2.33-24.45,8.71-45.09,29.7-50.88,55.3h3.19c2.1-5.65,4.73-11.05,7.88-16.09,9.55-15.53,24.14-26.96,39.96-35.7.31,6.83.66,14.64.66,14.64,0,.19.05.38.13.56,6.23,13.53,25.43,15.1,37.95,10.76,11.9-3.33,21.82-11.07,26.39-22.82.63-1.48.65-3.29.55-4.81-.13-3.27-.24-6.53-.35-9.8,15.03,5.06,29.83,12.41,41.9,22.48,12.04,10.62,20.99,24.97,24.13,40.78h5.25c-1.2-8.75-4.31-17.3-8.85-24.84-8.92-15.33-23.39-26.35-39.4-33.43-7.42-3.56-15.18-6.35-23.14-8.29-.13-4.4-.23-8.8-.29-13.2,2.91-3.11,5.6-6.46,8.04-10,2.03-2.94,3.84-6.02,5.45-9.21,3.13,1.72,6.86,2.49,10.44,2.11,7.14-.63,13.4-6.04,14.29-13.05,1.75.27,3.53.38,5.31.32,12.44-.17,23.81-8.3,28.69-19.63,3-6.61,4.8-13.91,3.61-21.19-1.13-7.67-5.88-14.62-12.27-18.91.45-.15.9-.29,1.34-.46,6.71-2.56,12.25-7.23,16.04-13.2,5.18-8.47,3.82-21.29-5.91-25.72,1.15-.39,2.27-.85,3.37-1.39,10.02-4.99,16.32-16.5,14.84-27.65ZM147.39,308.25c-2.47,5.84-6.64,10.99-11.9,14.52-3.51,2.39-7.47,3.93-11.75,5.29-4.14,1.35-8.34,2.11-12.56,1.99-7.78-.27-16.82-2.82-20.33-10.35-.4-5.64-1.05-12.97-1.64-19.3,4.67.52,9.5.63,14.49.27,16.6-.75,31.55-7.89,43.39-18.82.28,8.01.65,16.02.93,24.02.01.82-.31,1.65-.63,2.38ZM161.02,254.18c-12.64,26.65-40.8,42.46-70.14,39.76-21.13-1.54-39.04-13.29-53.81-27.81-13.66-13.79-21.93-33.97-19.37-53.4.67,7.43,4.7,14.94,12.03,17.38.94.34,1.97-.34,2.09-1.32.69-3.15,1.65-6.23,2.64-9.28.96-3.03,2.15-5.38,4.1-7.24,2.77-2.73,6.97-4.62,10.95-4.74,4.22.14,9.47,2,13.73,2.87,7.86,1.77,16,3.41,24.15,2.88,5.65-.51,10.81-2.47,16.21-3.81,6.26-1.59,12.81-3.81,19-5.24,16.99-2.81,25.71,1.72,34.35,16.55.82,1.4,1.52,2.88,2.21,4.37.4.87,1.54,1.16,2.3.58,3.34-2.29,6.27-5.24,8.62-8.61-.31,2.54-.56,5.07-.72,7.6-1.1,10.15-4.03,20.23-8.34,29.46ZM183.08,250.93c-4.25,4.69-10.81,5.57-16.8,4.26,2.38-5.27,4.25-10.77,5.7-16.36,3.74,3.82,8.52,6.61,13.68,8.06-.69,1.52-1.54,2.89-2.58,4.04ZM221.31,207.98c1.06,11.43-5.08,25.65-15.34,31.31-10.52,6.16-24.29,4.11-33.09-4.2.25-1.12.5-2.25.72-3.38.63-3,.99-6.6,1.25-9.68.45-5.16,1.29-10.18,2.44-15.28.72-2.96,1.04-5.65,2.65-8.03,4.74-6.87,14.12-10.42,22.27-9.84,2.07.2,4.52.74,6.77.53.27-.02.53-.06.8-.09,6.19,4.43,10.74,11.08,11.53,18.66ZM194.51,202.02c-8.39,4.23-13.29,14.41-10.99,23.44.18.81,1.43.73,1.51-.1.67-5.42,2.47-10.17,5.96-14.31,2.4-2.86,5.09-5.21,8.69-5.56,3.33-.27,7.05,1.6,8.58,4.57,3.05,5.76-2.81,17.16-7.14,21.44-.32.33.15.86.52.58,2.28-1.73,4.3-3.86,5.94-6.28,1.61-2.52,2.91-5.02,3.92-7.83,1.02-2.97,1.38-6.4.07-9.43-2.68-6.39-10.79-9.44-17.06-6.52ZM135.49,211.27c-6.26-1-11.59,3.22-16.79,5.7-18.64,8.71-44.58,11.16-63.16,1.22-1.32-.81-2.85-1.44-4.43-1.3-5.13.24-6.88,5.96-7.9,10.14-2.54,11.94,6.33,22.07,12.91,31.02,7.22,9.04,17.92,15.39,29.38,17.27,14.34,2.46,29.71-1.31,40.8-10.83,5.52-4.67,9.89-10.55,13.42-16.79,2.22-3.78,4.18-7.69,5.24-12.05,2.05-8.17.36-22.19-9.47-24.38ZM133.76,248.96c-6.93,11.34-18.42,19.98-31.7,21.98-7.34,1.27-14.87.54-21.8-1.88-.59-10.77,7.33-17.33,16.78-21.57,11.95-5.92,25.78-5.44,38.15-.82-.48.77-.95,1.54-1.43,2.29ZM136.9,243.71c-12.4-7.86-29.19-7.25-42.06-.56-7.54,3.73-15.35,9.44-17.35,18.16-.52,2.12-.69,4.3-.56,6.44-6.52-2.88-12.35-7.31-16.74-13.09-3.19-4-6.45-8.85-9.35-13.15-3.46-5.23-5.56-11.45-3.35-17.54.63-1.88,1.54-4.1,3.79-4.07.99-.09,2,.53,2.8,1.01,5.03,2.81,10.46,5.03,16.08,6.37,16.86,4.18,35.03,1.64,50.42-6.27,4.46-2.13,9.19-5.99,13.99-5.52,4.76.84,6.29,7.23,6.74,11.51.63,5.84-1.54,11.5-4.41,16.71ZM135.49,211.27c-6.26-1-11.59,3.22-16.79,5.7-18.64,8.71-44.58,11.16-63.16,1.22-1.32-.81-2.85-1.44-4.43-1.3-5.13.24-6.88,5.96-7.9,10.14-2.54,11.94,6.33,22.07,12.91,31.02,7.22,9.04,17.92,15.39,29.38,17.27,14.34,2.46,29.71-1.31,40.8-10.83,5.52-4.67,9.89-10.55,13.42-16.79,2.22-3.78,4.18-7.69,5.24-12.05,2.05-8.17.36-22.19-9.47-24.38ZM133.76,248.96c-6.93,11.34-18.42,19.98-31.7,21.98-7.34,1.27-14.87.54-21.8-1.88-.59-10.77,7.33-17.33,16.78-21.57,11.95-5.92,25.78-5.44,38.15-.82-.48.77-.95,1.54-1.43,2.29ZM136.9,243.71c-12.4-7.86-29.19-7.25-42.06-.56-7.54,3.73-15.35,9.44-17.35,18.16-.52,2.12-.69,4.3-.56,6.44-6.52-2.88-12.35-7.31-16.74-13.09-3.19-4-6.45-8.85-9.35-13.15-3.46-5.23-5.56-11.45-3.35-17.54.63-1.88,1.54-4.1,3.79-4.07.99-.09,2,.53,2.8,1.01,5.03,2.81,10.46,5.03,16.08,6.37,16.86,4.18,35.03,1.64,50.42-6.27,4.46-2.13,9.19-5.99,13.99-5.52,4.76.84,6.29,7.23,6.74,11.51.63,5.84-1.54,11.5-4.41,16.71ZM211.57,208.54c-2.68-6.39-10.79-9.44-17.06-6.52-8.39,4.23-13.29,14.41-10.99,23.44.18.81,1.43.73,1.51-.1.67-5.42,2.47-10.17,5.96-14.31,2.4-2.86,5.09-5.21,8.69-5.56,3.33-.27,7.05,1.6,8.58,4.57,3.05,5.76-2.81,17.16-7.14,21.44-.32.33.15.86.52.58,2.28-1.73,4.3-3.86,5.94-6.28,1.61-2.52,2.91-5.02,3.92-7.83,1.02-2.97,1.38-6.4.07-9.43ZM211.57,208.54c-2.68-6.39-10.79-9.44-17.06-6.52-8.39,4.23-13.29,14.41-10.99,23.44.18.81,1.43.73,1.51-.1.67-5.42,2.47-10.17,5.96-14.31,2.4-2.86,5.09-5.21,8.69-5.56,3.33-.27,7.05,1.6,8.58,4.57,3.05,5.76-2.81,17.16-7.14,21.44-.32.33.15.86.52.58,2.28-1.73,4.3-3.86,5.94-6.28,1.61-2.52,2.91-5.02,3.92-7.83,1.02-2.97,1.38-6.4.07-9.43ZM135.49,211.27c-6.26-1-11.59,3.22-16.79,5.7-18.64,8.71-44.58,11.16-63.16,1.22-1.32-.81-2.85-1.44-4.43-1.3-5.13.24-6.88,5.96-7.9,10.14-2.54,11.94,6.33,22.07,12.91,31.02,7.22,9.04,17.92,15.39,29.38,17.27,14.34,2.46,29.71-1.31,40.8-10.83,5.52-4.67,9.89-10.55,13.42-16.79,2.22-3.78,4.18-7.69,5.24-12.05,2.05-8.17.36-22.19-9.47-24.38ZM133.76,248.96c-6.93,11.34-18.42,19.98-31.7,21.98-7.34,1.27-14.87.54-21.8-1.88-.59-10.77,7.33-17.33,16.78-21.57,11.95-5.92,25.78-5.44,38.15-.82-.48.77-.95,1.54-1.43,2.29ZM136.9,243.71c-12.4-7.86-29.19-7.25-42.06-.56-7.54,3.73-15.35,9.44-17.35,18.16-.52,2.12-.69,4.3-.56,6.44-6.52-2.88-12.35-7.31-16.74-13.09-3.19-4-6.45-8.85-9.35-13.15-3.46-5.23-5.56-11.45-3.35-17.54.63-1.88,1.54-4.1,3.79-4.07.99-.09,2,.53,2.8,1.01,5.03,2.81,10.46,5.03,16.08,6.37,16.86,4.18,35.03,1.64,50.42-6.27,4.46-2.13,9.19-5.99,13.99-5.52,4.76.84,6.29,7.23,6.74,11.51.63,5.84-1.54,11.5-4.41,16.71ZM95.69,195.06c-3.03,3.96-7.39,6.48-12.25,7.02-7.33.9-16.09-3.35-18.37-10.56-1.28-5.67,3.29-11.4,8.96-13.01,6.26-2.08,13.23-1.29,19,2.09,1.59.91,3.13-1.29,1.71-2.47-2.92-2.45-6.59-4.12-10.47-4.93-.15.55-.31,1.1-.49,1.67-.8-.16-10.76-1.94-17.47,5.09-3.65,3.84-4.49,8.35-4.72,10.21-.71.02-1.55,0-2.5-.03.31,6.86,5.76,12.9,13.16,15.68,9.4,3.78,21.35-.05,25.97-9.14.83-1.6-1.41-3.05-2.53-1.62ZM135.49,211.27c-6.26-1-11.59,3.22-16.79,5.7-18.64,8.71-44.58,11.16-63.16,1.22-1.32-.81-2.85-1.44-4.43-1.3-5.13.24-6.88,5.96-7.9,10.14-2.54,11.94,6.33,22.07,12.91,31.02,7.22,9.04,17.92,15.39,29.38,17.27,14.34,2.46,29.71-1.31,40.8-10.83,5.52-4.67,9.89-10.55,13.42-16.79,2.22-3.78,4.18-7.69,5.24-12.05,2.05-8.17.36-22.19-9.47-24.38ZM133.76,248.96c-6.93,11.34-18.42,19.98-31.7,21.98-7.34,1.27-14.87.54-21.8-1.88-.59-10.77,7.33-17.33,16.78-21.57,11.95-5.92,25.78-5.44,38.15-.82-.48.77-.95,1.54-1.43,2.29ZM136.9,243.71c-12.4-7.86-29.19-7.25-42.06-.56-7.54,3.73-15.35,9.44-17.35,18.16-.52,2.12-.69,4.3-.56,6.44-6.52-2.88-12.35-7.31-16.74-13.09-3.19-4-6.45-8.85-9.35-13.15-3.46-5.23-5.56-11.45-3.35-17.54.63-1.88,1.54-4.1,3.79-4.07.99-.09,2,.53,2.8,1.01,5.03,2.81,10.46,5.03,16.08,6.37,16.86,4.18,35.03,1.64,50.42-6.27,4.46-2.13,9.19-5.99,13.99-5.52,4.76.84,6.29,7.23,6.74,11.51.63,5.84-1.54,11.5-4.41,16.71ZM211.57,208.54c-2.68-6.39-10.79-9.44-17.06-6.52-8.39,4.23-13.29,14.41-10.99,23.44.18.81,1.43.73,1.51-.1.67-5.42,2.47-10.17,5.96-14.31,2.4-2.86,5.09-5.21,8.69-5.56,3.33-.27,7.05,1.6,8.58,4.57,3.05,5.76-2.81,17.16-7.14,21.44-.32.33.15.86.52.58,2.28-1.73,4.3-3.86,5.94-6.28,1.61-2.52,2.91-5.02,3.92-7.83,1.02-2.97,1.38-6.4.07-9.43ZM211.57,208.54c-2.68-6.39-10.79-9.44-17.06-6.52-8.39,4.23-13.29,14.41-10.99,23.44.18.81,1.43.73,1.51-.1.67-5.42,2.47-10.17,5.96-14.31,2.4-2.86,5.09-5.21,8.69-5.56,3.33-.27,7.05,1.6,8.58,4.57,3.05,5.76-2.81,17.16-7.14,21.44-.32.33.15.86.52.58,2.28-1.73,4.3-3.86,5.94-6.28,1.61-2.52,2.91-5.02,3.92-7.83,1.02-2.97,1.38-6.4.07-9.43ZM135.49,211.27c-6.26-1-11.59,3.22-16.79,5.7-18.64,8.71-44.58,11.16-63.16,1.22-1.32-.81-2.85-1.44-4.43-1.3-5.13.24-6.88,5.96-7.9,10.14-2.54,11.94,6.33,22.07,12.91,31.02,7.22,9.04,17.92,15.39,29.38,17.27,14.34,2.46,29.71-1.31,40.8-10.83,5.52-4.67,9.89-10.55,13.42-16.79,2.22-3.78,4.18-7.69,5.24-12.05,2.05-8.17.36-22.19-9.47-24.38ZM133.76,248.96c-6.93,11.34-18.42,19.98-31.7,21.98-7.34,1.27-14.87.54-21.8-1.88-.59-10.77,7.33-17.33,16.78-21.57,11.95-5.92,25.78-5.44,38.15-.82-.48.77-.95,1.54-1.43,2.29ZM136.9,243.71c-12.4-7.86-29.19-7.25-42.06-.56-7.54,3.73-15.35,9.44-17.35,18.16-.52,2.12-.69,4.3-.56,6.44-6.52-2.88-12.35-7.31-16.74-13.09-3.19-4-6.45-8.85-9.35-13.15-3.46-5.23-5.56-11.45-3.35-17.54.63-1.88,1.54-4.1,3.79-4.07.99-.09,2,.53,2.8,1.01,5.03,2.81,10.46,5.03,16.08,6.37,16.86,4.18,35.03,1.64,50.42-6.27,4.46-2.13,9.19-5.99,13.99-5.52,4.76.84,6.29,7.23,6.74,11.51.63,5.84-1.54,11.5-4.41,16.71ZM95.69,195.06c-3.03,3.96-7.39,6.48-12.25,7.02-7.33.9-16.09-3.35-18.37-10.56-1.28-5.67,3.29-11.4,8.96-13.01,6.26-2.08,13.23-1.29,19,2.09,1.59.91,3.13-1.29,1.71-2.47-2.92-2.45-6.59-4.12-10.47-4.93-8.05-1.67-17,.43-22.03,7.16-2.35,3.27-3.3,6.61-3.15,9.78.31,6.86,5.76,12.9,13.16,15.68,9.4,3.78,21.35-.05,25.97-9.14.83-1.6-1.41-3.05-2.53-1.62Z"/>
</svg>