<svg width="25" height="29" viewBox="0 0 25 29" fill="none" xmlns="http://www.w3.org/2000/svg">
<path d="M23.9472 14.5965C23.6577 14.3673 23.315 14.2113 22.9527 14.138C22.9766 14.0947 22.9989 14.0506 23.02 14.0059L23.2469 13.779C24.1206 12.9053 24.2123 11.5299 23.4602 10.5797C23.1051 10.1312 22.6122 9.8331 22.0648 9.72185C22.1039 9.64987 22.1385 9.5763 22.17 9.50159C22.765 8.6397 22.7553 7.48134 22.0963 6.64875C21.7412 6.19995 21.2481 5.90094 20.7004 5.78988C21.1526 4.95841 21.0948 3.92215 20.4908 3.15917C20.0341 2.58216 19.3501 2.25112 18.6139 2.25112C18.0245 2.25112 17.4684 2.46177 17.032 2.84745C16.966 2.4726 16.8094 2.11057 16.5599 1.79526C16.1031 1.21825 15.419 0.887301 14.6829 0.887207C14.0432 0.887207 13.4428 1.13544 12.9922 1.58603L7.26069 7.31752L7.23884 6.55257C7.22876 5.2497 6.16564 4.1928 4.86042 4.1928C3.57884 4.1928 2.5308 5.21164 2.48369 6.48182L1.33947 14.8008L0.39901 15.8939C-0.164625 16.5493 -0.126848 17.5408 0.485208 18.1513L1.88294 19.5467C1.45204 20.1949 1.5275 21.079 2.09076 21.6409L8.65381 28.1936C8.96742 28.5064 9.38372 28.6785 9.8263 28.6785C10.1896 28.6785 10.5487 28.5565 10.837 28.3352L12.2072 27.2831C13.5252 26.9717 14.9783 26.2644 16.5288 25.1794C17.8826 24.2319 19.3514 22.9694 20.894 21.4267L24.1564 18.1642C24.6376 17.6831 24.8908 17.016 24.8512 16.3341C24.8116 15.6532 24.4822 15.02 23.9472 14.5965ZM17.7225 3.74919C17.9677 3.50406 18.2907 3.3815 18.6138 3.3815C18.9826 3.3815 19.3516 3.54118 19.6044 3.86063C20.0053 4.36718 19.9351 5.10227 19.4783 5.55898L18.8964 6.14079C18.8067 6.20061 18.7193 6.26458 18.6376 6.33702C18.5715 5.96208 18.4149 5.60005 18.1653 5.28484C17.8585 4.89727 17.449 4.62134 16.9901 4.48154L17.7225 3.74919ZM13.7915 2.38537C14.0366 2.14024 14.3598 2.01768 14.6829 2.01768C15.0518 2.01777 15.4206 2.17745 15.6735 2.4969C16.0744 3.00345 16.0041 3.73845 15.5473 4.19516L8.86634 10.8071L8.84439 10.0422C8.83864 9.30508 8.49583 8.64686 7.963 8.21417L13.7915 2.38537ZM1.28351 17.3508C1.08737 17.1551 1.07541 16.8412 1.2561 16.6311L2.41304 15.2861C2.4136 15.2855 2.41408 15.2845 2.41417 15.2837L3.61247 6.57122C3.61247 5.88484 4.17403 5.32327 4.86042 5.32327C5.5468 5.32327 6.10846 5.88484 6.10846 6.57122L6.14096 7.70499C5.01162 7.86005 4.1323 8.81031 4.08915 9.9713L2.94502 18.2904L2.61219 18.6774L1.28351 17.3508ZM23.357 17.3648L20.0947 20.6272C17.3083 23.4136 14.3958 25.6501 11.8372 26.2077C11.7595 26.2248 11.6864 26.2574 11.6233 26.306L10.1485 27.4385C10.053 27.5119 9.93944 27.548 9.82639 27.548C9.69045 27.548 9.55508 27.4957 9.45258 27.3934L2.88916 20.8404C2.69293 20.6447 2.68096 20.3309 2.86174 20.1207L4.01859 18.7758C4.01925 18.775 4.01963 18.7742 4.01982 18.7733L5.21802 10.0609C5.21802 9.37451 5.77968 8.81285 6.46606 8.81285C7.15245 8.81285 7.71401 9.37451 7.71401 10.0609L7.77298 12.1168C7.78278 12.4584 8.0638 12.6809 8.35621 12.6809C8.49884 12.6809 8.64429 12.6278 8.76215 12.5101L15.3972 5.87504C15.6424 5.62982 15.9653 5.50735 16.2885 5.50735C16.6574 5.50735 17.0263 5.66703 17.2791 5.98648C17.6801 6.49303 17.6097 7.22812 17.1529 7.68483L12.5822 12.2555C12.3449 12.4929 12.3449 12.8776 12.5822 13.1148C12.7023 13.2349 12.8597 13.295 13.0171 13.295C13.1746 13.295 13.3321 13.2349 13.4521 13.1148L19.3281 7.23886C19.5732 6.99364 19.8963 6.87117 20.2195 6.87117C20.5883 6.87127 20.9572 7.03095 21.2101 7.3504C21.611 7.85685 21.5406 8.59194 21.0838 9.04865L15.2354 14.8971C14.9949 15.1377 14.9949 15.5275 15.2354 15.7681C15.3539 15.8866 15.5092 15.9458 15.6646 15.9458C15.8199 15.9458 15.9752 15.8866 16.0937 15.7681L20.692 11.1699C20.9372 10.9247 21.2603 10.8022 21.5834 10.8022C21.9522 10.8022 22.3211 10.9619 22.574 11.2814C22.9749 11.7879 22.9045 12.523 22.4477 12.9797L17.893 17.5345C17.6469 17.7805 17.6469 18.1796 17.893 18.4255L17.9003 18.433C18.014 18.5467 18.1631 18.6035 18.312 18.6035C18.461 18.6035 18.6101 18.5467 18.7237 18.433L21.5474 15.6093C21.8019 15.3548 22.1425 15.2203 22.482 15.2203C22.7521 15.2203 23.0214 15.3054 23.2458 15.483C23.8449 15.9572 23.882 16.8399 23.357 17.3648Z" fill="#939AB7"/>
</svg>
