<svg width="100%" height="100%" viewBox="0 0 21 21" fill="none" xmlns="http://www.w3.org/2000/svg">
<path fill-rule="evenodd" clip-rule="evenodd" d="M19.2505 9.31749C19.2505 12.4506 17.5894 15.2964 14.9402 16.8589C14.7321 16.9816 14.4639 16.9124 14.3412 16.7043C14.2184 16.4962 14.2876 16.2279 14.4957 16.1052C16.8808 14.6985 18.3755 12.1377 18.3755 9.31749C18.3755 4.96799 14.85 1.4425 10.5005 1.4425C6.15099 1.4425 2.62549 4.96799 2.62549 9.31749C2.62549 12.879 5.00942 15.9692 8.39729 16.9091C8.52176 16.9455 8.73469 17.0016 8.99037 17.0577C9.07507 17.0762 9.15902 17.0935 9.24171 17.1092C9.4791 17.1543 9.63493 17.3834 9.58978 17.6207C9.54468 17.8581 9.31565 18.0139 9.07826 17.9688C8.9873 17.9515 8.8953 17.9326 8.80285 17.9123C8.5253 17.8514 8.29387 17.7905 8.15754 17.7506C4.39902 16.7079 1.75049 13.2747 1.75049 9.31749C1.75049 4.48478 5.66773 0.567505 10.5005 0.567505C15.3332 0.567505 19.2505 4.48478 19.2505 9.31749ZM10.1061 13.9281C10.086 13.9692 10.057 14.0518 10.0514 14.0809C10.0057 14.3181 9.77625 14.4734 9.53899 14.4277C9.30173 14.3819 9.14646 14.1525 9.19223 13.9153C9.21336 13.8055 9.26765 13.6512 9.31976 13.5443C9.63752 12.8943 10.4205 12.6233 11.0712 12.9396C11.7226 13.256 11.9934 14.0402 11.6771 14.6913C11.5087 15.0382 11.201 15.2872 10.8355 15.3856C10.6022 15.4485 10.3621 15.3103 10.2992 15.077C10.2364 14.8437 10.3746 14.6036 10.6079 14.5408C10.7319 14.5073 10.8337 14.4249 10.8899 14.3091C10.9953 14.0922 10.9053 13.8317 10.6889 13.7266C10.4724 13.6214 10.212 13.7116 10.1061 13.9281ZM8.31272 7.12701C8.31272 5.91934 9.29228 4.93951 10.5002 4.93951C11.7082 4.93951 12.6877 5.91934 12.6877 7.12701C12.6877 8.33259 11.7128 9.31018 10.5083 9.31451C10.5056 9.31447 10.5029 9.31443 10.5002 9.31443C10.2586 9.31443 10.0627 9.51034 10.0627 9.75193V11.5063C10.0627 11.7479 10.2586 11.9438 10.5002 11.9438C10.7419 11.9438 10.9377 11.7479 10.9377 11.5063V10.1585C12.4219 9.94626 13.5627 8.66999 13.5627 7.12701C13.5627 5.43612 12.1915 4.06451 10.5002 4.06451C8.80902 4.06451 7.43772 5.43612 7.43772 7.12701C7.43772 7.36864 7.63359 7.56451 7.87522 7.56451C8.11685 7.56451 8.31272 7.36864 8.31272 7.12701ZM10.9377 10.1585V9.75193C10.9377 9.51301 10.7462 9.31884 10.5083 9.31451C10.5056 9.31447 10.5029 9.31443 10.5002 9.31443C10.2586 9.31443 10.0627 9.51034 10.0627 9.75193C10.0627 9.99356 10.2586 10.1895 10.5002 10.1895C10.6488 10.1895 10.7948 10.179 10.9377 10.1585Z" fill="#8087A2"/>
</svg>
