<svg width="26" height="25" viewBox="0 0 26 25" fill="none" xmlns="http://www.w3.org/2000/svg">
<path d="M25.2229 6.21065C25.1695 6.01902 25.0417 5.8519 24.8711 5.75215C24.8256 5.72502 24.7757 5.7084 24.7259 5.69177C24.5465 5.53252 24.3654 5.37415 24.1921 5.20965C23.9953 5.02152 23.808 4.82552 23.6111 4.63915C23.4011 4.43877 23.1972 4.23227 22.9907 4.02752C22.7843 3.82277 22.5646 3.6294 22.3441 3.43602C21.8874 3.03615 21.4578 2.60477 21.008 2.19615C20.5232 1.7569 20.056 1.29752 19.5756 0.854772C19.4802 0.767272 19.3656 0.716522 19.2475 0.684147C19.2405 0.677147 19.2388 0.667522 19.2318 0.659647C19.0944 0.522272 18.8957 0.447021 18.6997 0.447021C18.5134 0.447021 18.3279 0.514397 18.1984 0.659647C17.676 1.2424 17.1396 1.80415 16.5604 2.32827C16.031 2.80777 15.4911 3.27852 14.9539 3.74752C13.8846 4.67852 12.8696 5.6769 11.8835 6.6919C10.942 7.66052 9.96463 8.59152 8.99075 9.52602C8.50075 9.99677 8.02912 10.4833 7.51812 10.9313C7.27662 11.143 7.02988 11.3539 6.78925 11.5656C6.55825 11.7669 6.343 11.99 6.12863 12.207C5.818 12.5246 5.503 12.8396 5.17312 13.1345C5.02262 13.2701 4.97363 13.4696 4.99463 13.663C4.94475 13.824 4.94037 13.9999 5.00425 14.1521C5.02087 14.3534 5.03925 14.5538 5.04537 14.7541C5.05062 14.9501 5.06025 15.1514 5.04537 15.3483C4.97625 15.6746 4.87475 15.9975 4.75488 16.3099C4.61575 16.6074 4.44337 16.8883 4.27975 17.1726C4.12837 17.4369 3.95775 17.6915 3.77138 17.9348C3.781 17.9225 3.79063 17.9103 3.80025 17.898C3.70925 18.024 3.64975 18.1491 3.64975 18.3189C3.64975 18.4396 3.69263 18.5525 3.75213 18.6558C3.68738 18.9078 3.72763 19.1895 3.93063 19.3636C3.9595 19.3881 3.98837 19.4144 4.01725 19.4389C3.78713 19.7154 3.55612 19.9901 3.3295 20.2693C3.01887 20.6481 2.724 21.0401 2.40725 21.4138C2.22438 21.6273 2.0415 21.8364 1.87087 22.0586C1.76937 22.1899 1.681 22.329 1.58825 22.4655C1.40887 22.7228 1.247 22.9931 1.06762 23.2513C1.00987 23.3335 0.987125 23.4306 0.97925 23.5295C0.83925 23.6669 0.75 23.8541 0.75 24.0528C0.75 24.4561 1.0825 24.779 1.48237 24.7834C2.39412 24.7991 3.3085 24.828 4.222 24.8201C4.97625 24.8131 5.73663 24.7991 6.48738 24.8831C6.51625 24.8875 6.54338 24.8901 6.57137 24.8928C6.57487 24.8936 6.57925 24.8936 6.58275 24.8945C6.58013 24.8945 6.57663 24.8936 6.574 24.8936C6.63263 24.8989 6.68775 24.8963 6.74288 24.891C6.99575 24.9453 7.26963 24.8901 7.46388 24.6959C7.87075 24.289 8.27675 23.8821 8.6775 23.4691C8.73175 23.5435 8.78512 23.6196 8.8665 23.6669C9.08963 23.7981 9.34863 23.7675 9.55425 23.645C9.67938 23.6153 9.79838 23.5645 9.892 23.4674C10.0696 23.2828 10.256 23.1086 10.4389 22.9328C10.5841 22.7936 10.7259 22.651 10.8807 22.5224C11.2701 22.2345 11.6805 21.9808 12.1189 21.7751C12.3315 21.6946 12.545 21.629 12.7681 21.5853C12.7979 21.5835 12.8268 21.5818 12.8565 21.5818C13.1549 21.6474 13.4401 21.748 13.7219 21.8635C13.889 21.9326 14.1235 21.8793 14.2731 21.7909C14.3694 21.7349 14.4437 21.6518 14.5041 21.559C14.5138 21.5503 14.5277 21.5468 14.5374 21.5371C14.5531 21.5214 14.5592 21.4995 14.5732 21.4829C14.6012 21.4619 14.6389 21.4505 14.6599 21.4243C14.7229 21.3481 14.7806 21.2694 14.8392 21.1924C15.1919 20.7356 15.5078 20.2526 15.8551 19.7915C16.0774 19.5089 16.3075 19.2341 16.521 18.9454C16.738 18.6523 16.9541 18.3591 17.1746 18.0678C17.6226 17.4798 18.0452 16.8716 18.4845 16.2749C18.9395 15.6545 19.3927 15.0298 19.8434 14.4041C20.2712 13.8109 20.6746 13.2028 21.0745 12.592C21.6949 11.6453 22.3607 10.73 23.0257 9.81652C23.3757 9.33527 23.7065 8.83915 24.046 8.34915C24.4048 7.82852 24.7784 7.3184 25.1441 6.80302C25.2588 6.64115 25.2728 6.3944 25.2229 6.21065ZM4.26575 23.4753C3.73463 23.4481 3.20525 23.414 2.67588 23.3816C2.7835 23.2268 2.89025 23.0719 3.00312 22.9214C3.1685 22.7175 3.34875 22.5276 3.51675 22.3273C3.71888 22.0858 3.90612 21.832 4.103 21.5861C4.42675 21.1784 4.77238 20.7899 5.12063 20.4014C5.1425 20.4206 5.16437 20.439 5.18537 20.4583C5.58875 20.8188 6.00787 21.1618 6.42175 21.5118C6.76562 21.8005 7.1025 22.0963 7.44025 22.3929C7.07713 22.7744 6.71138 23.1559 6.37625 23.5601C6.06913 23.5391 5.76288 23.5181 5.45575 23.5103C5.0585 23.5015 4.66038 23.4963 4.26575 23.4753ZM10.9551 20.8266C10.7688 20.9264 10.5929 21.0489 10.4152 21.1661C10.2516 21.2746 10.088 21.3831 9.9305 21.5039C9.66712 21.706 9.42388 21.9335 9.17625 22.1566C8.92863 21.9466 8.67925 21.7375 8.43862 21.5196C8.07463 21.1906 7.70275 20.8695 7.3335 20.5458C6.56087 19.8676 5.86175 19.1143 5.10138 18.4221C5.24837 18.2183 5.39713 18.0153 5.53188 17.8044C5.76288 17.4404 5.98688 17.0615 6.13562 16.6564C6.203 16.4718 6.26338 16.2828 6.31675 16.0929C6.3815 15.8671 6.4305 15.6405 6.44975 15.4095C6.58362 15.5163 6.71838 15.6204 6.8505 15.7298C7.13138 15.9625 7.40438 16.2058 7.68 16.442C7.95388 16.6783 8.23475 16.9023 8.51125 17.135C9.066 17.6093 9.60763 18.1001 10.165 18.5709C10.7285 19.0504 11.2754 19.55 11.8187 20.0531C11.9211 20.1476 12.02 20.243 12.1198 20.3393C11.712 20.4504 11.3226 20.6263 10.9551 20.8266ZM22.5454 8.04115C22.1438 8.69477 21.6765 9.30815 21.2399 9.93727C20.8138 10.5515 20.3937 11.1666 19.9781 11.787C19.7847 12.0784 19.5992 12.3733 19.4059 12.6629C19.1959 12.977 18.9762 13.2833 18.7557 13.5904C18.1817 14.3936 17.5972 15.1899 17.0355 16.0019C16.7599 16.4 16.4842 16.7929 16.1937 17.1814C15.9085 17.5611 15.6346 17.9514 15.3476 18.332C15.2085 18.507 15.0659 18.6803 14.9302 18.857C14.7806 19.0521 14.6371 19.2534 14.4936 19.452C14.3501 19.6498 14.2092 19.8484 14.0666 20.0453C13.9074 19.9088 13.749 19.7714 13.5915 19.6349C13.3299 19.4074 13.0639 19.1869 12.8022 18.9594C12.244 18.4746 11.6971 17.9785 11.1249 17.5078C10.0057 16.589 8.90238 15.6475 7.78237 14.727C7.3545 14.3753 6.93012 14.0183 6.5075 13.6604C6.73675 13.4346 6.96775 13.2089 7.19263 12.9796C7.64237 12.5246 8.12362 12.109 8.59962 11.6829C9.108 11.2296 9.59275 10.7431 10.0828 10.2671C10.5518 9.8104 11.0173 9.35015 11.4775 8.8864C11.9841 8.37452 12.503 7.87052 13.014 7.3604C13.4935 6.87915 13.9931 6.42065 14.4901 5.9569C15.016 5.46427 15.5471 4.97952 16.0931 4.51052C16.6531 4.03277 17.221 3.56202 17.7898 3.09302C18.1555 2.79202 18.4924 2.46127 18.8205 2.12265C19.2221 2.47527 19.6229 2.8279 20.0333 3.1709C20.5005 3.56027 20.938 3.9829 21.3746 4.40727C21.5829 4.61115 21.8043 4.8019 22.0177 5.00227C22.2277 5.2009 22.4404 5.4004 22.6521 5.59727C22.8525 5.7819 23.0467 5.97352 23.2489 6.15377C23.3512 6.2474 23.4554 6.33927 23.5612 6.43027C23.2112 6.9614 22.877 7.5004 22.5454 8.04115ZM18.6201 11.8194C18.2666 12.3365 17.8913 12.8344 17.5255 13.3454C17.3461 13.5956 17.1685 13.8485 16.9839 14.097C16.8167 14.3245 16.6409 14.5468 16.4773 14.7778C16.1448 15.245 15.8446 15.735 15.5183 16.2066C15.1945 16.6774 14.8681 17.1499 14.5216 17.6049C14.4236 17.7344 14.3282 17.8341 14.1629 17.8805C14.008 17.9216 13.8391 17.9015 13.7009 17.8201C13.5661 17.7405 13.4664 17.6101 13.4253 17.4596C13.3859 17.3214 13.3929 17.1184 13.4856 16.9976C13.8444 16.5286 14.1909 16.0456 14.5181 15.5548C14.8305 15.0893 15.1166 14.6098 15.4491 14.1583C16.1649 13.1844 16.8194 12.165 17.487 11.1553C17.62 10.9549 17.837 10.8324 18.0627 10.8324C18.1704 10.8324 18.2806 10.8604 18.3856 10.9208C18.6779 11.0914 18.824 11.5228 18.6201 11.8194Z" fill="#A5ADCB"/>
</svg>
