<svg width="100%" height="100%" viewBox="0 0 20 23" fill="none" xmlns="http://www.w3.org/2000/svg">
<path d="M5.92857 22H3.21429C1.71523 22 0.5 20.7763 0.5 19.2667V9.59052C0.5 8.79253 0.846248 8.03446 1.44786 7.51518L8.23354 1.65803C9.25004 0.780657 10.75 0.780657 11.7665 1.65803L18.5522 7.51518C19.1538 8.03446 19.5 8.79253 19.5 9.59052V19.2667C19.5 20.7763 18.2848 22 16.7857 22H14.0714M5.92857 22V13.8C5.92857 13.0452 6.53619 12.4333 7.28571 12.4333H12.7143C13.4638 12.4333 14.0714 13.0452 14.0714 13.8V22M5.92857 22H14.0714" stroke="#8087A2" stroke-linecap="round" stroke-linejoin="round"/>
</svg>
