<svg width="100%" height="100%" viewBox="0 0 20 20" fill="none" xmlns="http://www.w3.org/2000/svg">
<path d="M19.7625 10.5967L16.675 4.43415L17.7125 4.24665C18.0113 4.19165 18.235 3.9329 18.235 3.62165C18.235 3.2704 17.9513 2.98665 17.6 2.98665C17.56 2.98665 17.5213 2.9904 17.4838 2.9979L16.5125 3.1729C15.2713 2.22915 13.7 1.6604 11.9963 1.6604C11.7338 1.6604 11.4738 1.67415 11.2175 1.7004C11.1725 1.0754 10.6463 0.5979 10.0088 0.5979C10.005 0.5979 10.0025 0.5979 9.99878 0.5979C9.30878 0.5979 8.74878 1.1579 8.74878 1.8479V2.0979C6.60628 2.5179 4.81003 3.75665 3.66628 5.46915L2.72378 5.6604C2.40253 5.6904 2.15253 5.95915 2.15253 6.2854C2.15253 6.63165 2.43378 6.9129 2.78003 6.9129C2.80003 6.9129 2.82003 6.91165 2.83878 6.9104H2.94878L3.38628 6.8479L0.236279 13.0979H-0.0012207C-0.0012207 14.4729 1.67378 15.5979 3.74878 15.5979C5.82378 15.5979 7.49878 14.4729 7.49878 13.0979H7.26128L4.06128 6.6979H4.18628C4.40128 6.65915 4.57503 6.5179 4.66003 6.32665C4.68628 6.2104 5.53628 4.3479 8.74878 3.3729V16.8479H7.49878V18.0979H4.99878V19.3479H14.9988V18.0979H12.4988V16.8479H11.2488V2.9479C11.5 2.90915 11.7913 2.88665 12.0863 2.88665C13.5263 2.88665 14.8425 3.4104 15.8563 4.27915L15.8488 4.2729L12.7363 10.5979H12.4988C12.4988 11.9729 14.1738 13.0979 16.2488 13.0979C18.3238 13.0979 19.9988 11.9729 19.9988 10.5979H19.7613L19.7625 10.5967ZM6.25003 13.0967H1.25003L3.75003 8.17165L6.25003 13.0967ZM13.75 10.5967L16.25 5.67165L18.75 10.5967H13.75Z" fill="#91D7E3"/>
</svg>
