<svg width="25" height="24" viewBox="0 0 25 24" fill="none" xmlns="http://www.w3.org/2000/svg">
<g clip-path="url(#clip0_1720_1211)">
<path fill-rule="evenodd" clip-rule="evenodd" d="M15.4276 7.51651V8.45345C16.3315 7.89189 17.3751 7.56458 18.9607 7.56458C24.1213 7.56458 24.782 11.4219 24.782 14.7823V23.9475L18.815 24V15.2342C18.815 13.7628 18.288 13.4835 17.3135 13.4835C16.3871 13.4835 15.812 13.7763 15.812 15.2342V24L9.76697 23.9475V7.5165L15.4276 7.51651ZM6.83364 7.50661V23.9931H0.827637V7.50663H6.83364V7.50661ZM5.33214 9.00811H2.32914V22.4916H5.33214V9.00813V9.00811ZM13.9261 9.01801H11.2685V22.4595L14.3105 22.4865V15.2342C14.3105 12.4039 16.1919 11.982 17.3135 11.982C18.6829 11.982 20.3165 12.5466 20.3165 15.2342V22.4865L23.2805 22.4595V14.7823C23.2805 10.6156 22.1108 9.06606 18.9607 9.06606C17.0673 9.06606 16.2475 9.62763 15.4441 10.3033L15.2354 10.4805H13.9261V9.01801ZM3.83064 0C5.4868 0 6.83364 1.34685 6.83364 3.003C6.83364 4.65916 5.4868 6.006 3.83064 6.006C2.17449 6.006 0.827637 4.65916 0.827637 3.003C0.827637 1.34685 2.17449 0 3.83064 0ZM3.83064 1.5015C3.00331 1.5015 2.32914 2.17568 2.32914 3.003C2.32914 3.83033 3.00331 4.5045 3.83064 4.5045C4.65796 4.5045 5.33214 3.83033 5.33214 3.003C5.33214 2.17568 4.65796 1.5015 3.83064 1.5015Z" fill="#B8C0E0"/>
</g>
<defs>
<clipPath id="clip0_1720_1211">
<rect width="24" height="24" fill="white" transform="translate(0.827637)"/>
</clipPath>
</defs>
</svg>
