<svg width="29" height="28" viewBox="0 0 29 28" fill="none" xmlns="http://www.w3.org/2000/svg">
<g clip-path="url(#clip0_1711_1202)">
<path d="M15.2541 18.4324L16.9231 16.7623C19.6884 13.9953 19.6884 9.50904 16.9231 6.74201C14.1579 3.97499 9.67435 3.97499 6.90906 6.74201L3.57104 10.0821C0.805746 12.8492 0.805746 17.3353 3.57104 20.1024C4.85343 21.3855 6.50533 22.0736 8.184 22.1667" stroke="#B8C0E0" stroke-width="2" stroke-linecap="round"/>
<path d="M25.0901 17.9179C27.8554 15.1508 27.8554 10.6646 25.0901 7.89761C23.8077 6.61442 22.1558 5.92631 20.4771 5.83325M21.7521 21.258C18.9868 24.025 14.5033 24.025 11.738 21.258C8.97274 18.491 8.97274 14.0047 11.738 11.2377L13.4071 9.56766" stroke="#B8C0E0" stroke-width="2" stroke-linecap="round"/>
</g>
<defs>
<clipPath id="clip0_1711_1202">
<rect width="28" height="28" fill="white" transform="translate(0.330566)"/>
</clipPath>
</defs>
</svg>
