<svg width="28" height="29" viewBox="0 0 28 29" fill="none" xmlns="http://www.w3.org/2000/svg">
<path d="M25.2699 12.8588L24.1266 17.7355C23.1466 21.9471 21.2099 23.6505 17.5699 23.3005C16.9866 23.2538 16.3566 23.1488 15.6799 22.9855L13.7199 22.5188C8.85488 21.3638 7.34988 18.9605 8.49322 14.0838L9.63655 9.19547C9.86988 8.2038 10.1499 7.34047 10.4999 6.6288C11.8649 3.80547 14.1866 3.04714 18.0833 3.9688L20.0316 4.4238C24.9199 5.56714 26.4133 7.98213 25.2699 12.8588Z" stroke="#A5ADCB" stroke-width="2" stroke-linecap="round" stroke-linejoin="round"/>
<path d="M17.5699 23.3003C16.8466 23.7903 15.9366 24.1987 14.8283 24.5603L12.9849 25.167C8.35325 26.6603 5.91491 25.412 4.40991 20.7804L2.91658 16.172C1.42324 11.5403 2.65991 9.09033 7.29158 7.597L9.13491 6.99033C9.61324 6.83866 10.0682 6.71033 10.4999 6.62866C10.1499 7.34033 9.86991 8.20366 9.63658 9.19533L8.49324 14.0837C7.34991 18.9604 8.85492 21.3637 13.7199 22.5187L15.6799 22.9854C16.3566 23.1487 16.9866 23.2537 17.5699 23.3003Z" stroke="#A5ADCB" stroke-width="2" stroke-linecap="round" stroke-linejoin="round"/>
<path d="M14.7466 10.6304L20.4049 12.0654" stroke="#A5ADCB" stroke-width="2" stroke-linecap="round" stroke-linejoin="round"/>
<path d="M13.6035 15.1453L16.9868 16.0086" stroke="#A5ADCB" stroke-width="2" stroke-linecap="round" stroke-linejoin="round"/>
</svg>
