<svg width="28" height="29" viewBox="0 0 28 29" fill="none" xmlns="http://www.w3.org/2000/svg">
<path d="M21.0175 11.8981L16.7825 7.66307C16.6425 7.52307 16.3975 7.41807 16.1875 7.45307C15.9775 7.48807 15.7675 7.59307 15.6625 7.76807L12.5825 12.2831L9.3275 13.0181C9.0825 13.0881 8.8725 13.2631 8.7675 13.5431C8.6975 13.7881 8.7675 14.0681 8.9425 14.2781L11.1475 16.4831L6.7725 20.8581C6.4925 21.1381 6.4925 21.5931 6.7725 21.9081C6.9125 22.0481 7.0875 22.1181 7.2975 22.1181C7.5075 22.1181 7.6825 22.0481 7.8225 21.9081L12.2325 17.4981L14.4375 19.7031C14.5775 19.8431 14.7525 19.9131 14.9625 19.9131C15.0325 19.9131 15.1025 19.9131 15.1725 19.8781C15.4175 19.8081 15.6275 19.5981 15.6975 19.3181L16.4325 16.0631L20.9475 13.0181C21.1225 12.8781 21.2275 12.7031 21.2625 12.4931C21.2275 12.2481 21.1925 12.0381 21.0175 11.8981ZM15.3825 15.0481C15.2425 15.1531 15.1375 15.3281 15.0675 15.5031L14.5425 17.7431L10.9375 14.1381L13.1775 13.6481C13.3525 13.6131 13.5275 13.5081 13.6325 13.3331L16.3625 9.34307L19.3375 12.3181L15.3825 15.0481Z" fill="#A5ADCB"/>
</svg>
