<svg width="21" height="21" viewBox="0 0 21 21" fill="none" xmlns="http://www.w3.org/2000/svg">
<path fill-rule="evenodd" clip-rule="evenodd" d="M18 8.25H13V3.25C13 1.86875 11.8806 0.75 10.5 0.75C9.11938 0.75 8 1.86875 8 3.25V8.25H3C1.61937 8.25 0.5 9.36875 0.5 10.75C0.5 12.1313 1.61937 13.25 3 13.25H8V18.25C8 19.6313 9.11938 20.75 10.5 20.75C11.8806 20.75 13 19.6313 13 18.25V13.25H18C19.3806 13.25 20.5 12.1313 20.5 10.75C20.5 9.36875 19.3806 8.25 18 8.25Z" fill="#7DC4E4" fill-opacity="0.71"/>
</svg>
