<svg width="100%" height="100%" viewBox="0 0 28 28" fill="none" xmlns="http://www.w3.org/2000/svg">
<path fill-rule="evenodd" clip-rule="evenodd" d="M9.8812 2.88128C10.2229 2.53957 10.7769 2.53957 11.1186 2.88128L13.4519 5.21461C13.7022 5.46486 13.7771 5.84122 13.6416 6.16818C13.5062 6.49515 13.1871 6.70833 12.8333 6.70833H10.4999C6.47284 6.70833 3.20825 9.97292 3.20825 14C3.20825 18.027 6.47312 21.2917 10.5002 21.2917H11.0833C11.5665 21.2917 11.9583 21.6834 11.9583 22.1667C11.9583 22.6499 11.5665 23.0417 11.0833 23.0417H10.5002C5.50671 23.0417 1.45825 18.9936 1.45825 14C1.45825 9.00642 5.50634 4.95833 10.4999 4.95833H10.7208L9.8812 4.11872C9.5395 3.77701 9.5395 3.22298 9.8812 2.88128ZM16.0416 5.83333C16.0416 5.35009 16.4334 4.95833 16.9166 4.95833H17.4999C22.4935 4.95833 26.5416 9.00642 26.5416 14C26.5416 18.9936 22.4935 23.0417 17.4999 23.0417H17.2791L18.1186 23.8813C18.4603 24.223 18.4603 24.777 18.1186 25.1187C17.7769 25.4604 17.223 25.4604 16.8812 25.1187L14.5479 22.7853C14.2977 22.5351 14.2228 22.1587 14.3582 21.8318C14.4937 21.5048 14.8127 21.2917 15.1666 21.2917H17.4999C21.527 21.2917 24.7916 18.0271 24.7916 14C24.7916 9.97292 21.527 6.70833 17.4999 6.70833H16.9166C16.4334 6.70833 16.0416 6.31658 16.0416 5.83333ZM14.3348 10.8583C14.6618 10.9937 14.8749 11.3128 14.8749 11.6667V16.3333C14.8749 16.8166 14.4832 17.2083 13.9999 17.2083C13.5167 17.2083 13.1249 16.8166 13.1249 16.3333V13.7791L12.8686 14.0353C12.5269 14.3771 11.973 14.3771 11.6312 14.0353C11.2895 13.6936 11.2895 13.1397 11.6312 12.798L13.3812 11.0479C13.6315 10.7977 14.0079 10.7228 14.3348 10.8583Z" fill="#EE99A0"/>
</svg>
