<svg width="28" height="29" viewBox="0 0 28 29" fill="none" xmlns="http://www.w3.org/2000/svg">
<path fill-rule="evenodd" clip-rule="evenodd" d="M22.75 8.06055C23.2332 8.06055 23.625 8.4523 23.625 8.93555C23.625 11.5541 22.5143 13.2751 21.0737 14.3124C19.6778 15.3174 18.029 15.6439 16.9167 15.6439H7.36243L11.702 19.9835C12.0437 20.3252 12.0437 20.8792 11.702 21.2209C11.3603 21.5626 10.8063 21.5626 10.4646 21.2209L4.63128 15.3876C4.28957 15.0458 4.28957 14.4919 4.63128 14.1502L10.4646 8.31683C10.8063 7.97512 11.3603 7.97512 11.702 8.31683C12.0437 8.65853 12.0437 9.21256 11.702 9.55427L7.36243 13.8939H16.9167C17.7488 13.8939 19.0167 13.637 20.0513 12.8921C21.0412 12.1793 21.875 10.9837 21.875 8.93555C21.875 8.4523 22.2668 8.06055 22.75 8.06055Z" fill="#A5ADCB"/>
</svg>
