<svg width="100%" height="100%" viewBox="0 0 23 24" fill="none" xmlns="http://www.w3.org/2000/svg">
<g clip-path="url(#clip0_192_12)">
<path d="M20.2942 8.44244C20.2942 9.08288 19.7749 9.6021 19.1345 9.6021H15.3463C15.1183 9.6021 14.8952 9.53492 14.7053 9.40882L12.268 7.79218L10.3887 10.2979H12.7805C12.9606 10.2979 13.1381 10.3398 13.2991 10.4204L17.7185 12.6301C18.2914 12.9164 18.5236 13.6131 18.2371 14.1859C17.9507 14.7586 17.2541 14.9911 16.6813 14.7045L12.5068 12.6172H10.0695L11.395 13.9563C11.688 14.2521 11.7998 14.6824 11.688 15.0834C11.5762 15.4845 11.2579 15.7949 10.8542 15.8967L6.46817 17.0015C6.37316 17.0255 6.27783 17.0369 6.18406 17.0369C5.66522 17.0369 5.19285 16.6863 5.06034 16.1602C4.90394 15.5392 5.2806 14.9089 5.90164 14.7524L8.31722 14.1439L6.46562 12.2734C6.3696 12.1764 6.29399 12.0652 6.23856 11.9457C5.84891 11.3505 5.84938 10.5519 6.30087 9.95L9.04649 6.28925L7.69247 5.83791L4.23226 6.99131C3.6246 7.19363 2.96792 6.86553 2.76537 6.25786C2.56289 5.65028 2.89123 4.99352 3.49882 4.79097L7.32571 3.51533C7.56367 3.43609 7.82112 3.43609 8.05908 3.51533L11.886 4.79097C12.4494 5.00403 15.6958 7.2827 15.6958 7.2827H19.1344C19.7749 7.28277 20.2942 7.80199 20.2942 8.44244ZM13.9353 4.57689C14.9921 4.57689 15.8488 3.72021 15.8488 2.66345C15.8488 1.60668 14.9921 0.75 13.9353 0.75C12.8786 0.75 12.0219 1.60668 12.0219 2.66345C12.0219 3.72021 12.8786 4.57689 13.9353 4.57689ZM13.8545 14.823C13.5728 14.9073 13.3877 15.1776 13.3877 15.4716V21.7174C13.3877 22.1142 13.0918 22.4358 12.695 22.4358H10.3019C10.0079 22.4358 9.73765 22.621 9.65331 22.9025C9.52598 23.3275 9.84829 23.7501 10.263 23.7501H13.4521H13.4392C14.1438 23.7501 14.702 23.179 14.702 22.4744V22.4358V15.4327C14.702 15.0179 14.2794 14.6957 13.8545 14.823Z" fill="#EED49F"/>
</g>
<defs>
<clipPath id="clip0_192_12">
<rect width="23" height="23" fill="white" transform="translate(0 0.75)"/>
</clipPath>
</defs>
</svg>
