<svg width="100%" height="100%" viewBox="0 0 28 29" fill="none" xmlns="http://www.w3.org/2000/svg">
<path d="M10.5 7.96143C10.5 9.89442 12.0669 11.4614 14 11.4614C15.933 11.4614 17.5 9.89442 17.5 7.96143C17.5 6.02843 15.933 4.46143 14 4.46143C12.0669 4.46143 10.5 6.02843 10.5 7.96143Z" fill="#7DC4E4"/>
<path d="M2.91675 21.9614C2.91675 23.8945 4.48376 25.4614 6.41675 25.4614C8.34974 25.4614 9.91675 23.8945 9.91675 21.9614C9.91675 20.0284 8.34974 18.4614 6.41675 18.4614C4.48376 18.4614 2.91675 20.0284 2.91675 21.9614Z" fill="#7DC4E4"/>
<path d="M21.5833 25.4614C19.6502 25.4614 18.0833 23.8945 18.0833 21.9614C18.0833 20.0284 19.6502 18.4614 21.5833 18.4614C23.5163 18.4614 25.0833 20.0284 25.0833 21.9614C25.0833 23.8945 23.5163 25.4614 21.5833 25.4614Z" fill="#7DC4E4"/>
<path d="M8.40554 9.78421C8.76785 9.46443 8.80232 8.91149 8.48255 8.54917C8.16277 8.18686 7.60983 8.15238 7.24751 8.47215C5.12963 10.3414 3.79175 13.0791 3.79175 16.1282C3.79175 16.6114 4.1835 17.0032 4.66675 17.0032C5.14999 17.0032 5.54175 16.6114 5.54175 16.1282C5.54175 13.602 6.64807 11.3354 8.40554 9.78421Z" fill="#7DC4E4"/>
<path d="M20.7526 8.47215C20.3903 8.15238 19.8373 8.18686 19.5176 8.54917C19.1978 8.91149 19.2323 9.46443 19.5946 9.78421C21.352 11.3354 22.4584 13.602 22.4584 16.1282C22.4584 16.6114 22.8501 17.0032 23.3334 17.0032C23.8166 17.0032 24.2084 16.6114 24.2084 16.1282C24.2084 13.0791 22.8704 10.3414 20.7526 8.47215Z" fill="#7DC4E4"/>
<path d="M11.8848 24.3201C11.4168 24.1996 10.9398 24.4813 10.8193 24.9493C10.6989 25.4173 10.9806 25.8944 11.4486 26.0148C12.2651 26.2249 13.1201 26.3364 14 26.3364C14.8799 26.3364 15.735 26.2249 16.5514 26.0148C17.0195 25.8944 17.3012 25.4173 17.1807 24.9493C17.0603 24.4813 16.5833 24.1996 16.1153 24.3201C15.4402 24.4938 14.7315 24.5864 14 24.5864C13.2685 24.5864 12.5599 24.4938 11.8848 24.3201Z" fill="#7DC4E4"/>
</svg>
