<svg width="100%" height="100%" viewBox="0 0 27 28" fill="none" xmlns="http://www.w3.org/2000/svg">
<path d="M9.63179 12.0235L17.3645 8.1571M17.3682 19.0235L9.64276 15.1607M24 6.58936C24 8.52235 22.433 10.0894 20.5 10.0894C18.5669 10.0894 17 8.52235 17 6.58936C17 4.65636 18.5669 3.08936 20.5 3.08936C22.433 3.08936 24 4.65636 24 6.58936ZM10 13.5894C10 15.5224 8.43299 17.0894 6.5 17.0894C4.56701 17.0894 3 15.5224 3 13.5894C3 11.6563 4.56701 10.0894 6.5 10.0894C8.43299 10.0894 10 11.6563 10 13.5894ZM24 20.5894C24 22.5224 22.433 24.0894 20.5 24.0894C18.5669 24.0894 17 22.5224 17 20.5894C17 18.6563 18.5669 17.0894 20.5 17.0894C22.433 17.0894 24 18.6563 24 20.5894Z" stroke="#939AB7" stroke-width="2"/>
</svg>
