<?xml version="1.0" encoding="UTF-8"?>
<svg id="Layer_1" data-name="Layer 1" xmlns="http://www.w3.org/2000/svg" width="253.58" height="352.36" viewBox="0 0 253.58 352.36">
  <defs>
    <style>
      .cls-1 {
        fill: #39261f;
      }

      .cls-1, .cls-2, .cls-3, .cls-4, .cls-5, .cls-6, .cls-7 {
        stroke-width: 0px;
      }

      .cls-2 {
        fill: #fadfb2;
      }

      .cls-3 {
        fill: #321d18;
      }

      .cls-4 {
        fill: #f9dfae;
      }

      .cls-5 {
        fill: #d6592b;
      }

      .cls-6 {
        fill: #311d16;
      }

      .cls-7 {
        fill: #ecb16f;
      }
    </style>
  </defs>
  <path class="cls-7" d="M194.19,136.25c-.06.32-.12.64-.18.95-1.36-.29-2.71-.58-4.05-.86-10.35-2.32-21-2.17-31.52-2l-2.22.05c-8.9-.35-12.93,5.23-15.17,13.08-.03.11-.06.23-.09.35-2.74-.49-5.65-.79-8.37-.22-.08-9.7-6.94-17.29-16.54-20.32-6.95-2.37-13.86-4.42-21.18-5.13-6.31-.35-12.56-1.18-18.76.88-4.92,1.79-8.97,4.91-12.15,8.79.09-.37.19-.74.27-1.12,1.58-7.3,2.23-14.75,2.37-22.14.06-2.38.38-4.43,1.15-6.63,2.16-6.66,5.81-12.74,11.95-16.11,6.07-3.4,13.52-2.99,20.25-2.42,9.48,1.14,18.28,6.08,27.56,8.59,4.88,1.46,9.65,2.33,14.61,3.2,4.91.82,9.76,1.5,14.75,1.92,10.28.82,20.66-.1,30.75-2.15,6.85,3.51,9.25,9.58,9.62,17.42.72,8.15-1.51,15.88-3.05,23.87ZM124.92,145.75c-.69-3.36-3.1-6.85-5.98-8.86-3.38-2.32-7.85-3.59-11.88-5-2.17-.74-4.28-1.39-6.44-1.92-4.39-1.12-8.66-1.6-13.25-1.82-9.01-1.14-16.15,2.76-20.97,10.37-4.78,7.62-5.43,16.35-4.85,25.3.1,2.32.19,4.64.45,6.73.44,4.12,2.37,7.6,5.16,10.56,4.31,4.72,10.44,7.18,16.64,8.34,10.32,2.47,21.31-.62,28.67-8.17.54-.54,1.55-1.68,2.03-2.28,1.99-2.46,3.01-5.11,4.33-8.26,2.63-6.16,4.85-12.61,5.9-19.24.29-1.97.55-3.9.19-5.75ZM192.66,144.58c-5.46-1.21-11.06-2.17-16.71-2.58-5.69-.32-11.67-.31-17.4-.28-1,.04-3.3.02-4.17.08-1.96.17-3.27.97-4.59,2.71-4.58,6.84-6.21,15.41-6.44,23.53-.05,2.51.1,5.01.36,7.5,1.74.36,3.43.93,5,1.7,7.67,3.58,11.36,11.77,10.67,19.81,1.44.48,2.91.88,4.4,1.17,8.87,1.87,18.19.05,25.97-4.47-.23-2.64-.41-5.28-.52-7.93-.61-13.88,1.06-27.62,3.43-41.24ZM192.17,216.56c-.52-5.26-1.16-10.49-1.73-15.73-8.66,4.01-18.62,5.15-27.88,2.56-1.42-.37-2.81-.84-4.17-1.37-.01.03-.02.07-.03.1-4.65,14.17-24.62,12.52-34.17,4.58-.45-.35-.01-1.09.51-.86,3.19,1.29,6.44,2.25,9.71,2.68,5.6.62,13.39.28,17.29-4.23,1.91-2.24,2.58-5.33,2.83-8.23.86-8.43-4.27-14.99-11.72-17.13-.37.3-4.62-.74-4.99-.75-3.2-.1-6.48.51-9.68,1.71-.51.23-.95-.53-.5-.86,3-2.49,6.79-3.75,10.68-3.93-.55-5.83-.42-11.7.45-17.48-2.37-.63-4.75-.92-7.12-1.73-.06-.01-.11-.03-.16-.05-1.19,6.09-3.12,12.05-5.42,17.79-1.25,3.31-2.91,7.32-5.37,10.27l-1.27,1.52c-9.16,10.35-24,14.59-37.22,11.03-10.08-2.04-19.83-7.85-24.35-17.42-2.04-3.96-2.35-8.7-2.46-13.08-1.52,2.26-3.35,4.3-5.41,6.05-.54.45-1.33.39-1.79-.15-.14-.17-.23-.36-.27-.56-.63-2.81-1.65-5.53-3.13-7.97-1.45-2.41-3.41-4.68-5.43-6.57-3.98-3.7-9.5-5.4-14.76-4.9-6.11.55-10.89,4.82-13.96,9.99-4.22,6.41-5.59,14.5-5.38,22.1.6,9.67,5.23,19.42,13.34,24.84,5.47,3.69,12.68,6.75,19.07,4.04,2.43-1.05,4.73-2.57,6.44-4.68.47-.64,1.37-.77,1.98-.27.48.39.63,1.04.41,1.58-.75,1.82-1.31,3.72-1.64,5.64-.86,5.96.2,12.08.38,18.15.65,11.01,3.74,21.78,8.49,31.67,3.25,6.62,7.13,13.1,12.04,18.6,3.71,3.89,7.87,7.39,12.51,10.08,13.8,8.32,30.36,8.14,45.63,3.89,11.61-2.96,22.18-9.16,31.79-16.28,12.61-9.63,24.5-21.22,31.25-35.77,4.08-8.93,5.42-19.11,5.21-28.87ZM38.43,184.37c-.48-1.19-1.04-2.34-1.66-3.45-1.79,1.66-3.63,3.42-5.21,5.14-2.08,2.25-3.08,5.1-3.42,8.18-.05.55-.9.6-1,.06-1.38-5.51,1.57-10.23,5.29-13.97.76-.78,1.56-1.63,2.4-2.38-2.65-3.53-6.16-6.33-10.49-7.74-2.19-.74-4.51-1.13-6.96-1.27-.41-.02-.73-.37-.71-.78.02-.3.23-.56.5-.65,2.51-.85,5.28-.98,7.96-.51,8.07,1.28,14.96,8.76,15.16,16.99.03,1.06-1.49,1.36-1.86.38ZM177.5,222.28c-5.76,19.1-22.89,24.12-40.95,23.95-3.27.14-6.56.08-9.83-.18-.01.02-.05.11-.05.11-6.1,13.31-12.5,27.34-24.03,36.87-7.32,6.62-18.89,9.56-28.11,5.1-12.65-5.61-16.9-21.47-13.48-34.02,2.79-10.88,10.32-20.27,20.14-25.58.49-.28,1.01-.54,1.54-.79-2.5-2.02-4.85-4.2-6.85-6.87-3.33-4.63-4.4-10.38-3.5-15.57-2.69.33-5.3.88-8.01,1.42-.51.12-.84-.6-.42-.91,3.79-2.92,8.76-4.34,13.53-4.07.86.05,5.45.83,4.85,2.08-.07.14-.2.23-.34.26-2.81.7-5.43.77-8.2,1.05,1.78,11.53,8.14,16.55,17.72,22.88,13.25,8.95,29.1,13.03,45.01,12.84,10.47.11,21.33-.55,29.9-6.95,4.2-3.02,7.57-7.23,10.16-11.99.13-.25.43-.34.68-.21.21.12.31.36.24.58Z"/>
  <path class="cls-4" d="M176.28,140.9c5.46,3.37,8.32,7.87,9.7,10.09,1.44,2.32,7.24,12,4.47,23.74-.58,2.45-1.67,7.07-5.36,10.98-9.43,9.99-26.38,5.34-27.19,5.11-2.28-2.94-4.39-5.38-6.13-7.28-3.23-3.53-4.91-4.93-7.28-5.74-1.29-.44-2.42-.59-3.19-.64-.92-4.28-2.06-12.36.38-21.96,1.94-7.62,5.37-13.18,7.79-16.47,2.29-.77,15.28-4.94,26.81,2.17ZM125.68,157.92c-.21-2.62-.98-7.5-4.26-12.43-3.49-5.24-7.94-7.71-10.38-9.02-2.11-1.14-6.03-3.2-11.57-3.57-1.12-.08-6.99-.41-13.62,2.72-1.37.65-7.61,3.73-12.26,10.89-1.9,2.93-5.53,8.54-4.94,16.34.08,1.06.93,10.24,8.51,16.34,6.08,4.89,12.9,4.91,20.6,4.94,4.51.02,11.81-.51,20.43-3.74,2.5-7.49,4.99-14.98,7.49-22.47Z"/>
  <path class="cls-6" d="M177.26,221.7c-.25-.13-.55-.04-.68.21-2.59,4.76-5.96,8.97-10.16,11.99-8.57,6.4-19.43,7.06-29.9,6.95-15.91.19-31.76-3.89-45.01-12.84-9.58-6.33-15.94-11.35-17.72-22.88,2.77-.28,5.39-.35,8.2-1.05.14-.03.27-.12.34-.26.6-1.25-3.99-2.03-4.85-2.08-4.77-.27-9.74,1.15-13.53,4.07-.42.31-.09,1.03.42.91,2.71-.54,5.32-1.09,8.01-1.42-.9,5.19.17,10.94,3.5,15.57,2,2.67,4.35,4.85,6.85,6.87-.53.25-1.05.51-1.54.79-9.82,5.31-17.35,14.7-20.14,25.58-3.42,12.55.83,28.41,13.48,34.02,9.22,4.46,20.79,1.52,28.11-5.1,11.53-9.53,17.93-23.56,24.03-36.87,0,0,.04-.09.05-.11,3.27.26,6.56.32,9.83.18,18.06.17,35.19-4.85,40.95-23.95.07-.22-.03-.46-.24-.58ZM110.68,265.9c-3.27,4.8-6.87,9.44-11.42,13.06-2.24,1.88-4.47,3.42-6.97,4.42-7.52,3.28-16.63,1.63-22.1-4.59-5.53-6.28-6.69-15.63-4.85-23.61,2.45-10.88,10.37-20.35,20.49-25.03h.01c.92.68,1.85,1.37,2.78,2.06,3.32,2.45,6.86,4.57,10.56,6.38-1.31.94-2.58,1.93-3.78,3.01-7.12,6.44-11.7,15.87-11.66,25.5-.02.58.87.68.99.12.73-2.97,1.65-5.85,2.91-8.55,3.31-7.36,8.92-13.63,15.82-17.8.13-.06.25-.13.36-.21,5.7,2.31,11.69,3.91,17.78,4.8-3.22,6.99-6.76,13.99-10.92,20.44ZM25.13,167c-2.68-.47-5.45-.34-7.96.51-.27.09-.48.35-.5.65-.02.41.3.76.71.78,2.45.14,4.77.53,6.96,1.27,4.33,1.41,7.84,4.21,10.49,7.74-.84.75-1.64,1.6-2.4,2.38-3.72,3.74-6.67,8.46-5.29,13.97.1.54.95.49,1-.06.34-3.08,1.34-5.93,3.42-8.18,1.58-1.72,3.42-3.48,5.21-5.14.62,1.11,1.18,2.26,1.66,3.45.37.98,1.89.68,1.86-.38-.2-8.23-7.09-15.71-15.16-16.99ZM177.26,221.7c-.25-.13-.55-.04-.68.21-2.59,4.76-5.96,8.97-10.16,11.99-8.57,6.4-19.43,7.06-29.9,6.95-15.91.19-31.76-3.89-45.01-12.84-9.58-6.33-15.94-11.35-17.72-22.88,2.77-.28,5.39-.35,8.2-1.05.14-.03.27-.12.34-.26.6-1.25-3.99-2.03-4.85-2.08-4.77-.27-9.74,1.15-13.53,4.07-.42.31-.09,1.03.42.91,2.71-.54,5.32-1.09,8.01-1.42-.9,5.19.17,10.94,3.5,15.57,2,2.67,4.35,4.85,6.85,6.87-.53.25-1.05.51-1.54.79-9.82,5.31-17.35,14.7-20.14,25.58-3.42,12.55.83,28.41,13.48,34.02,9.22,4.46,20.79,1.52,28.11-5.1,11.53-9.53,17.93-23.56,24.03-36.87,0,0,.04-.09.05-.11,3.27.26,6.56.32,9.83.18,18.06.17,35.19-4.85,40.95-23.95.07-.22-.03-.46-.24-.58ZM110.68,265.9c-3.27,4.8-6.87,9.44-11.42,13.06-2.24,1.88-4.47,3.42-6.97,4.42-7.52,3.28-16.63,1.63-22.1-4.59-5.53-6.28-6.69-15.63-4.85-23.61,2.45-10.88,10.37-20.35,20.49-25.03h.01c.92.68,1.85,1.37,2.78,2.06,3.32,2.45,6.86,4.57,10.56,6.38-1.31.94-2.58,1.93-3.78,3.01-7.12,6.44-11.7,15.87-11.66,25.5-.02.58.87.68.99.12.73-2.97,1.65-5.85,2.91-8.55,3.31-7.36,8.92-13.63,15.82-17.8.13-.06.25-.13.36-.21,5.7,2.31,11.69,3.91,17.78,4.8-3.22,6.99-6.76,13.99-10.92,20.44ZM25.13,167c-2.68-.47-5.45-.34-7.96.51-.27.09-.48.35-.5.65-.02.41.3.76.71.78,2.45.14,4.77.53,6.96,1.27,4.33,1.41,7.84,4.21,10.49,7.74-.84.75-1.64,1.6-2.4,2.38-3.72,3.74-6.67,8.46-5.29,13.97.1.54.95.49,1-.06.34-3.08,1.34-5.93,3.42-8.18,1.58-1.72,3.42-3.48,5.21-5.14.62,1.11,1.18,2.26,1.66,3.45.37.98,1.89.68,1.86-.38-.2-8.23-7.09-15.71-15.16-16.99ZM25.13,167c-2.68-.47-5.45-.34-7.96.51-.27.09-.48.35-.5.65-.02.41.3.76.71.78,2.45.14,4.77.53,6.96,1.27,4.33,1.41,7.84,4.21,10.49,7.74-.84.75-1.64,1.6-2.4,2.38-3.72,3.74-6.67,8.46-5.29,13.97.1.54.95.49,1-.06.34-3.08,1.34-5.93,3.42-8.18,1.58-1.72,3.42-3.48,5.21-5.14.62,1.11,1.18,2.26,1.66,3.45.37.98,1.89.68,1.86-.38-.2-8.23-7.09-15.71-15.16-16.99ZM177.26,221.7c-.25-.13-.55-.04-.68.21-2.59,4.76-5.96,8.97-10.16,11.99-8.57,6.4-19.43,7.06-29.9,6.95-15.91.19-31.76-3.89-45.01-12.84-9.58-6.33-15.94-11.35-17.72-22.88,2.77-.28,5.39-.35,8.2-1.05.14-.03.27-.12.34-.26.6-1.25-3.99-2.03-4.85-2.08-4.77-.27-9.74,1.15-13.53,4.07-.42.31-.09,1.03.42.91,2.71-.54,5.32-1.09,8.01-1.42-.9,5.19.17,10.94,3.5,15.57,2,2.67,4.35,4.85,6.85,6.87-.53.25-1.05.51-1.54.79-9.82,5.31-17.35,14.7-20.14,25.58-3.42,12.55.83,28.41,13.48,34.02,9.22,4.46,20.79,1.52,28.11-5.1,11.53-9.53,17.93-23.56,24.03-36.87,0,0,.04-.09.05-.11,3.27.26,6.56.32,9.83.18,18.06.17,35.19-4.85,40.95-23.95.07-.22-.03-.46-.24-.58ZM110.68,265.9c-3.27,4.8-6.87,9.44-11.42,13.06-2.24,1.88-4.47,3.42-6.97,4.42-7.52,3.28-16.63,1.63-22.1-4.59-5.53-6.28-6.69-15.63-4.85-23.61,2.45-10.88,10.37-20.35,20.49-25.03h.01c.92.68,1.85,1.37,2.78,2.06,3.32,2.45,6.86,4.57,10.56,6.38-1.31.94-2.58,1.93-3.78,3.01-7.12,6.44-11.7,15.87-11.66,25.5-.02.58.87.68.99.12.73-2.97,1.65-5.85,2.91-8.55,3.31-7.36,8.92-13.63,15.82-17.8.13-.06.25-.13.36-.21,5.7,2.31,11.69,3.91,17.78,4.8-3.22,6.99-6.76,13.99-10.92,20.44ZM177.26,221.7c-.25-.13-.55-.04-.68.21-2.59,4.76-5.96,8.97-10.16,11.99-8.57,6.4-19.43,7.06-29.9,6.95-15.91.19-31.76-3.89-45.01-12.84-9.58-6.33-15.94-11.35-17.72-22.88,2.77-.28,5.39-.35,8.2-1.05.14-.03.27-.12.34-.26.6-1.25-3.99-2.03-4.85-2.08-4.77-.27-9.74,1.15-13.53,4.07-.42.31-.09,1.03.42.91,2.71-.54,5.32-1.09,8.01-1.42-.9,5.19.17,10.94,3.5,15.57,2,2.67,4.35,4.85,6.85,6.87-.53.25-1.05.51-1.54.79-9.82,5.31-17.35,14.7-20.14,25.58-3.42,12.55.83,28.41,13.48,34.02,9.22,4.46,20.79,1.52,28.11-5.1,11.53-9.53,17.93-23.56,24.03-36.87,0,0,.04-.09.05-.11,3.27.26,6.56.32,9.83.18,18.06.17,35.19-4.85,40.95-23.95.07-.22-.03-.46-.24-.58ZM110.68,265.9c-3.27,4.8-6.87,9.44-11.42,13.06-2.24,1.88-4.47,3.42-6.97,4.42-7.52,3.28-16.63,1.63-22.1-4.59-5.53-6.28-6.69-15.63-4.85-23.61,2.45-10.88,10.37-20.35,20.49-25.03h.01c.92.68,1.85,1.37,2.78,2.06,3.32,2.45,6.86,4.57,10.56,6.38-1.31.94-2.58,1.93-3.78,3.01-7.12,6.44-11.7,15.87-11.66,25.5-.02.58.87.68.99.12.73-2.97,1.65-5.85,2.91-8.55,3.31-7.36,8.92-13.63,15.82-17.8.13-.06.25-.13.36-.21,5.7,2.31,11.69,3.91,17.78,4.8-3.22,6.99-6.76,13.99-10.92,20.44ZM25.13,167c-2.68-.47-5.45-.34-7.96.51-.27.09-.48.35-.5.65-.02.41.3.76.71.78,2.45.14,4.77.53,6.96,1.27,4.33,1.41,7.84,4.21,10.49,7.74-.84.75-1.64,1.6-2.4,2.38-3.72,3.74-6.67,8.46-5.29,13.97.1.54.95.49,1-.06.34-3.08,1.34-5.93,3.42-8.18,1.58-1.72,3.42-3.48,5.21-5.14.62,1.11,1.18,2.26,1.66,3.45.37.98,1.89.68,1.86-.38-.2-8.23-7.09-15.71-15.16-16.99ZM25.13,167c-2.68-.47-5.45-.34-7.96.51-.27.09-.48.35-.5.65-.02.41.3.76.71.78,2.45.14,4.77.53,6.96,1.27,4.33,1.41,7.84,4.21,10.49,7.74-.84.75-1.64,1.6-2.4,2.38-3.72,3.74-6.67,8.46-5.29,13.97.1.54.95.49,1-.06.34-3.08,1.34-5.93,3.42-8.18,1.58-1.72,3.42-3.48,5.21-5.14.62,1.11,1.18,2.26,1.66,3.45.37.98,1.89.68,1.86-.38-.2-8.23-7.09-15.71-15.16-16.99ZM177.26,221.7c-.25-.13-.55-.04-.68.21-2.59,4.76-5.96,8.97-10.16,11.99-8.57,6.4-19.43,7.06-29.9,6.95-15.91.19-31.76-3.89-45.01-12.84-9.58-6.33-15.94-11.35-17.72-22.88,2.77-.28,5.39-.35,8.2-1.05.14-.03.27-.12.34-.26.6-1.25-3.99-2.03-4.85-2.08-4.77-.27-9.74,1.15-13.53,4.07-.42.31-.09,1.03.42.91,2.71-.54,5.32-1.09,8.01-1.42-.9,5.19.17,10.94,3.5,15.57,2,2.67,4.35,4.85,6.85,6.87-.53.25-1.05.51-1.54.79-9.82,5.31-17.35,14.7-20.14,25.58-3.42,12.55.83,28.41,13.48,34.02,9.22,4.46,20.79,1.52,28.11-5.1,11.53-9.53,17.93-23.56,24.03-36.87,0,0,.04-.09.05-.11,3.27.26,6.56.32,9.83.18,18.06.17,35.19-4.85,40.95-23.95.07-.22-.03-.46-.24-.58ZM110.68,265.9c-3.27,4.8-6.87,9.44-11.42,13.06-2.24,1.88-4.47,3.42-6.97,4.42-7.52,3.28-16.63,1.63-22.1-4.59-5.53-6.28-6.69-15.63-4.85-23.61,2.45-10.88,10.37-20.35,20.49-25.03h.01c.92.68,1.85,1.37,2.78,2.06,3.32,2.45,6.86,4.57,10.56,6.38-1.31.94-2.58,1.93-3.78,3.01-7.12,6.44-11.7,15.87-11.66,25.5-.02.58.87.68.99.12.73-2.97,1.65-5.85,2.91-8.55,3.31-7.36,8.92-13.63,15.82-17.8.13-.06.25-.13.36-.21,5.7,2.31,11.69,3.91,17.78,4.8-3.22,6.99-6.76,13.99-10.92,20.44ZM177.26,221.7c-.25-.13-.55-.04-.68.21-2.59,4.76-5.96,8.97-10.16,11.99-8.57,6.4-19.43,7.06-29.9,6.95-15.91.19-31.76-3.89-45.01-12.84-9.58-6.33-15.94-11.35-17.72-22.88,2.77-.28,5.39-.35,8.2-1.05.14-.03.27-.12.34-.26.6-1.25-3.99-2.03-4.85-2.08-4.77-.27-9.74,1.15-13.53,4.07-.42.31-.09,1.03.42.91,2.71-.54,5.32-1.09,8.01-1.42-.9,5.19.17,10.94,3.5,15.57,2,2.67,4.35,4.85,6.85,6.87-.53.25-1.05.51-1.54.79-9.82,5.31-17.35,14.7-20.14,25.58-3.42,12.55.83,28.41,13.48,34.02,9.22,4.46,20.79,1.52,28.11-5.1,11.53-9.53,17.93-23.56,24.03-36.87,0,0,.04-.09.05-.11,3.27.26,6.56.32,9.83.18,18.06.17,35.19-4.85,40.95-23.95.07-.22-.03-.46-.24-.58ZM110.68,265.9c-3.27,4.8-6.87,9.44-11.42,13.06-2.24,1.88-4.47,3.42-6.97,4.42-7.52,3.28-16.63,1.63-22.1-4.59-5.53-6.28-6.69-15.63-4.85-23.61,2.45-10.88,10.37-20.35,20.49-25.03h.01c.92.68,1.85,1.37,2.78,2.06,3.32,2.45,6.86,4.57,10.56,6.38-1.31.94-2.58,1.93-3.78,3.01-7.12,6.44-11.7,15.87-11.66,25.5-.02.58.87.68.99.12.73-2.97,1.65-5.85,2.91-8.55,3.31-7.36,8.92-13.63,15.82-17.8.13-.06.25-.13.36-.21,5.7,2.31,11.69,3.91,17.78,4.8-3.22,6.99-6.76,13.99-10.92,20.44ZM25.13,167c-2.68-.47-5.45-.34-7.96.51-.27.09-.48.35-.5.65-.02.41.3.76.71.78,2.45.14,4.77.53,6.96,1.27,4.33,1.41,7.84,4.21,10.49,7.74-.84.75-1.64,1.6-2.4,2.38-3.72,3.74-6.67,8.46-5.29,13.97.1.54.95.49,1-.06.34-3.08,1.34-5.93,3.42-8.18,1.58-1.72,3.42-3.48,5.21-5.14.62,1.11,1.18,2.26,1.66,3.45.37.98,1.89.68,1.86-.38-.2-8.23-7.09-15.71-15.16-16.99ZM25.13,167c-2.68-.47-5.45-.34-7.96.51-.27.09-.48.35-.5.65-.02.41.3.76.71.78,2.45.14,4.77.53,6.96,1.27,4.33,1.41,7.84,4.21,10.49,7.74-.84.75-1.64,1.6-2.4,2.38-3.72,3.74-6.67,8.46-5.29,13.97.1.54.95.49,1-.06.34-3.08,1.34-5.93,3.42-8.18,1.58-1.72,3.42-3.48,5.21-5.14.62,1.11,1.18,2.26,1.66,3.45.37.98,1.89.68,1.86-.38-.2-8.23-7.09-15.71-15.16-16.99ZM177.26,221.7c-.25-.13-.55-.04-.68.21-2.59,4.76-5.96,8.97-10.16,11.99-8.57,6.4-19.43,7.06-29.9,6.95-15.91.19-31.76-3.89-45.01-12.84-9.58-6.33-15.94-11.35-17.72-22.88,2.77-.28,5.39-.35,8.2-1.05.14-.03.27-.12.34-.26.6-1.25-3.99-2.03-4.85-2.08-4.77-.27-9.74,1.15-13.53,4.07-.42.31-.09,1.03.42.91,2.71-.54,5.32-1.09,8.01-1.42-.9,5.19.17,10.94,3.5,15.57,2,2.67,4.35,4.85,6.85,6.87-.53.25-1.05.51-1.54.79-9.82,5.31-17.35,14.7-20.14,25.58-3.42,12.55.83,28.41,13.48,34.02,9.22,4.46,20.79,1.52,28.11-5.1,11.53-9.53,17.93-23.56,24.03-36.87,0,0,.04-.09.05-.11,3.27.26,6.56.32,9.83.18,18.06.17,35.19-4.85,40.95-23.95.07-.22-.03-.46-.24-.58ZM110.68,265.9c-3.27,4.8-6.87,9.44-11.42,13.06-2.24,1.88-4.47,3.42-6.97,4.42-7.52,3.28-16.63,1.63-22.1-4.59-5.53-6.28-6.69-15.63-4.85-23.61,2.45-10.88,10.37-20.35,20.49-25.03h.01c.92.68,1.85,1.37,2.78,2.06,3.32,2.45,6.86,4.57,10.56,6.38-1.31.94-2.58,1.93-3.78,3.01-7.12,6.44-11.7,15.87-11.66,25.5-.02.58.87.68.99.12.73-2.97,1.65-5.85,2.91-8.55,3.31-7.36,8.92-13.63,15.82-17.8.13-.06.25-.13.36-.21,5.7,2.31,11.69,3.91,17.78,4.8-3.22,6.99-6.76,13.99-10.92,20.44ZM177.26,221.7c-.25-.13-.55-.04-.68.21-2.59,4.76-5.96,8.97-10.16,11.99-8.57,6.4-19.43,7.06-29.9,6.95-15.91.19-31.76-3.89-45.01-12.84-9.58-6.33-15.94-11.35-17.72-22.88,2.77-.28,5.39-.35,8.2-1.05.14-.03.27-.12.34-.26.6-1.25-3.99-2.03-4.85-2.08-4.77-.27-9.74,1.15-13.53,4.07-.42.31-.09,1.03.42.91,2.71-.54,5.32-1.09,8.01-1.42-.9,5.19.17,10.94,3.5,15.57,2,2.67,4.35,4.85,6.85,6.87-.53.25-1.05.51-1.54.79-9.82,5.31-17.35,14.7-20.14,25.58-3.42,12.55.83,28.41,13.48,34.02,9.22,4.46,20.79,1.52,28.11-5.1,11.53-9.53,17.93-23.56,24.03-36.87,0,0,.04-.09.05-.11,3.27.26,6.56.32,9.83.18,18.06.17,35.19-4.85,40.95-23.95.07-.22-.03-.46-.24-.58ZM110.68,265.9c-3.27,4.8-6.87,9.44-11.42,13.06-2.24,1.88-4.47,3.42-6.97,4.42-7.52,3.28-16.63,1.63-22.1-4.59-5.53-6.28-6.69-15.63-4.85-23.61,2.45-10.88,10.37-20.35,20.49-25.03h.01c.92.68,1.85,1.37,2.78,2.06,3.32,2.45,6.86,4.57,10.56,6.38-1.31.94-2.58,1.93-3.78,3.01-7.12,6.44-11.7,15.87-11.66,25.5-.02.58.87.68.99.12.73-2.97,1.65-5.85,2.91-8.55,3.31-7.36,8.92-13.63,15.82-17.8.13-.06.25-.13.36-.21,5.7,2.31,11.69,3.91,17.78,4.8-3.22,6.99-6.76,13.99-10.92,20.44ZM25.13,167c-2.68-.47-5.45-.34-7.96.51-.27.09-.48.35-.5.65-.02.41.3.76.71.78,2.45.14,4.77.53,6.96,1.27,4.33,1.41,7.84,4.21,10.49,7.74-.84.75-1.64,1.6-2.4,2.38-3.72,3.74-6.67,8.46-5.29,13.97.1.54.95.49,1-.06.34-3.08,1.34-5.93,3.42-8.18,1.58-1.72,3.42-3.48,5.21-5.14.62,1.11,1.18,2.26,1.66,3.45.37.98,1.89.68,1.86-.38-.2-8.23-7.09-15.71-15.16-16.99ZM25.13,167c-2.68-.47-5.45-.34-7.96.51-.27.09-.48.35-.5.65-.02.41.3.76.71.78,2.45.14,4.77.53,6.96,1.27,4.33,1.41,7.84,4.21,10.49,7.74-.84.75-1.64,1.6-2.4,2.38-3.72,3.74-6.67,8.46-5.29,13.97.1.54.95.49,1-.06.34-3.08,1.34-5.93,3.42-8.18,1.58-1.72,3.42-3.48,5.21-5.14.62,1.11,1.18,2.26,1.66,3.45.37.98,1.89.68,1.86-.38-.2-8.23-7.09-15.71-15.16-16.99ZM177.26,221.7c-.25-.13-.55-.04-.68.21-2.59,4.76-5.96,8.97-10.16,11.99-8.57,6.4-19.43,7.06-29.9,6.95-15.91.19-31.76-3.89-45.01-12.84-9.58-6.33-15.94-11.35-17.72-22.88,2.77-.28,5.39-.35,8.2-1.05.14-.03.27-.12.34-.26.6-1.25-3.99-2.03-4.85-2.08-4.77-.27-9.74,1.15-13.53,4.07-.42.31-.09,1.03.42.91,2.71-.54,5.32-1.09,8.01-1.42-.9,5.19.17,10.94,3.5,15.57,2,2.67,4.35,4.85,6.85,6.87-.53.25-1.05.51-1.54.79-9.82,5.31-17.35,14.7-20.14,25.58-3.42,12.55.83,28.41,13.48,34.02,9.22,4.46,20.79,1.52,28.11-5.1,11.53-9.53,17.93-23.56,24.03-36.87,0,0,.04-.09.05-.11,3.27.26,6.56.32,9.83.18,18.06.17,35.19-4.85,40.95-23.95.07-.22-.03-.46-.24-.58ZM110.68,265.9c-3.27,4.8-6.87,9.44-11.42,13.06-2.24,1.88-4.47,3.42-6.97,4.42-7.52,3.28-16.63,1.63-22.1-4.59-5.53-6.28-6.69-15.63-4.85-23.61,2.45-10.88,10.37-20.35,20.49-25.03h.01c.92.68,1.85,1.37,2.78,2.06,3.32,2.45,6.86,4.57,10.56,6.38-1.31.94-2.58,1.93-3.78,3.01-7.12,6.44-11.7,15.87-11.66,25.5-.02.58.87.68.99.12.73-2.97,1.65-5.85,2.91-8.55,3.31-7.36,8.92-13.63,15.82-17.8.13-.06.25-.13.36-.21,5.7,2.31,11.69,3.91,17.78,4.8-3.22,6.99-6.76,13.99-10.92,20.44ZM177.26,221.7c-.25-.13-.55-.04-.68.21-2.59,4.76-5.96,8.97-10.16,11.99-8.57,6.4-19.43,7.06-29.9,6.95-15.91.19-31.76-3.89-45.01-12.84-9.58-6.33-15.94-11.35-17.72-22.88,2.77-.28,5.39-.35,8.2-1.05.14-.03.27-.12.34-.26.6-1.25-3.99-2.03-4.85-2.08-4.77-.27-9.74,1.15-13.53,4.07-.42.31-.09,1.03.42.91,2.71-.54,5.32-1.09,8.01-1.42-.9,5.19.17,10.94,3.5,15.57,2,2.67,4.35,4.85,6.85,6.87-.53.25-1.05.51-1.54.79-9.82,5.31-17.35,14.7-20.14,25.58-3.42,12.55.83,28.41,13.48,34.02,9.22,4.46,20.79,1.52,28.11-5.1,11.53-9.53,17.93-23.56,24.03-36.87,0,0,.04-.09.05-.11,3.27.26,6.56.32,9.83.18,18.06.17,35.19-4.85,40.95-23.95.07-.22-.03-.46-.24-.58ZM110.68,265.9c-3.27,4.8-6.87,9.44-11.42,13.06-2.24,1.88-4.47,3.42-6.97,4.42-7.52,3.28-16.63,1.63-22.1-4.59-5.53-6.28-6.69-15.63-4.85-23.61,2.45-10.88,10.37-20.35,20.49-25.03h.01c.92.68,1.85,1.37,2.78,2.06,3.32,2.45,6.86,4.57,10.56,6.38-1.31.94-2.58,1.93-3.78,3.01-7.12,6.44-11.7,15.87-11.66,25.5-.02.58.87.68.99.12.73-2.97,1.65-5.85,2.91-8.55,3.31-7.36,8.92-13.63,15.82-17.8.13-.06.25-.13.36-.21,5.7,2.31,11.69,3.91,17.78,4.8-3.22,6.99-6.76,13.99-10.92,20.44ZM25.13,167c-2.68-.47-5.45-.34-7.96.51-.27.09-.48.35-.5.65-.02.41.3.76.71.78,2.45.14,4.77.53,6.96,1.27,4.33,1.41,7.84,4.21,10.49,7.74-.84.75-1.64,1.6-2.4,2.38-3.72,3.74-6.67,8.46-5.29,13.97.1.54.95.49,1-.06.34-3.08,1.34-5.93,3.42-8.18,1.58-1.72,3.42-3.48,5.21-5.14.62,1.11,1.18,2.26,1.66,3.45.37.98,1.89.68,1.86-.38-.2-8.23-7.09-15.71-15.16-16.99ZM25.13,167c-2.68-.47-5.45-.34-7.96.51-.27.09-.48.35-.5.65-.02.41.3.76.71.78,2.45.14,4.77.53,6.96,1.27,4.33,1.41,7.84,4.21,10.49,7.74-.84.75-1.64,1.6-2.4,2.38-3.72,3.74-6.67,8.46-5.29,13.97.1.54.95.49,1-.06.34-3.08,1.34-5.93,3.42-8.18,1.58-1.72,3.42-3.48,5.21-5.14.62,1.11,1.18,2.26,1.66,3.45.37.98,1.89.68,1.86-.38-.2-8.23-7.09-15.71-15.16-16.99ZM177.26,221.7c-.25-.13-.55-.04-.68.21-2.59,4.76-5.96,8.97-10.16,11.99-8.57,6.4-19.43,7.06-29.9,6.95-15.91.19-31.76-3.89-45.01-12.84-9.58-6.33-15.94-11.35-17.72-22.88,2.77-.28,5.39-.35,8.2-1.05.14-.03.27-.12.34-.26.6-1.25-3.99-2.03-4.85-2.08-4.77-.27-9.74,1.15-13.53,4.07-.42.31-.09,1.03.42.91,2.71-.54,5.32-1.09,8.01-1.42-.9,5.19.17,10.94,3.5,15.57,2,2.67,4.35,4.85,6.85,6.87-.53.25-1.05.51-1.54.79-9.82,5.31-17.35,14.7-20.14,25.58-3.42,12.55.83,28.41,13.48,34.02,9.22,4.46,20.79,1.52,28.11-5.1,11.53-9.53,17.93-23.56,24.03-36.87,0,0,.04-.09.05-.11,3.27.26,6.56.32,9.83.18,18.06.17,35.19-4.85,40.95-23.95.07-.22-.03-.46-.24-.58ZM110.68,265.9c-3.27,4.8-6.87,9.44-11.42,13.06-2.24,1.88-4.47,3.42-6.97,4.42-7.52,3.28-16.63,1.63-22.1-4.59-5.53-6.28-6.69-15.63-4.85-23.61,2.45-10.88,10.37-20.35,20.49-25.03h.01c.92.68,1.85,1.37,2.78,2.06,3.32,2.45,6.86,4.57,10.56,6.38-1.31.94-2.58,1.93-3.78,3.01-7.12,6.44-11.7,15.87-11.66,25.5-.02.58.87.68.99.12.73-2.97,1.65-5.85,2.91-8.55,3.31-7.36,8.92-13.63,15.82-17.8.13-.06.25-.13.36-.21,5.7,2.31,11.69,3.91,17.78,4.8-3.22,6.99-6.76,13.99-10.92,20.44ZM177.26,221.7c-.25-.13-.55-.04-.68.21-2.59,4.76-5.96,8.97-10.16,11.99-8.57,6.4-19.43,7.06-29.9,6.95-15.91.19-31.76-3.89-45.01-12.84-9.58-6.33-15.94-11.35-17.72-22.88,2.77-.28,5.39-.35,8.2-1.05.14-.03.27-.12.34-.26.6-1.25-3.99-2.03-4.85-2.08-4.77-.27-9.74,1.15-13.53,4.07-.42.31-.09,1.03.42.91,2.71-.54,5.32-1.09,8.01-1.42-.9,5.19.17,10.94,3.5,15.57,2,2.67,4.35,4.85,6.85,6.87-.53.25-1.05.51-1.54.79-9.82,5.31-17.35,14.7-20.14,25.58-3.42,12.55.83,28.41,13.48,34.02,9.22,4.46,20.79,1.52,28.11-5.1,11.53-9.53,17.93-23.56,24.03-36.87,0,0,.04-.09.05-.11,3.27.26,6.56.32,9.83.18,18.06.17,35.19-4.85,40.95-23.95.07-.22-.03-.46-.24-.58ZM110.68,265.9c-3.27,4.8-6.87,9.44-11.42,13.06-2.24,1.88-4.47,3.42-6.97,4.42-7.52,3.28-16.63,1.63-22.1-4.59-5.53-6.28-6.69-15.63-4.85-23.61,2.45-10.88,10.37-20.35,20.49-25.03h.01c.92.68,1.85,1.37,2.78,2.06,3.32,2.45,6.86,4.57,10.56,6.38-1.31.94-2.58,1.93-3.78,3.01-7.12,6.44-11.7,15.87-11.66,25.5-.02.58.87.68.99.12.73-2.97,1.65-5.85,2.91-8.55,3.31-7.36,8.92-13.63,15.82-17.8.13-.06.25-.13.36-.21,5.7,2.31,11.69,3.91,17.78,4.8-3.22,6.99-6.76,13.99-10.92,20.44ZM25.13,167c-2.68-.47-5.45-.34-7.96.51-.27.09-.48.35-.5.65-.02.41.3.76.71.78,2.45.14,4.77.53,6.96,1.27,4.33,1.41,7.84,4.21,10.49,7.74-.84.75-1.64,1.6-2.4,2.38-3.72,3.74-6.67,8.46-5.29,13.97.1.54.95.49,1-.06.34-3.08,1.34-5.93,3.42-8.18,1.58-1.72,3.42-3.48,5.21-5.14.62,1.11,1.18,2.26,1.66,3.45.37.98,1.89.68,1.86-.38-.2-8.23-7.09-15.71-15.16-16.99ZM25.13,167c-2.68-.47-5.45-.34-7.96.51-.27.09-.48.35-.5.65-.02.41.3.76.71.78,2.45.14,4.77.53,6.96,1.27,4.33,1.41,7.84,4.21,10.49,7.74-.84.75-1.64,1.6-2.4,2.38-3.72,3.74-6.67,8.46-5.29,13.97.1.54.95.49,1-.06.34-3.08,1.34-5.93,3.42-8.18,1.58-1.72,3.42-3.48,5.21-5.14.62,1.11,1.18,2.26,1.66,3.45.37.98,1.89.68,1.86-.38-.2-8.23-7.09-15.71-15.16-16.99ZM177.26,221.7c-.25-.13-.55-.04-.68.21-2.59,4.76-5.96,8.97-10.16,11.99-8.57,6.4-19.43,7.06-29.9,6.95-15.91.19-31.76-3.89-45.01-12.84-9.58-6.33-15.94-11.35-17.72-22.88,2.77-.28,5.39-.35,8.2-1.05.14-.03.27-.12.34-.26.6-1.25-3.99-2.03-4.85-2.08-4.77-.27-9.74,1.15-13.53,4.07-.42.31-.09,1.03.42.91,2.71-.54,5.32-1.09,8.01-1.42-.9,5.19.17,10.94,3.5,15.57,2,2.67,4.35,4.85,6.85,6.87-.53.25-1.05.51-1.54.79-9.82,5.31-17.35,14.7-20.14,25.58-3.42,12.55.83,28.41,13.48,34.02,9.22,4.46,20.79,1.52,28.11-5.1,11.53-9.53,17.93-23.56,24.03-36.87,0,0,.04-.09.05-.11,3.27.26,6.56.32,9.83.18,18.06.17,35.19-4.85,40.95-23.95.07-.22-.03-.46-.24-.58ZM110.68,265.9c-3.27,4.8-6.87,9.44-11.42,13.06-2.24,1.88-4.47,3.42-6.97,4.42-7.52,3.28-16.63,1.63-22.1-4.59-5.53-6.28-6.69-15.63-4.85-23.61,2.45-10.88,10.37-20.35,20.49-25.03h.01c.92.68,1.85,1.37,2.78,2.06,3.32,2.45,6.86,4.57,10.56,6.38-1.31.94-2.58,1.93-3.78,3.01-7.12,6.44-11.7,15.87-11.66,25.5-.02.58.87.68.99.12.73-2.97,1.65-5.85,2.91-8.55,3.31-7.36,8.92-13.63,15.82-17.8.13-.06.25-.13.36-.21,5.7,2.31,11.69,3.91,17.78,4.8-3.22,6.99-6.76,13.99-10.92,20.44ZM177.26,221.7c-.25-.13-.55-.04-.68.21-2.59,4.76-5.96,8.97-10.16,11.99-8.57,6.4-19.43,7.06-29.9,6.95-15.91.19-31.76-3.89-45.01-12.84-9.58-6.33-15.94-11.35-17.72-22.88,2.77-.28,5.39-.35,8.2-1.05.14-.03.27-.12.34-.26.6-1.25-3.99-2.03-4.85-2.08-4.77-.27-9.74,1.15-13.53,4.07-.42.31-.09,1.03.42.91,2.71-.54,5.32-1.09,8.01-1.42-.9,5.19.17,10.94,3.5,15.57,2,2.67,4.35,4.85,6.85,6.87-.53.25-1.05.51-1.54.79-9.82,5.31-17.35,14.7-20.14,25.58-3.42,12.55.83,28.41,13.48,34.02,9.22,4.46,20.79,1.52,28.11-5.1,11.53-9.53,17.93-23.56,24.03-36.87,0,0,.04-.09.05-.11,3.27.26,6.56.32,9.83.18,18.06.17,35.19-4.85,40.95-23.95.07-.22-.03-.46-.24-.58ZM110.68,265.9c-3.27,4.8-6.87,9.44-11.42,13.06-2.24,1.88-4.47,3.42-6.97,4.42-7.52,3.28-16.63,1.63-22.1-4.59-5.53-6.28-6.69-15.63-4.85-23.61,2.45-10.88,10.37-20.35,20.49-25.03h.01c.92.68,1.85,1.37,2.78,2.06,3.32,2.45,6.86,4.57,10.56,6.38-1.31.94-2.58,1.93-3.78,3.01-7.12,6.44-11.7,15.87-11.66,25.5-.02.58.87.68.99.12.73-2.97,1.65-5.85,2.91-8.55,3.31-7.36,8.92-13.63,15.82-17.8.13-.06.25-.13.36-.21,5.7,2.31,11.69,3.91,17.78,4.8-3.22,6.99-6.76,13.99-10.92,20.44ZM25.13,167c-2.68-.47-5.45-.34-7.96.51-.27.09-.48.35-.5.65-.02.41.3.76.71.78,2.45.14,4.77.53,6.96,1.27,4.33,1.41,7.84,4.21,10.49,7.74-.84.75-1.64,1.6-2.4,2.38-3.72,3.74-6.67,8.46-5.29,13.97.1.54.95.49,1-.06.34-3.08,1.34-5.93,3.42-8.18,1.58-1.72,3.42-3.48,5.21-5.14.62,1.11,1.18,2.26,1.66,3.45.37.98,1.89.68,1.86-.38-.2-8.23-7.09-15.71-15.16-16.99ZM25.13,167c-2.68-.47-5.45-.34-7.96.51-.27.09-.48.35-.5.65-.02.41.3.76.71.78,2.45.14,4.77.53,6.96,1.27,4.33,1.41,7.84,4.21,10.49,7.74-.84.75-1.64,1.6-2.4,2.38-3.72,3.74-6.67,8.46-5.29,13.97.1.54.95.49,1-.06.34-3.08,1.34-5.93,3.42-8.18,1.58-1.72,3.42-3.48,5.21-5.14.62,1.11,1.18,2.26,1.66,3.45.37.98,1.89.68,1.86-.38-.2-8.23-7.09-15.71-15.16-16.99ZM177.26,221.7c-.25-.13-.55-.04-.68.21-2.59,4.76-5.96,8.97-10.16,11.99-8.57,6.4-19.43,7.06-29.9,6.95-15.91.19-31.76-3.89-45.01-12.84-9.58-6.33-15.94-11.35-17.72-22.88,2.77-.28,5.39-.35,8.2-1.05.14-.03.27-.12.34-.26.6-1.25-3.99-2.03-4.85-2.08-4.77-.27-9.74,1.15-13.53,4.07-.42.31-.09,1.03.42.91,2.71-.54,5.32-1.09,8.01-1.42-.9,5.19.17,10.94,3.5,15.57,2,2.67,4.35,4.85,6.85,6.87-.53.25-1.05.51-1.54.79-9.82,5.31-17.35,14.7-20.14,25.58-3.42,12.55.83,28.41,13.48,34.02,9.22,4.46,20.79,1.52,28.11-5.1,11.53-9.53,17.93-23.56,24.03-36.87,0,0,.04-.09.05-.11,3.27.26,6.56.32,9.83.18,18.06.17,35.19-4.85,40.95-23.95.07-.22-.03-.46-.24-.58ZM110.68,265.9c-3.27,4.8-6.87,9.44-11.42,13.06-2.24,1.88-4.47,3.42-6.97,4.42-7.52,3.28-16.63,1.63-22.1-4.59-5.53-6.28-6.69-15.63-4.85-23.61,2.45-10.88,10.37-20.35,20.49-25.03h.01c.92.68,1.85,1.37,2.78,2.06,3.32,2.45,6.86,4.57,10.56,6.38-1.31.94-2.58,1.93-3.78,3.01-7.12,6.44-11.7,15.87-11.66,25.5-.02.58.87.68.99.12.73-2.97,1.65-5.85,2.91-8.55,3.31-7.36,8.92-13.63,15.82-17.8.13-.06.25-.13.36-.21,5.7,2.31,11.69,3.91,17.78,4.8-3.22,6.99-6.76,13.99-10.92,20.44ZM177.26,221.7c-.25-.13-.55-.04-.68.21-2.59,4.76-5.96,8.97-10.16,11.99-8.57,6.4-19.43,7.06-29.9,6.95-15.91.19-31.76-3.89-45.01-12.84-9.58-6.33-15.94-11.35-17.72-22.88,2.77-.28,5.39-.35,8.2-1.05.14-.03.27-.12.34-.26.6-1.25-3.99-2.03-4.85-2.08-4.77-.27-9.74,1.15-13.53,4.07-.42.31-.09,1.03.42.91,2.71-.54,5.32-1.09,8.01-1.42-.9,5.19.17,10.94,3.5,15.57,2,2.67,4.35,4.85,6.85,6.87-.53.25-1.05.51-1.54.79-9.82,5.31-17.35,14.7-20.14,25.58-3.42,12.55.83,28.41,13.48,34.02,9.22,4.46,20.79,1.52,28.11-5.1,11.53-9.53,17.93-23.56,24.03-36.87,0,0,.04-.09.05-.11,3.27.26,6.56.32,9.83.18,18.06.17,35.19-4.85,40.95-23.95.07-.22-.03-.46-.24-.58ZM110.68,265.9c-3.27,4.8-6.87,9.44-11.42,13.06-2.24,1.88-4.47,3.42-6.97,4.42-7.52,3.28-16.63,1.63-22.1-4.59-5.53-6.28-6.69-15.63-4.85-23.61,2.45-10.88,10.37-20.35,20.49-25.03h.01c.92.68,1.85,1.37,2.78,2.06,3.32,2.45,6.86,4.57,10.56,6.38-1.31.94-2.58,1.93-3.78,3.01-7.12,6.44-11.7,15.87-11.66,25.5-.02.58.87.68.99.12.73-2.97,1.65-5.85,2.91-8.55,3.31-7.36,8.92-13.63,15.82-17.8.13-.06.25-.13.36-.21,5.7,2.31,11.69,3.91,17.78,4.8-3.22,6.99-6.76,13.99-10.92,20.44ZM25.13,167c-2.68-.47-5.45-.34-7.96.51-.27.09-.48.35-.5.65-.02.41.3.76.71.78,2.45.14,4.77.53,6.96,1.27,4.33,1.41,7.84,4.21,10.49,7.74-.84.75-1.64,1.6-2.4,2.38-3.72,3.74-6.67,8.46-5.29,13.97.1.54.95.49,1-.06.34-3.08,1.34-5.93,3.42-8.18,1.58-1.72,3.42-3.48,5.21-5.14.62,1.11,1.18,2.26,1.66,3.45.37.98,1.89.68,1.86-.38-.2-8.23-7.09-15.71-15.16-16.99ZM177.26,221.7c-.25-.13-.55-.04-.68.21-2.59,4.76-5.96,8.97-10.16,11.99-8.57,6.4-19.43,7.06-29.9,6.95-15.91.19-31.76-3.89-45.01-12.84-9.58-6.33-15.94-11.35-17.72-22.88,2.77-.28,5.39-.35,8.2-1.05.14-.03.27-.12.34-.26.6-1.25-3.99-2.03-4.85-2.08-4.77-.27-9.74,1.15-13.53,4.07-.42.31-.09,1.03.42.91,2.71-.54,5.32-1.09,8.01-1.42-.9,5.19.17,10.94,3.5,15.57,2,2.67,4.35,4.85,6.85,6.87-.53.25-1.05.51-1.54.79-9.82,5.31-17.35,14.7-20.14,25.58-3.42,12.55.83,28.41,13.48,34.02,9.22,4.46,20.79,1.52,28.11-5.1,11.53-9.53,17.93-23.56,24.03-36.87,0,0,.04-.09.05-.11,3.27.26,6.56.32,9.83.18,18.06.17,35.19-4.85,40.95-23.95.07-.22-.03-.46-.24-.58ZM110.68,265.9c-3.27,4.8-6.87,9.44-11.42,13.06-2.24,1.88-4.47,3.42-6.97,4.42-7.52,3.28-16.63,1.63-22.1-4.59-5.53-6.28-6.69-15.63-4.85-23.61,2.45-10.88,10.37-20.35,20.49-25.03h.01c.92.68,1.85,1.37,2.78,2.06,3.32,2.45,6.86,4.57,10.56,6.38-1.31.94-2.58,1.93-3.78,3.01-7.12,6.44-11.7,15.87-11.66,25.5-.02.58.87.68.99.12.73-2.97,1.65-5.85,2.91-8.55,3.31-7.36,8.92-13.63,15.82-17.8.13-.06.25-.13.36-.21,5.7,2.31,11.69,3.91,17.78,4.8-3.22,6.99-6.76,13.99-10.92,20.44ZM25.13,167c-2.68-.47-5.45-.34-7.96.51-.27.09-.48.35-.5.65-.02.41.3.76.71.78,2.45.14,4.77.53,6.96,1.27,4.33,1.41,7.84,4.21,10.49,7.74-.84.75-1.64,1.6-2.4,2.38-3.72,3.74-6.67,8.46-5.29,13.97.1.54.95.49,1-.06.34-3.08,1.34-5.93,3.42-8.18,1.58-1.72,3.42-3.48,5.21-5.14.62,1.11,1.18,2.26,1.66,3.45.37.98,1.89.68,1.86-.38-.2-8.23-7.09-15.71-15.16-16.99ZM25.13,167c-2.68-.47-5.45-.34-7.96.51-.27.09-.48.35-.5.65-.02.41.3.76.71.78,2.45.14,4.77.53,6.96,1.27,4.33,1.41,7.84,4.21,10.49,7.74-.84.75-1.64,1.6-2.4,2.38-3.72,3.74-6.67,8.46-5.29,13.97.1.54.95.49,1-.06.34-3.08,1.34-5.93,3.42-8.18,1.58-1.72,3.42-3.48,5.21-5.14.62,1.11,1.18,2.26,1.66,3.45.37.98,1.89.68,1.86-.38-.2-8.23-7.09-15.71-15.16-16.99ZM177.26,221.7c-.25-.13-.55-.04-.68.21-2.59,4.76-5.96,8.97-10.16,11.99-8.57,6.4-19.43,7.06-29.9,6.95-15.91.19-31.76-3.89-45.01-12.84-9.58-6.33-15.94-11.35-17.72-22.88,2.77-.28,5.39-.35,8.2-1.05.14-.03.27-.12.34-.26.6-1.25-3.99-2.03-4.85-2.08-4.77-.27-9.74,1.15-13.53,4.07-.42.31-.09,1.03.42.91,2.71-.54,5.32-1.09,8.01-1.42-.9,5.19.17,10.94,3.5,15.57,2,2.67,4.35,4.85,6.85,6.87-.53.25-1.05.51-1.54.79-9.82,5.31-17.35,14.7-20.14,25.58-3.42,12.55.83,28.41,13.48,34.02,9.22,4.46,20.79,1.52,28.11-5.1,11.53-9.53,17.93-23.56,24.03-36.87,0,0,.04-.09.05-.11,3.27.26,6.56.32,9.83.18,18.06.17,35.19-4.85,40.95-23.95.07-.22-.03-.46-.24-.58ZM110.68,265.9c-3.27,4.8-6.87,9.44-11.42,13.06-2.24,1.88-4.47,3.42-6.97,4.42-7.52,3.28-16.63,1.63-22.1-4.59-5.53-6.28-6.69-15.63-4.85-23.61,2.45-10.88,10.37-20.35,20.49-25.03h.01c.92.68,1.85,1.37,2.78,2.06,3.32,2.45,6.86,4.57,10.56,6.38-1.31.94-2.58,1.93-3.78,3.01-7.12,6.44-11.7,15.87-11.66,25.5-.02.58.87.68.99.12.73-2.97,1.65-5.85,2.91-8.55,3.31-7.36,8.92-13.63,15.82-17.8.13-.06.25-.13.36-.21,5.7,2.31,11.69,3.91,17.78,4.8-3.22,6.99-6.76,13.99-10.92,20.44ZM177.26,221.7c-.25-.13-.55-.04-.68.21-2.59,4.76-5.96,8.97-10.16,11.99-8.57,6.4-19.43,7.06-29.9,6.95-15.91.19-31.76-3.89-45.01-12.84-9.58-6.33-15.94-11.35-17.72-22.88,2.77-.28,5.39-.35,8.2-1.05.14-.03.27-.12.34-.26.6-1.25-3.99-2.03-4.85-2.08-4.77-.27-9.74,1.15-13.53,4.07-.42.31-.09,1.03.42.91,2.71-.54,5.32-1.09,8.01-1.42-.9,5.19.17,10.94,3.5,15.57,2,2.67,4.35,4.85,6.85,6.87-.53.25-1.05.51-1.54.79-9.82,5.31-17.35,14.7-20.14,25.58-3.42,12.55.83,28.41,13.48,34.02,9.22,4.46,20.79,1.52,28.11-5.1,11.53-9.53,17.93-23.56,24.03-36.87,0,0,.04-.09.05-.11,3.27.26,6.56.32,9.83.18,18.06.17,35.19-4.85,40.95-23.95.07-.22-.03-.46-.24-.58ZM110.68,265.9c-3.27,4.8-6.87,9.44-11.42,13.06-2.24,1.88-4.47,3.42-6.97,4.42-7.52,3.28-16.63,1.63-22.1-4.59-5.53-6.28-6.69-15.63-4.85-23.61,2.45-10.88,10.37-20.35,20.49-25.03h.01c.92.68,1.85,1.37,2.78,2.06,3.32,2.45,6.86,4.57,10.56,6.38-1.31.94-2.58,1.93-3.78,3.01-7.12,6.44-11.7,15.87-11.66,25.5-.02.58.87.68.99.12.73-2.97,1.65-5.85,2.91-8.55,3.31-7.36,8.92-13.63,15.82-17.8.13-.06.25-.13.36-.21,5.7,2.31,11.69,3.91,17.78,4.8-3.22,6.99-6.76,13.99-10.92,20.44ZM25.13,167c-2.68-.47-5.45-.34-7.96.51-.27.09-.48.35-.5.65-.02.41.3.76.71.78,2.45.14,4.77.53,6.96,1.27,4.33,1.41,7.84,4.21,10.49,7.74-.84.75-1.64,1.6-2.4,2.38-3.72,3.74-6.67,8.46-5.29,13.97.1.54.95.49,1-.06.34-3.08,1.34-5.93,3.42-8.18,1.58-1.72,3.42-3.48,5.21-5.14.62,1.11,1.18,2.26,1.66,3.45.37.98,1.89.68,1.86-.38-.2-8.23-7.09-15.71-15.16-16.99ZM25.13,167c-2.68-.47-5.45-.34-7.96.51-.27.09-.48.35-.5.65-.02.41.3.76.71.78,2.45.14,4.77.53,6.96,1.27,4.33,1.41,7.84,4.21,10.49,7.74-.84.75-1.64,1.6-2.4,2.38-3.72,3.74-6.67,8.46-5.29,13.97.1.54.95.49,1-.06.34-3.08,1.34-5.93,3.42-8.18,1.58-1.72,3.42-3.48,5.21-5.14.62,1.11,1.18,2.26,1.66,3.45.37.98,1.89.68,1.86-.38-.2-8.23-7.09-15.71-15.16-16.99ZM177.26,221.7c-.25-.13-.55-.04-.68.21-2.59,4.76-5.96,8.97-10.16,11.99-8.57,6.4-19.43,7.06-29.9,6.95-15.91.19-31.76-3.89-45.01-12.84-9.58-6.33-15.94-11.35-17.72-22.88,2.77-.28,5.39-.35,8.2-1.05.14-.03.27-.12.34-.26.6-1.25-3.99-2.03-4.85-2.08-4.77-.27-9.74,1.15-13.53,4.07-.42.31-.09,1.03.42.91,2.71-.54,5.32-1.09,8.01-1.42-.9,5.19.17,10.94,3.5,15.57,2,2.67,4.35,4.85,6.85,6.87-.53.25-1.05.51-1.54.79-9.82,5.31-17.35,14.7-20.14,25.58-3.42,12.55.83,28.41,13.48,34.02,9.22,4.46,20.79,1.52,28.11-5.1,11.53-9.53,17.93-23.56,24.03-36.87,0,0,.04-.09.05-.11,3.27.26,6.56.32,9.83.18,18.06.17,35.19-4.85,40.95-23.95.07-.22-.03-.46-.24-.58ZM110.68,265.9c-3.27,4.8-6.87,9.44-11.42,13.06-2.24,1.88-4.47,3.42-6.97,4.42-7.52,3.28-16.63,1.63-22.1-4.59-5.53-6.28-6.69-15.63-4.85-23.61,2.45-10.88,10.37-20.35,20.49-25.03h.01c.92.68,1.85,1.37,2.78,2.06,3.32,2.45,6.86,4.57,10.56,6.38-1.31.94-2.58,1.93-3.78,3.01-7.12,6.44-11.7,15.87-11.66,25.5-.02.58.87.68.99.12.73-2.97,1.65-5.85,2.91-8.55,3.31-7.36,8.92-13.63,15.82-17.8.13-.06.25-.13.36-.21,5.7,2.31,11.69,3.91,17.78,4.8-3.22,6.99-6.76,13.99-10.92,20.44ZM177.26,221.7c-.25-.13-.55-.04-.68.21-2.59,4.76-5.96,8.97-10.16,11.99-8.57,6.4-19.43,7.06-29.9,6.95-15.91.19-31.76-3.89-45.01-12.84-9.58-6.33-15.94-11.35-17.72-22.88,2.77-.28,5.39-.35,8.2-1.05.14-.03.27-.12.34-.26.6-1.25-3.99-2.03-4.85-2.08-4.77-.27-9.74,1.15-13.53,4.07-.42.31-.09,1.03.42.91,2.71-.54,5.32-1.09,8.01-1.42-.9,5.19.17,10.94,3.5,15.57,2,2.67,4.35,4.85,6.85,6.87-.53.25-1.05.51-1.54.79-9.82,5.31-17.35,14.7-20.14,25.58-3.42,12.55.83,28.41,13.48,34.02,9.22,4.46,20.79,1.52,28.11-5.1,11.53-9.53,17.93-23.56,24.03-36.87,0,0,.04-.09.05-.11,3.27.26,6.56.32,9.83.18,18.06.17,35.19-4.85,40.95-23.95.07-.22-.03-.46-.24-.58ZM110.68,265.9c-3.27,4.8-6.87,9.44-11.42,13.06-2.24,1.88-4.47,3.42-6.97,4.42-7.52,3.28-16.63,1.63-22.1-4.59-5.53-6.28-6.69-15.63-4.85-23.61,2.45-10.88,10.37-20.35,20.49-25.03h.01c.92.68,1.85,1.37,2.78,2.06,3.32,2.45,6.86,4.57,10.56,6.38-1.31.94-2.58,1.93-3.78,3.01-7.12,6.44-11.7,15.87-11.66,25.5-.02.58.87.68.99.12.73-2.97,1.65-5.85,2.91-8.55,3.31-7.36,8.92-13.63,15.82-17.8.13-.06.25-.13.36-.21,5.7,2.31,11.69,3.91,17.78,4.8-3.22,6.99-6.76,13.99-10.92,20.44ZM25.13,167c-2.68-.47-5.45-.34-7.96.51-.27.09-.48.35-.5.65-.02.41.3.76.71.78,2.45.14,4.77.53,6.96,1.27,4.33,1.41,7.84,4.21,10.49,7.74-.84.75-1.64,1.6-2.4,2.38-3.72,3.74-6.67,8.46-5.29,13.97.1.54.95.49,1-.06.34-3.08,1.34-5.93,3.42-8.18,1.58-1.72,3.42-3.48,5.21-5.14.62,1.11,1.18,2.26,1.66,3.45.37.98,1.89.68,1.86-.38-.2-8.23-7.09-15.71-15.16-16.99ZM25.13,167c-2.68-.47-5.45-.34-7.96.51-.27.09-.48.35-.5.65-.02.41.3.76.71.78,2.45.14,4.77.53,6.96,1.27,4.33,1.41,7.84,4.21,10.49,7.74-.84.75-1.64,1.6-2.4,2.38-3.72,3.74-6.67,8.46-5.29,13.97.1.54.95.49,1-.06.34-3.08,1.34-5.93,3.42-8.18,1.58-1.72,3.42-3.48,5.21-5.14.62,1.11,1.18,2.26,1.66,3.45.37.98,1.89.68,1.86-.38-.2-8.23-7.09-15.71-15.16-16.99ZM177.26,221.7c-.25-.13-.55-.04-.68.21-2.59,4.76-5.96,8.97-10.16,11.99-8.57,6.4-19.43,7.06-29.9,6.95-15.91.19-31.76-3.89-45.01-12.84-9.58-6.33-15.94-11.35-17.72-22.88,2.77-.28,5.39-.35,8.2-1.05.14-.03.27-.12.34-.26.6-1.25-3.99-2.03-4.85-2.08-4.77-.27-9.74,1.15-13.53,4.07-.42.31-.09,1.03.42.91,2.71-.54,5.32-1.09,8.01-1.42-.9,5.19.17,10.94,3.5,15.57,2,2.67,4.35,4.85,6.85,6.87-.53.25-1.05.51-1.54.79-9.82,5.31-17.35,14.7-20.14,25.58-3.42,12.55.83,28.41,13.48,34.02,9.22,4.46,20.79,1.52,28.11-5.1,11.53-9.53,17.93-23.56,24.03-36.87,0,0,.04-.09.05-.11,3.27.26,6.56.32,9.83.18,18.06.17,35.19-4.85,40.95-23.95.07-.22-.03-.46-.24-.58ZM110.68,265.9c-3.27,4.8-6.87,9.44-11.42,13.06-2.24,1.88-4.47,3.42-6.97,4.42-7.52,3.28-16.63,1.63-22.1-4.59-5.53-6.28-6.69-15.63-4.85-23.61,2.45-10.88,10.37-20.35,20.49-25.03h.01c.92.68,1.85,1.37,2.78,2.06,3.32,2.45,6.86,4.57,10.56,6.38-1.31.94-2.58,1.93-3.78,3.01-7.12,6.44-11.7,15.87-11.66,25.5-.02.58.87.68.99.12.73-2.97,1.65-5.85,2.91-8.55,3.31-7.36,8.92-13.63,15.82-17.8.13-.06.25-.13.36-.21,5.7,2.31,11.69,3.91,17.78,4.8-3.22,6.99-6.76,13.99-10.92,20.44ZM177.26,221.7c-.25-.13-.55-.04-.68.21-2.59,4.76-5.96,8.97-10.16,11.99-8.57,6.4-19.43,7.06-29.9,6.95-15.91.19-31.76-3.89-45.01-12.84-9.58-6.33-15.94-11.35-17.72-22.88,2.77-.28,5.39-.35,8.2-1.05.14-.03.27-.12.34-.26.6-1.25-3.99-2.03-4.85-2.08-4.77-.27-9.74,1.15-13.53,4.07-.42.31-.09,1.03.42.91,2.71-.54,5.32-1.09,8.01-1.42-.9,5.19.17,10.94,3.5,15.57,2,2.67,4.35,4.85,6.85,6.87-.53.25-1.05.51-1.54.79-9.82,5.31-17.35,14.7-20.14,25.58-3.42,12.55.83,28.41,13.48,34.02,9.22,4.46,20.79,1.52,28.11-5.1,11.53-9.53,17.93-23.56,24.03-36.87,0,0,.04-.09.05-.11,3.27.26,6.56.32,9.83.18,18.06.17,35.19-4.85,40.95-23.95.07-.22-.03-.46-.24-.58ZM110.68,265.9c-3.27,4.8-6.87,9.44-11.42,13.06-2.24,1.88-4.47,3.42-6.97,4.42-7.52,3.28-16.63,1.63-22.1-4.59-5.53-6.28-6.69-15.63-4.85-23.61,2.45-10.88,10.37-20.35,20.49-25.03h.01c.92.68,1.85,1.37,2.78,2.06,3.32,2.45,6.86,4.57,10.56,6.38-1.31.94-2.58,1.93-3.78,3.01-7.12,6.44-11.7,15.87-11.66,25.5-.02.58.87.68.99.12.73-2.97,1.65-5.85,2.91-8.55,3.31-7.36,8.92-13.63,15.82-17.8.13-.06.25-.13.36-.21,5.7,2.31,11.69,3.91,17.78,4.8-3.22,6.99-6.76,13.99-10.92,20.44ZM25.13,167c-2.68-.47-5.45-.34-7.96.51-.27.09-.48.35-.5.65-.02.41.3.76.71.78,2.45.14,4.77.53,6.96,1.27,4.33,1.41,7.84,4.21,10.49,7.74-.84.75-1.64,1.6-2.4,2.38-3.72,3.74-6.67,8.46-5.29,13.97.1.54.95.49,1-.06.34-3.08,1.34-5.93,3.42-8.18,1.58-1.72,3.42-3.48,5.21-5.14.62,1.11,1.18,2.26,1.66,3.45.37.98,1.89.68,1.86-.38-.2-8.23-7.09-15.71-15.16-16.99ZM25.13,167c-2.68-.47-5.45-.34-7.96.51-.27.09-.48.35-.5.65-.02.41.3.76.71.78,2.45.14,4.77.53,6.96,1.27,4.33,1.41,7.84,4.21,10.49,7.74-.84.75-1.64,1.6-2.4,2.38-3.72,3.74-6.67,8.46-5.29,13.97.1.54.95.49,1-.06.34-3.08,1.34-5.93,3.42-8.18,1.58-1.72,3.42-3.48,5.21-5.14.62,1.11,1.18,2.26,1.66,3.45.37.98,1.89.68,1.86-.38-.2-8.23-7.09-15.71-15.16-16.99ZM177.26,221.7c-.25-.13-.55-.04-.68.21-2.59,4.76-5.96,8.97-10.16,11.99-8.57,6.4-19.43,7.06-29.9,6.95-15.91.19-31.76-3.89-45.01-12.84-9.58-6.33-15.94-11.35-17.72-22.88,2.77-.28,5.39-.35,8.2-1.05.14-.03.27-.12.34-.26.6-1.25-3.99-2.03-4.85-2.08-4.77-.27-9.74,1.15-13.53,4.07-.42.31-.09,1.03.42.91,2.71-.54,5.32-1.09,8.01-1.42-.9,5.19.17,10.94,3.5,15.57,2,2.67,4.35,4.85,6.85,6.87-.53.25-1.05.51-1.54.79-9.82,5.31-17.35,14.7-20.14,25.58-3.42,12.55.83,28.41,13.48,34.02,9.22,4.46,20.79,1.52,28.11-5.1,11.53-9.53,17.93-23.56,24.03-36.87,0,0,.04-.09.05-.11,3.27.26,6.56.32,9.83.18,18.06.17,35.19-4.85,40.95-23.95.07-.22-.03-.46-.24-.58ZM110.68,265.9c-3.27,4.8-6.87,9.44-11.42,13.06-2.24,1.88-4.47,3.42-6.97,4.42-7.52,3.28-16.63,1.63-22.1-4.59-5.53-6.28-6.69-15.63-4.85-23.61,2.45-10.88,10.37-20.35,20.49-25.03h.01c.92.68,1.85,1.37,2.78,2.06,3.32,2.45,6.86,4.57,10.56,6.38-1.31.94-2.58,1.93-3.78,3.01-7.12,6.44-11.7,15.87-11.66,25.5-.02.58.87.68.99.12.73-2.97,1.65-5.85,2.91-8.55,3.31-7.36,8.92-13.63,15.82-17.8.13-.06.25-.13.36-.21,5.7,2.31,11.69,3.91,17.78,4.8-3.22,6.99-6.76,13.99-10.92,20.44ZM177.26,221.7c-.25-.13-.55-.04-.68.21-2.59,4.76-5.96,8.97-10.16,11.99-8.57,6.4-19.43,7.06-29.9,6.95-15.91.19-31.76-3.89-45.01-12.84-9.58-6.33-15.94-11.35-17.72-22.88,2.77-.28,5.39-.35,8.2-1.05.14-.03.27-.12.34-.26.6-1.25-3.99-2.03-4.85-2.08-4.77-.27-9.74,1.15-13.53,4.07-.42.31-.09,1.03.42.91,2.71-.54,5.32-1.09,8.01-1.42-.9,5.19.17,10.94,3.5,15.57,2,2.67,4.35,4.85,6.85,6.87-.53.25-1.05.51-1.54.79-9.82,5.31-17.35,14.7-20.14,25.58-3.42,12.55.83,28.41,13.48,34.02,9.22,4.46,20.79,1.52,28.11-5.1,11.53-9.53,17.93-23.56,24.03-36.87,0,0,.04-.09.05-.11,3.27.26,6.56.32,9.83.18,18.06.17,35.19-4.85,40.95-23.95.07-.22-.03-.46-.24-.58ZM110.68,265.9c-3.27,4.8-6.87,9.44-11.42,13.06-2.24,1.88-4.47,3.42-6.97,4.42-7.52,3.28-16.63,1.63-22.1-4.59-5.53-6.28-6.69-15.63-4.85-23.61,2.45-10.88,10.37-20.35,20.49-25.03h.01c.92.68,1.85,1.37,2.78,2.06,3.32,2.45,6.86,4.57,10.56,6.38-1.31.94-2.58,1.93-3.78,3.01-7.12,6.44-11.7,15.87-11.66,25.5-.02.58.87.68.99.12.73-2.97,1.65-5.85,2.91-8.55,3.31-7.36,8.92-13.63,15.82-17.8.13-.06.25-.13.36-.21,5.7,2.31,11.69,3.91,17.78,4.8-3.22,6.99-6.76,13.99-10.92,20.44ZM25.13,167c-2.68-.47-5.45-.34-7.96.51-.27.09-.48.35-.5.65-.02.41.3.76.71.78,2.45.14,4.77.53,6.96,1.27,4.33,1.41,7.84,4.21,10.49,7.74-.84.75-1.64,1.6-2.4,2.38-3.72,3.74-6.67,8.46-5.29,13.97.1.54.95.49,1-.06.34-3.08,1.34-5.93,3.42-8.18,1.58-1.72,3.42-3.48,5.21-5.14.62,1.11,1.18,2.26,1.66,3.45.37.98,1.89.68,1.86-.38-.2-8.23-7.09-15.71-15.16-16.99ZM25.13,167c-2.68-.47-5.45-.34-7.96.51-.27.09-.48.35-.5.65-.02.41.3.76.71.78,2.45.14,4.77.53,6.96,1.27,4.33,1.41,7.84,4.21,10.49,7.74-.84.75-1.64,1.6-2.4,2.38-3.72,3.74-6.67,8.46-5.29,13.97.1.54.95.49,1-.06.34-3.08,1.34-5.93,3.42-8.18,1.58-1.72,3.42-3.48,5.21-5.14.62,1.11,1.18,2.26,1.66,3.45.37.98,1.89.68,1.86-.38-.2-8.23-7.09-15.71-15.16-16.99ZM177.26,221.7c-.25-.13-.55-.04-.68.21-2.59,4.76-5.96,8.97-10.16,11.99-8.57,6.4-19.43,7.06-29.9,6.95-15.91.19-31.76-3.89-45.01-12.84-9.58-6.33-15.94-11.35-17.72-22.88,2.77-.28,5.39-.35,8.2-1.05.14-.03.27-.12.34-.26.6-1.25-3.99-2.03-4.85-2.08-4.77-.27-9.74,1.15-13.53,4.07-.42.31-.09,1.03.42.91,2.71-.54,5.32-1.09,8.01-1.42-.9,5.19.17,10.94,3.5,15.57,2,2.67,4.35,4.85,6.85,6.87-.53.25-1.05.51-1.54.79-9.82,5.31-17.35,14.7-20.14,25.58-3.42,12.55.83,28.41,13.48,34.02,9.22,4.46,20.79,1.52,28.11-5.1,11.53-9.53,17.93-23.56,24.03-36.87,0,0,.04-.09.05-.11,3.27.26,6.56.32,9.83.18,18.06.17,35.19-4.85,40.95-23.95.07-.22-.03-.46-.24-.58ZM110.68,265.9c-3.27,4.8-6.87,9.44-11.42,13.06-2.24,1.88-4.47,3.42-6.97,4.42-7.52,3.28-16.63,1.63-22.1-4.59-5.53-6.28-6.69-15.63-4.85-23.61,2.45-10.88,10.37-20.35,20.49-25.03h.01c.92.68,1.85,1.37,2.78,2.06,3.32,2.45,6.86,4.57,10.56,6.38-1.31.94-2.58,1.93-3.78,3.01-7.12,6.44-11.7,15.87-11.66,25.5-.02.58.87.68.99.12.73-2.97,1.65-5.85,2.91-8.55,3.31-7.36,8.92-13.63,15.82-17.8.13-.06.25-.13.36-.21,5.7,2.31,11.69,3.91,17.78,4.8-3.22,6.99-6.76,13.99-10.92,20.44ZM177.26,221.7c-.25-.13-.55-.04-.68.21-2.59,4.76-5.96,8.97-10.16,11.99-8.57,6.4-19.43,7.06-29.9,6.95-15.91.19-31.76-3.89-45.01-12.84-9.58-6.33-15.94-11.35-17.72-22.88,2.77-.28,5.39-.35,8.2-1.05.14-.03.27-.12.34-.26.6-1.25-3.99-2.03-4.85-2.08-4.77-.27-9.74,1.15-13.53,4.07-.42.31-.09,1.03.42.91,2.71-.54,5.32-1.09,8.01-1.42-.9,5.19.17,10.94,3.5,15.57,2,2.67,4.35,4.85,6.85,6.87-.53.25-1.05.51-1.54.79-9.82,5.31-17.35,14.7-20.14,25.58-3.42,12.55.83,28.41,13.48,34.02,9.22,4.46,20.79,1.52,28.11-5.1,11.53-9.53,17.93-23.56,24.03-36.87,0,0,.04-.09.05-.11,3.27.26,6.56.32,9.83.18,18.06.17,35.19-4.85,40.95-23.95.07-.22-.03-.46-.24-.58ZM110.68,265.9c-3.27,4.8-6.87,9.44-11.42,13.06-2.24,1.88-4.47,3.42-6.97,4.42-7.52,3.28-16.63,1.63-22.1-4.59-5.53-6.28-6.69-15.63-4.85-23.61,2.45-10.88,10.37-20.35,20.49-25.03h.01c.92.68,1.85,1.37,2.78,2.06,3.32,2.45,6.86,4.57,10.56,6.38-1.31.94-2.58,1.93-3.78,3.01-7.12,6.44-11.7,15.87-11.66,25.5-.02.58.87.68.99.12.73-2.97,1.65-5.85,2.91-8.55,3.31-7.36,8.92-13.63,15.82-17.8.13-.06.25-.13.36-.21,5.7,2.31,11.69,3.91,17.78,4.8-3.22,6.99-6.76,13.99-10.92,20.44ZM25.13,167c-2.68-.47-5.45-.34-7.96.51-.27.09-.48.35-.5.65-.02.41.3.76.71.78,2.45.14,4.77.53,6.96,1.27,4.33,1.41,7.84,4.21,10.49,7.74-.84.75-1.64,1.6-2.4,2.38-3.72,3.74-6.67,8.46-5.29,13.97.1.54.95.49,1-.06.34-3.08,1.34-5.93,3.42-8.18,1.58-1.72,3.42-3.48,5.21-5.14.62,1.11,1.18,2.26,1.66,3.45.37.98,1.89.68,1.86-.38-.2-8.23-7.09-15.71-15.16-16.99ZM25.13,167c-2.68-.47-5.45-.34-7.96.51-.27.09-.48.35-.5.65-.02.41.3.76.71.78,2.45.14,4.77.53,6.96,1.27,4.33,1.41,7.84,4.21,10.49,7.74-.84.75-1.64,1.6-2.4,2.38-3.72,3.74-6.67,8.46-5.29,13.97.1.54.95.49,1-.06.34-3.08,1.34-5.93,3.42-8.18,1.58-1.72,3.42-3.48,5.21-5.14.62,1.11,1.18,2.26,1.66,3.45.37.98,1.89.68,1.86-.38-.2-8.23-7.09-15.71-15.16-16.99ZM177.26,221.7c-.25-.13-.55-.04-.68.21-2.59,4.76-5.96,8.97-10.16,11.99-8.57,6.4-19.43,7.06-29.9,6.95-15.91.19-31.76-3.89-45.01-12.84-9.58-6.33-15.94-11.35-17.72-22.88,2.77-.28,5.39-.35,8.2-1.05.14-.03.27-.12.34-.26.6-1.25-3.99-2.03-4.85-2.08-4.77-.27-9.74,1.15-13.53,4.07-.42.31-.09,1.03.42.91,2.71-.54,5.32-1.09,8.01-1.42-.9,5.19.17,10.94,3.5,15.57,2,2.67,4.35,4.85,6.85,6.87-.53.25-1.05.51-1.54.79-9.82,5.31-17.35,14.7-20.14,25.58-3.42,12.55.83,28.41,13.48,34.02,9.22,4.46,20.79,1.52,28.11-5.1,11.53-9.53,17.93-23.56,24.03-36.87,0,0,.04-.09.05-.11,3.27.26,6.56.32,9.83.18,18.06.17,35.19-4.85,40.95-23.95.07-.22-.03-.46-.24-.58ZM110.68,265.9c-3.27,4.8-6.87,9.44-11.42,13.06-2.24,1.88-4.47,3.42-6.97,4.42-7.52,3.28-16.63,1.63-22.1-4.59-5.53-6.28-6.69-15.63-4.85-23.61,2.45-10.88,10.37-20.35,20.49-25.03h.01c.92.68,1.85,1.37,2.78,2.06,3.32,2.45,6.86,4.57,10.56,6.38-1.31.94-2.58,1.93-3.78,3.01-7.12,6.44-11.7,15.87-11.66,25.5-.02.58.87.68.99.12.73-2.97,1.65-5.85,2.91-8.55,3.31-7.36,8.92-13.63,15.82-17.8.13-.06.25-.13.36-.21,5.7,2.31,11.69,3.91,17.78,4.8-3.22,6.99-6.76,13.99-10.92,20.44ZM177.26,221.7c-.25-.13-.55-.04-.68.21-2.59,4.76-5.96,8.97-10.16,11.99-8.57,6.4-19.43,7.06-29.9,6.95-15.91.19-31.76-3.89-45.01-12.84-9.58-6.33-15.94-11.35-17.72-22.88,2.77-.28,5.39-.35,8.2-1.05.14-.03.27-.12.34-.26.6-1.25-3.99-2.03-4.85-2.08-4.77-.27-9.74,1.15-13.53,4.07-.42.31-.09,1.03.42.91,2.71-.54,5.32-1.09,8.01-1.42-.9,5.19.17,10.94,3.5,15.57,2,2.67,4.35,4.85,6.85,6.87-.53.25-1.05.51-1.54.79-9.82,5.31-17.35,14.7-20.14,25.58-3.42,12.55.83,28.41,13.48,34.02,9.22,4.46,20.79,1.52,28.11-5.1,11.53-9.53,17.93-23.56,24.03-36.87,0,0,.04-.09.05-.11,3.27.26,6.56.32,9.83.18,18.06.17,35.19-4.85,40.95-23.95.07-.22-.03-.46-.24-.58ZM110.68,265.9c-3.27,4.8-6.87,9.44-11.42,13.06-2.24,1.88-4.47,3.42-6.97,4.42-7.52,3.28-16.63,1.63-22.1-4.59-5.53-6.28-6.69-15.63-4.85-23.61,2.45-10.88,10.37-20.35,20.49-25.03h.01c.92.68,1.85,1.37,2.78,2.06,3.32,2.45,6.86,4.57,10.56,6.38-1.31.94-2.58,1.93-3.78,3.01-7.12,6.44-11.7,15.87-11.66,25.5-.02.58.87.68.99.12.73-2.97,1.65-5.85,2.91-8.55,3.31-7.36,8.92-13.63,15.82-17.8.13-.06.25-.13.36-.21,5.7,2.31,11.69,3.91,17.78,4.8-3.22,6.99-6.76,13.99-10.92,20.44ZM25.13,167c-2.68-.47-5.45-.34-7.96.51-.27.09-.48.35-.5.65-.02.41.3.76.71.78,2.45.14,4.77.53,6.96,1.27,4.33,1.41,7.84,4.21,10.49,7.74-.84.75-1.64,1.6-2.4,2.38-3.72,3.74-6.67,8.46-5.29,13.97.1.54.95.49,1-.06.34-3.08,1.34-5.93,3.42-8.18,1.58-1.72,3.42-3.48,5.21-5.14.62,1.11,1.18,2.26,1.66,3.45.37.98,1.89.68,1.86-.38-.2-8.23-7.09-15.71-15.16-16.99ZM25.13,167c-2.68-.47-5.45-.34-7.96.51-.27.09-.48.35-.5.65-.02.41.3.76.71.78,2.45.14,4.77.53,6.96,1.27,4.33,1.41,7.84,4.21,10.49,7.74-.84.75-1.64,1.6-2.4,2.38-3.72,3.74-6.67,8.46-5.29,13.97.1.54.95.49,1-.06.34-3.08,1.34-5.93,3.42-8.18,1.58-1.72,3.42-3.48,5.21-5.14.62,1.11,1.18,2.26,1.66,3.45.37.98,1.89.68,1.86-.38-.2-8.23-7.09-15.71-15.16-16.99ZM177.26,221.7c-.25-.13-.55-.04-.68.21-2.59,4.76-5.96,8.97-10.16,11.99-8.57,6.4-19.43,7.06-29.9,6.95-15.91.19-31.76-3.89-45.01-12.84-9.58-6.33-15.94-11.35-17.72-22.88,2.77-.28,5.39-.35,8.2-1.05.14-.03.27-.12.34-.26.6-1.25-3.99-2.03-4.85-2.08-4.77-.27-9.74,1.15-13.53,4.07-.42.31-.09,1.03.42.91,2.71-.54,5.32-1.09,8.01-1.42-.9,5.19.17,10.94,3.5,15.57,2,2.67,4.35,4.85,6.85,6.87-.53.25-1.05.51-1.54.79-9.82,5.31-17.35,14.7-20.14,25.58-3.42,12.55.83,28.41,13.48,34.02,9.22,4.46,20.79,1.52,28.11-5.1,11.53-9.53,17.93-23.56,24.03-36.87,0,0,.04-.09.05-.11,3.27.26,6.56.32,9.83.18,18.06.17,35.19-4.85,40.95-23.95.07-.22-.03-.46-.24-.58ZM110.68,265.9c-3.27,4.8-6.87,9.44-11.42,13.06-2.24,1.88-4.47,3.42-6.97,4.42-7.52,3.28-16.63,1.63-22.1-4.59-5.53-6.28-6.69-15.63-4.85-23.61,2.45-10.88,10.37-20.35,20.49-25.03h.01c.92.68,1.85,1.37,2.78,2.06,3.32,2.45,6.86,4.57,10.56,6.38-1.31.94-2.58,1.93-3.78,3.01-7.12,6.44-11.7,15.87-11.66,25.5-.02.58.87.68.99.12.73-2.97,1.65-5.85,2.91-8.55,3.31-7.36,8.92-13.63,15.82-17.8.13-.06.25-.13.36-.21,5.7,2.31,11.69,3.91,17.78,4.8-3.22,6.99-6.76,13.99-10.92,20.44ZM222.65,19.48s-.02.01-.03.02c.03-.02.05-.03.03-.02ZM177.26,221.7c-.25-.13-.55-.04-.68.21-2.59,4.76-5.96,8.97-10.16,11.99-8.57,6.4-19.43,7.06-29.9,6.95-15.91.19-31.76-3.89-45.01-12.84-9.58-6.33-15.94-11.35-17.72-22.88,2.77-.28,5.39-.35,8.2-1.05.14-.03.27-.12.34-.26.6-1.25-3.99-2.03-4.85-2.08-4.77-.27-9.74,1.15-13.53,4.07-.42.31-.09,1.03.42.91,2.71-.54,5.32-1.09,8.01-1.42-.9,5.19.17,10.94,3.5,15.57,2,2.67,4.35,4.85,6.85,6.87-.53.25-1.05.51-1.54.79-9.82,5.31-17.35,14.7-20.14,25.58-3.42,12.55.83,28.41,13.48,34.02,9.22,4.46,20.79,1.52,28.11-5.1,11.53-9.53,17.93-23.56,24.03-36.87,0,0,.04-.09.05-.11,3.27.26,6.56.32,9.83.18,18.06.17,35.19-4.85,40.95-23.95.07-.22-.03-.46-.24-.58ZM110.68,265.9c-3.27,4.8-6.87,9.44-11.42,13.06-2.24,1.88-4.47,3.42-6.97,4.42-7.52,3.28-16.63,1.63-22.1-4.59-5.53-6.28-6.69-15.63-4.85-23.61,2.45-10.88,10.37-20.35,20.49-25.03h.01c.92.68,1.85,1.37,2.78,2.06,3.32,2.45,6.86,4.57,10.56,6.38-1.31.94-2.58,1.93-3.78,3.01-7.12,6.44-11.7,15.87-11.66,25.5-.02.58.87.68.99.12.73-2.97,1.65-5.85,2.91-8.55,3.31-7.36,8.92-13.63,15.82-17.8.13-.06.25-.13.36-.21,5.7,2.31,11.69,3.91,17.78,4.8-3.22,6.99-6.76,13.99-10.92,20.44ZM25.13,167c-2.68-.47-5.45-.34-7.96.51-.27.09-.48.35-.5.65-.02.41.3.76.71.78,2.45.14,4.77.53,6.96,1.27,4.33,1.41,7.84,4.21,10.49,7.74-.84.75-1.64,1.6-2.4,2.38-3.72,3.74-6.67,8.46-5.29,13.97.1.54.95.49,1-.06.34-3.08,1.34-5.93,3.42-8.18,1.58-1.72,3.42-3.48,5.21-5.14.62,1.11,1.18,2.26,1.66,3.45.37.98,1.89.68,1.86-.38-.2-8.23-7.09-15.71-15.16-16.99Z"/>
  <path class="cls-1" d="M57.47,143.99c-.57,1.79-1.04,3.61-1.37,5.44-.72,3.85-.85,7.7-.81,11.41-.55,1.4-1.27,2.76-2.23,4.08-.93,1.33-1.99,2.57-3.15,3.71-2.77-10.43-10.79-20.57-21.75-21.82-.09-.24-.17-.48-.26-.72,2.42-.44,4.83-.86,7.25-1.18,7.4-.99,14.88-1.35,22.32-.92Z"/>
  <path class="cls-1" d="M250.11,54.62c-1.51,10.87-5.86,21.1-12.42,29.95-4.76,6.67-9.61,13.48-14.69,19.89-6.59,8.15-14.27,15.36-22.51,21.84.78-4.7,1.25-9.45.75-14.2-.45-7.69-2.84-14.04-8.48-18.28,6.44-1.58,12.76-3.73,18.45-7.16,1.08-.64,2.13-1.32,3.15-2.05.2-.13.06-.47-.17-.43-9.8,1.31-18.82,4.38-28.43,6.1-11.83,2.12-23.79,2.58-35.67.99-12.03-1.33-23.7-4.03-35-8.39-6.87-2.64-14.74-4.26-22.23-3.98-7.78-.23-16,2.4-21.29,8.38-4.35,4.86-7.14,10.89-8.63,17.18-.86,6.17-.61,12.23-1.56,18.34-.43,6.18-2.46,12.01-3.48,18.06-4.8-.25-9.64-.13-14.41.45-5.43.65-10.82,1.84-15.99,3.63-.9-2.57-1.79-5.14-2.65-7.73-2.51-7.67-4.97-15.41-7.06-23.2-1.57-5.84-2.68-11.49-2.35-17.47.17-5.58.74-11.92,4.37-16.18,5-5.68,13.82-7.19,21.22-6.01.23.06.46-.08.52-.31l.03-.14c3.49-13.58,5.51-28.09,13.16-39.96,2.12-3.03,4.54-7.13,8.51-7.25,1.2.06,2.37.33,2.8,1.47.2.51.24,1.22.16,1.97l-3.65,21.1c-.03.11-.03.22.01.33.09.28.42.39.68.27,7.43-2.73,14.78-5.68,22.12-8.62,14.65-5.88,29.09-12.35,43.64-18.43,7.22-3.16,15.65-5.64,22.27-9.1.47-.22,1.53-.73,2.09-.98,8.53-3.84,17.34-7.21,26.41-9.5,3.03-.78,6.36-1.54,9.46-1.01,3.53.52,9.51,3.13,8.94,7.41-1.58,8.19-6.91,15.44-11.77,22.15-.27.35.06.91.51.79,11.15-2.42,22.02-6.2,32.79-9.93l2.31-.82,1.15-.43.57-.22.29-.11.18-.07c.15-.06.29-.13.42-.21l-.32.17c3.11-1.2,5.94-2.19,8.77-2.04,3.88.13,8.32,1.89,8.77,6.25.81,14.22-9.45,27.54-18.19,37.97-2.19,2.46-4.62,4.71-7.17,6.8-.38.3-.14.96.38.89,7-.71,14.28-3.01,19.67-7.72,3.89-2.99,9.24-7.01,13.57-10.45Z"/>
  <path class="cls-7" d="M103.28,329.65c0,.3.05.57.12.82-2.33,2.65-4.58,5.48-6.19,8.63-.13.25-.25.51-.38.76-1.79-3.69-4.05-7.15-6.62-10.34-7.02-8.34-16.23-14.48-25.61-19.87-1.26-.73-2.48-1.51-3.65-2.35-2.62-1.74-4.66-3.89-6.57-6.26.46-1.22.78-2.28,1-3.11.92-3.5.81-5.54,1.43-9.31h0c.56-.61.73-1.46.55-2.28l.74-3.05c10.03,12.86,24.27,21.67,41.96,22.75,2.04.14,4.07.15,6.09.07-2.1,7.66-3.71,15.57-2.87,23.54Z"/>
  <path class="cls-5" d="M121.6,245.46c-3.22,6.99-6.76,13.99-10.92,20.44-3.27,4.8-6.87,9.44-11.42,13.06-2.24,1.88-4.47,3.42-6.97,4.42-7.52,3.28-16.63,1.63-22.1-4.59-5.53-6.28-6.69-15.63-4.85-23.61,2.45-10.88,10.37-20.35,20.49-25.03h.01c.92.68,1.85,1.37,2.78,2.06,3.32,2.45,6.86,4.57,10.56,6.38-1.31.94-2.58,1.93-3.78,3.01-7.12,6.44-11.7,15.87-11.66,25.5-.02.58.87.68.99.12.73-2.97,1.65-5.85,2.91-8.55,3.31-7.36,8.92-13.63,15.82-17.8.13-.06.25-.13.36-.21,5.7,2.31,11.69,3.91,17.78,4.8Z"/>
  <path class="cls-3" d="M160.06,157.58c1.14.04,3.45.11,5.45,1.7,2.79,2.21,2.99,5.78,3.06,7.15.06,1.15.24,4.2-1.87,6.98-.45.59-2.08,2.68-5.11,3.4-2.65.63-4.8-.16-5.62-.51-2.85-1.24-4.14-3.57-4.6-4.43-.4-.76-2-3.89-.85-7.66.24-.78,1.24-3.71,4.26-5.45,2.2-1.27,4.3-1.22,5.28-1.19ZM104.75,150.43c-.69-.44-2.69-1.69-5.28-1.53-2.78.16-4.61,1.85-6.13,3.23-.97.89-2.76,2.57-3.74,5.45-.32.95-1.28,3.88-.17,7.32.32,1.01,1.56,4.85,5.28,6.3,2.74,1.07,5.26.23,6.47-.17,3.64-1.21,5.53-3.9,6.13-4.77.66-.97,2.53-3.79,2.21-7.66-.07-.86-.38-3.39-2.21-5.79-1.09-1.42-2.25-2.19-2.55-2.38Z"/>
  <path class="cls-1" d="M153.94,120.05c-.29-2.02.5-3.58,1.02-4.6,2.06-3.96,5.9-5.72,7.91-6.64,3.75-1.71,7.01-1.93,9.11-2.04,2.17-.12,4.35-.22,7.06.6,3.1.94,5.14,2.54,6.21,3.4,1.36,1.1,3.04,2.45,4.34,4.85.24.44,1.97,3.77,1.45,8-.13,1.05-.43,3.48-1.7,3.83-.79.22-1.74-.42-2.13-.68-.95-.64-1.43-1.45-1.53-1.62-1.3-2.1-5.49-3.24-7.66-3.83-2.38-.65-6.02-1.63-10.47-.85-6.36,1.12-9.04,4.93-11.57,3.4-1.63-.98-1.98-3.42-2.04-3.83ZM119.26,112.86c1.04-1.43.51-3.34.21-4.43-.26-.94-.81-2.34-3.06-4.81-2.2-2.41-4.48-4.91-8.43-6.34-1.92-.7-3.49-.86-4.98-1.02-1.8-.19-4.58-.49-7.96.34-4.31,1.06-7.04,3.32-8.89,4.85-.27.23-2.62,2.2-4.09,4.94-.39.73-.74,1.55-.77,2.6,0,.3,0,1.32.55,2.47.25.5.94,1.92,2.3,2.34,1.09.34,2.1-.13,2.77-.43,3.22-1.45,6.22-2.73,7.06-3.06,3.28-1.29,6.3-.97,7.45-.85,4.06.43,7.81,2.42,8.89,3.02,1.64.91,2.53,1.65,4.26,1.83.53.05,3.37.35,4.68-1.45Z"/>
  <path class="cls-2" d="M94.55,345.72c-.62,2.17-1.02,4.41-1.17,6.64H9.14c2.42-9.48,7.66-17.86,14.16-25.19,1.52-1.79,3.14-3.5,4.8-5.17.08.1.15.21.23.32l4.37,6.67c4.52,6.93,9.27,13.96,16.31,18.64,3.9,2.41,8.87,5.56,13.61,3.61,3.89-1.91,4.97-6.38,6.18-10.14.46-1.97.5-3.41,1.5-5.23,1.58-3.35,3.49-5.3,7.51-6.3,1.92-1.32-3.39-1.89-4.37-1.53-5.57.91-8.32,6.86-9.32,11.79-.51,1.64-1.37,3.54-2.12,4.98-.43.75-.82,1.34-1.49,1.63-.48.18-1.12.19-2.11-.11-2.2-.72-4.35-1.9-6.28-3.23-8.41-5.78-13.57-15.5-19.31-23.74-2.25-3.05-3.4-6.8-1.87-10.31,1-1.68,2.89-3.09,3.63-5.1,1.41-3.9,1.93-7.62,3.83-11.1,2.74-4.36,9.09-6.5,13.98-5.23,1.17.54,2.5.99,3.8,1.16.19.01.36.13.61-.13.01,0,.01-.02.02-.03l-2.87,11.87c-1.48-1.88-2.9-3.89-4.47-5.97-.29-.41-.97-.15-.94.34.17,3.21,1.33,6.29,3.1,8.99,3.6,5.37,9.01,8.77,14.35,12.13,4.95,3.26,9.67,6.88,14.18,10.71,4.4,3.79,8.17,8.16,11.18,13.12,1.15,1.85,2.1,3.81,3.08,5.75.04.05.09.11.13.16Z"/>
  <path class="cls-2" d="M155.64,352.36h-58.1c1.28-5.17,3.26-10.05,6.26-14.46,1.41-2.16,3.1-4.2,4.74-6.27.31-.25.57-.55.77-.92l.19-.32c1.67-2.17,3.23-4.42,4.31-6.95.2-.42-.26-.9-.69-.73-1.49.55-2.82,1.3-4.04,2.18-.43-6.35.57-12.81,1.61-19.12,3.9-.41,7.77-1.13,11.59-2.02.02,0,.05-.01.07-.01.18.11.37.24.37.24,4.37,3.04,8.78,6.41,12.6,10.04,3.4,2.88,4.82,6.45,4.91,10.85.35,4.45.15,8.91-1.2,13.21-.75,2.39-1.65,5.42-2.9,7.6-1.08-1.52-2.49-3.16-3.65-4.29-1.76-1.89-3.6-3.79-5.59-5.46,2.9-2.85,5.69-5.8,8.03-9.22.29-.41-.19-.98-.65-.76-9.69,4.7-16.46,13.67-22.02,22.6-.29.46.34,1,.75.65,2.08-1.7,3.98-3.52,5.86-5.35,2.19-2.33,4.51-4.51,6.79-6.72.48.88.97,1.74,1.48,2.58,1.46,2.52,3.81,5.22,5.5,7.52.59.84.65,1.33,1.58,2.28.48.56,1.82,1,2.66.68.88-.23,1.76-1.1,2.13-1.62,2.13-3.04,2.95-5.87,4.19-9.19.33-.94.59-1.91.83-2.88,2.59,1.7,4.29,4.48,6.15,6.99,2.05,2.88,3.81,5.8,5.47,8.87Z"/>
  <path class="cls-6" d="M251.25,49.79c-6.05,3.6-11.73,7.76-17.14,12.26-2.66,2.28-5.04,4.41-7.91,6.19-2.3,1.45-4.88,2.57-7.58,3.19,9.83-8.26,19.11-17.33,24.4-29.35,3.53-7.92,6.51-20.96-4.27-24.55-5.38-2.01-11.41-.56-16.24,2.04.03-.03.07-.06.11-.07-.03.01-.05.01-.06.02l-.28.13-.55.25-1.11.5-2.2,1.03c-9.87,4.46-19.8,9.19-30.35,11.8,1.79-2.39,3.65-4.74,5.56-7.07,3.37-4.19,9.26-11.52,7.8-17.37-2.46-6.77-10.68-9.33-17.27-8.69-10.48,1.58-20.61,5.09-30.37,9.13-1.13.49-3.13,1.35-4.23,1.88-5.98,3.09-15.26,5.93-22.43,9.18-21.37,9.2-42.68,19.34-63.3,30.11,1.36-4.92,3.52-12.72,4.73-17.12.52-1.92,1.13-3.93.52-6.09-1.05-3.73-5.84-4.63-9.02-3.38-12.81,6.19-18.54,31.04-19.37,46.08-.13-.18-.27-.36-.42-.53-3.51-4.08-7.78-7.46-12.5-10.08-3.55-2.03-8.12-2.18-11.88-.93,2.61-.22,5.22.06,7.54.95,2.3.82,4.1,2.59,5.85,4.44,1.73,1.87,3.39,3.84,5.07,5.73l2.3,2.59c-2.61-.44-5.32-.42-7.94.04-12.92,1.98-16.88,12.52-17.07,24.28-.68,10.5,2.92,20.56,5.88,30.4,2.11,6.73,4.48,13.37,7.03,19.94-.13.01-.26.01-.39.02-10.4.65-17.7,9.73-21.35,18.7-5.58,15.13-3.06,33.27,9.39,44.3,7.84,6.95,21.19,11.77,29.68,5.34-.36,1.96-.54,3.95-.51,5.89,0,12.63-.08,25.22,3.92,37.36,2.82,9.13,7.11,17.62,12.73,24.86-.23.82-.48,1.79-.71,2.86-.01-.01-.01-.03-.01-.04-.09-.33-.24-.28-.37-.35-.92-.35-1.82-.9-2.6-1.51-7.19-4.41-16.91-1.07-20.35,6.49-1.53,3.63-1.77,8.27-2.94,11.78-.74,1.8-2.56,2.56-3.76,4.19-2.55,3.24-2.64,7.27-1.47,10.85-2.18,2.06-4.27,4.21-6.26,6.46-7.4,8.03-13.47,17.69-16.07,28.44h5.66c2.42-9.48,7.66-17.86,14.16-25.19,1.52-1.79,3.14-3.5,4.8-5.17.08.1.15.21.23.32l4.37,6.67c4.52,6.93,9.27,13.96,16.31,18.64,3.9,2.41,8.87,5.56,13.61,3.61,3.89-1.91,4.97-6.38,6.18-10.14.46-1.97.5-3.41,1.5-5.23,1.58-3.35,3.49-5.3,7.51-6.3,1.92-1.32-3.39-1.89-4.37-1.53-5.57.91-8.32,6.86-9.32,11.79-.51,1.64-1.37,3.54-2.12,4.98-.43.75-.82,1.34-1.49,1.63-.48.18-1.12.19-2.11-.11-2.2-.72-4.35-1.9-6.28-3.23-8.41-5.78-13.57-15.5-19.31-23.74-2.25-3.05-3.4-6.8-1.87-10.31,1-1.68,2.89-3.09,3.63-5.1,1.41-3.9,1.93-7.62,3.83-11.1,2.74-4.36,9.09-6.5,13.98-5.23,1.16.54,2.49.99,3.78,1.16l-2.22,11.71c-1.48-1.88-2.9-3.89-4.47-5.97-.29-.41-.97-.15-.94.34.17,3.21,1.33,6.29,3.1,8.99,3.6,5.37,9.01,8.77,14.35,12.13,4.95,3.26,9.67,6.88,14.18,10.71,4.4,3.79,8.17,8.16,11.18,13.12,1.15,1.85,2.1,3.81,3.08,5.75.04.05.09.11.13.16-.62,2.17-1.02,4.41-1.17,6.64h4.16c1.28-5.17,3.26-10.05,6.26-14.46,1.41-2.16,3.1-4.2,4.74-6.27.31-.25.57-.55.77-.92l.19-.32c1.67-2.17,3.23-4.42,4.31-6.95.2-.42-.26-.9-.69-.73-1.49.55-2.82,1.3-4.04,2.18-.43-6.35.57-12.81,1.61-19.12,3.9-.41,7.77-1.13,11.59-2.02.02,0,.05-.01.07-.01.18.11.37.24.37.24,4.37,3.04,8.78,6.41,12.6,10.04,3.4,2.88,4.82,6.45,4.91,10.85.35,4.45.15,8.91-1.2,13.21-.75,2.39-1.65,5.42-2.9,7.6-1.08-1.52-2.49-3.16-3.65-4.29-1.76-1.89-3.6-3.79-5.59-5.46,2.9-2.85,5.69-5.8,8.03-9.22.29-.41-.19-.98-.65-.76-9.69,4.7-16.46,13.67-22.02,22.6-.29.46.34,1,.75.65,2.08-1.7,3.98-3.52,5.86-5.35,2.19-2.33,4.51-4.51,6.79-6.72.48.88.97,1.74,1.48,2.58,1.46,2.52,3.81,5.22,5.5,7.52.59.84.65,1.33,1.58,2.28.48.56,1.82,1,2.66.68.88-.23,1.76-1.1,2.13-1.62,2.13-3.04,2.95-5.87,4.19-9.19.33-.94.59-1.91.83-2.88,2.59,1.7,4.29,4.48,6.15,6.99,2.05,2.88,3.81,5.8,5.47,8.87h6.07c-.03-.2-.09-.42-.17-.64-1.68-4.16-4.2-8.11-7.08-11.52-2.27-2.64-4.63-5.49-7.86-7.06-.6-.29-1.22-.54-1.85-.76.31-2.58.36-5.19.23-7.76-.05-5.58-2.09-10.45-6.39-14.07-3.39-3.08-6.97-5.74-10.7-8.28,15.38-4.65,28.99-13.98,40.91-24.57,12.44-11.26,23.74-25.49,27-42.35,1.23-6.35,1.81-12.62,1.54-19.09-.58-6.02-1.49-12.03-2.1-18.04.8-.5,1.59-1.02,2.35-1.58,4.12-2.65,8.63-7.8,10.44-11.43,2.68-5.48,4.31-11.45,5.63-17.37.63-2.57.83-5.44,1.84-7.89.36-.75,1.05-2.31,1.36-3.34,1.73-4.48.94-8.27-3.36-10.72-1.95-1.23-3.45-2.45-5.43-3.82-3.05-1.8-6.39-2.95-9.8-3.85.07-.39.13-.77.2-1.16.31-1.66.64-3.32.96-4.99,13.12-9.86,24.63-21.84,33.85-35.4,7.29-10.16,15.21-20.51,18.16-32.94,1.08-4.09,1.78-8.29,2.13-12.51.14-1.19-1.32-2.09-2.32-1.43ZM103.28,329.65c0,.3.05.57.12.82-2.33,2.65-4.58,5.48-6.19,8.63-.13.25-.25.51-.38.76-1.79-3.69-4.05-7.15-6.62-10.34-7.02-8.34-16.23-14.48-25.61-19.87-1.26-.73-2.48-1.51-3.65-2.35-2.62-1.74-2.57-1.87-4.48-4.24.35-2.84,1.27-6.83,1.37-7.21.28-1.04.39-1.83.39-2.46l1.68-7.46c9.19,12.91,22.46,19.03,40.15,20.11,2.04.14,4.07.15,6.09.07-2.1,7.66-3.71,15.57-2.87,23.54ZM186.96,245.43c-6.75,14.55-18.64,26.14-31.25,35.77-9.61,7.12-20.18,13.32-31.79,16.28-15.27,4.25-31.83,4.43-45.63-3.89-4.64-2.69-8.8-6.19-12.51-10.08-4.91-5.5-8.79-11.98-12.04-18.6-4.75-9.89-7.84-20.66-8.49-31.67-.18-6.07-1.24-12.19-.38-18.15.33-1.92.89-3.82,1.64-5.64.22-.54.07-1.19-.41-1.58-.61-.5-1.51-.37-1.98.27-1.71,2.11-4.01,3.63-6.44,4.68-6.39,2.71-13.6-.35-19.07-4.04-8.11-5.42-12.74-15.17-13.34-24.84-.21-7.6,1.16-15.69,5.38-22.1,3.07-5.17,7.85-9.44,13.96-9.99,5.26-.5,10.78,1.2,14.76,4.9,2.02,1.89,3.98,4.16,5.43,6.57,1.48,2.44,2.5,5.16,3.13,7.97.04.2.13.39.27.56.46.54,1.25.6,1.79.15,2.06-1.75,3.89-3.79,5.41-6.05.11,4.38.42,9.12,2.46,13.08,4.52,9.57,14.27,15.38,24.35,17.42,13.22,3.56,28.06-.68,37.22-11.03l1.27-1.52c2.46-2.95,4.12-6.96,5.37-10.27,2.3-5.74,4.23-11.7,5.42-17.79.05.02.1.04.16.05,2.37.81,4.75,1.1,7.12,1.73-.87,5.78-1,11.65-.45,17.48-3.89.18-7.68,1.44-10.68,3.93-.45.33-.01,1.09.5.86,3.2-1.2,6.48-1.81,9.68-1.71.37.01,4.62,1.05,4.99.75,7.45,2.14,12.58,8.7,11.72,17.13-.25,2.9-.92,5.99-2.83,8.23-3.9,4.51-11.69,4.85-17.29,4.23-3.27-.43-6.52-1.39-9.71-2.68-.52-.23-.96.51-.51.86,9.55,7.94,29.52,9.59,34.17-4.58.01-.03.02-.07.03-.1,1.36.53,2.75,1,4.17,1.37,9.26,2.59,19.22,1.45,27.88-2.56.57,5.24,1.21,10.47,1.73,15.73.21,9.76-1.13,19.94-5.21,28.87ZM27.9,146.09c2.42-.44,4.83-.86,7.25-1.18,7.4-.99,14.88-1.35,22.32-.92-.57,1.79-1.04,3.61-1.37,5.44-.72,3.85-.85,7.7-.81,11.41-.55,1.4-1.27,2.76-2.23,4.08-.93,1.33-1.99,2.57-3.15,3.71-2.77-10.43-10.79-20.57-21.75-21.82-.09-.24-.17-.48-.26-.72ZM66.4,138.52c4.82-7.61,11.96-11.51,20.97-10.37,4.59.22,8.86.7,13.25,1.82,2.16.53,4.27,1.18,6.44,1.92,4.03,1.41,8.5,2.68,11.88,5,2.88,2.01,5.29,5.5,5.98,8.86.36,1.85.1,3.78-.19,5.75-1.05,6.63-3.27,13.08-5.9,19.24-1.32,3.15-2.34,5.8-4.33,8.26-.48.6-1.49,1.74-2.03,2.28-7.36,7.55-18.35,10.64-28.67,8.17-6.2-1.16-12.33-3.62-16.64-8.34-2.79-2.96-4.72-6.44-5.16-10.56-.26-2.09-.35-4.41-.45-6.73-.58-8.95.07-17.68,4.85-25.3ZM189.23,185.82c.11,2.65.29,5.29.52,7.93-7.78,4.52-17.1,6.34-25.97,4.47-1.49-.29-2.96-.69-4.4-1.17.69-8.04-3-16.23-10.67-19.81-1.57-.77-3.26-1.34-5-1.7-.26-2.49-.41-4.99-.36-7.5.23-8.12,1.86-16.69,6.44-23.53,1.32-1.74,2.63-2.54,4.59-2.71.87-.06,3.17-.04,4.17-.08,5.73-.03,11.71-.04,17.4.28,5.65.41,11.25,1.37,16.71,2.58-2.37,13.62-4.04,27.36-3.43,41.24ZM189.96,136.34c-10.35-2.32-21-2.17-31.52-2l-2.22.05c-8.9-.35-12.93,5.23-15.17,13.08-.03.11-.06.23-.09.35-2.74-.49-5.65-.79-8.37-.22-.08-9.7-6.94-17.29-16.54-20.32-6.95-2.37-13.86-4.42-21.18-5.13-6.31-.35-12.56-1.18-18.76.88-4.92,1.79-8.97,4.91-12.15,8.79.09-.37.19-.74.27-1.12,1.58-7.3,2.23-14.75,2.37-22.14.06-2.38.38-4.43,1.15-6.63,2.16-6.66,5.81-12.74,11.95-16.11,6.07-3.4,13.52-2.99,20.25-2.42,9.48,1.14,18.28,6.08,27.56,8.59,4.88,1.46,9.65,2.33,14.61,3.2,4.91.82,9.76,1.5,14.75,1.92,10.28.82,20.66-.1,30.75-2.15,6.85,3.51,9.25,9.58,9.62,17.42.72,8.15-1.51,15.88-3.05,23.87-.06.32-.12.64-.18.95-1.36-.29-2.71-.58-4.05-.86ZM202.58,180.52c-1.41,3.56-4.44,7.19-8.08,10.01-.51-6.64-.61-13.27-.28-19.92,4.46-.12,8.74-1.67,12.48-4.09-.99,4.78-2.25,9.5-4.12,14ZM203.38,147.85c1.39.69,2.81,2,4.23,2.88.42.29,2.28,1.46,2.88,1.89-.07.64-.53,2-.76,2.62-.8,1.57-1.34,3.26-1.76,4.98-2.01,1.87-4.23,3.53-6.6,4.91-2.14,1.24-4.51,2.07-6.95,2.5.14-2.11.32-4.21.55-6.32.5-5.27,1.23-10.49,2.07-15.7,2.21.6,4.34,1.23,6.34,2.24ZM237.69,84.57c-4.76,6.67-9.61,13.48-14.69,19.89-6.59,8.15-14.27,15.36-22.51,21.84.78-4.7,1.25-9.45.75-14.2-.45-7.69-2.84-14.04-8.48-18.28,6.44-1.58,12.76-3.73,18.45-7.16,1.08-.64,2.13-1.32,3.15-2.05.2-.13.06-.47-.17-.43-9.8,1.31-18.82,4.38-28.43,6.1-11.83,2.12-23.79,2.58-35.67.99-12.03-1.33-23.7-4.03-35-8.39-6.87-2.64-14.74-4.26-22.23-3.98-7.78-.23-16,2.4-21.29,8.38-4.35,4.86-7.14,10.89-8.63,17.18-.86,6.17-.61,12.23-1.56,18.34-.43,6.18-2.46,12.01-3.48,18.06-4.8-.25-9.64-.13-14.41.45-5.43.65-10.82,1.84-15.99,3.63-.9-2.57-1.79-5.14-2.65-7.73-2.51-7.67-4.97-15.41-7.06-23.2-1.57-5.84-2.68-11.49-2.35-17.47.17-5.58.74-11.92,4.37-16.18,5-5.68,13.82-7.19,21.22-6.01.23.06.46-.08.52-.31l.03-.14c3.49-13.58,5.51-28.09,13.16-39.96,2.12-3.03,4.54-7.13,8.51-7.25,1.2.06,2.37.33,2.8,1.47.2.51.24,1.22.16,1.97l-3.65,21.1c-.03.11-.03.22.01.33.09.28.42.39.68.27,7.43-2.73,14.78-5.68,22.12-8.62,14.65-5.88,29.09-12.35,43.64-18.43,7.22-3.16,15.65-5.64,22.27-9.1.47-.22,1.53-.73,2.09-.98,8.53-3.84,17.34-7.21,26.41-9.5,3.03-.78,6.36-1.54,9.46-1.01,3.53.52,9.51,3.13,8.94,7.41-1.58,8.19-6.91,15.44-11.77,22.15-.27.35.06.91.51.79,11.15-2.42,22.02-6.2,32.79-9.93l2.31-.82,1.15-.43.57-.22.29-.11.18-.07c.15-.06.29-.13.42-.21l-.32.17c3.11-1.2,5.94-2.19,8.77-2.04,3.88.13,8.32,1.89,8.77,6.25.81,14.22-9.45,27.54-18.19,37.97-2.19,2.46-4.62,4.71-7.17,6.8-.38.3-.14.96.38.89,7-.71,14.28-3.01,19.67-7.72,3.89-2.99,9.24-7.01,13.57-10.45-1.51,10.87-5.86,21.1-12.42,29.95Z"/>
</svg>