<svg width="26" height="26" viewBox="0 0 26 26" fill="none" xmlns="http://www.w3.org/2000/svg">
<path d="M22.7083 7.16667L20.625 5.08333M11.25 3H15.4167M8.85417 13.1191L10.9375 11.3333V17.5833M21.6667 14.4583C21.6667 19.0607 17.9357 22.7917 13.3333 22.7917C8.73096 22.7917 5 19.0607 5 14.4583C5 9.85596 8.73096 6.125 13.3333 6.125C17.9357 6.125 21.6667 9.85596 21.6667 14.4583ZM15.625 17.5833C14.7621 17.5833 14.0625 16.8837 14.0625 16.0208V12.8958C14.0625 12.0329 14.7621 11.3333 15.625 11.3333C16.4879 11.3333 17.1875 12.0329 17.1875 12.8958V16.0208C17.1875 16.8837 16.4879 17.5833 15.625 17.5833Z" stroke="#8087A2" stroke-width="2" stroke-linecap="round" stroke-linejoin="round"/>
</svg>
