<svg width="20" height="21" viewBox="0 0 20 21" fill="none" xmlns="http://www.w3.org/2000/svg">
<g clip-path="url(#clip0_1162_6218)">
<path d="M8.82812 13.0332C9.17188 13.0332 9.45312 13.3145 9.45312 13.6582V13.8301C9.45312 14.1738 9.17188 14.4551 8.82812 14.4551C8.48438 14.4551 8.20312 14.1738 8.20312 13.8301V13.6582C8.20312 13.3145 8.48438 13.0332 8.82812 13.0332ZM5.9375 8.06445C5.9375 8.06445 5.98438 8.48633 6.46875 8.48633C6.95313 8.48633 6.98438 8.06445 6.98438 8.06445C6.9375 6.68945 7.57812 6.01758 8.90625 6.0957C9.78125 6.18945 10.2344 6.68945 10.2656 7.58008C10.2031 7.9707 9.875 8.48633 9.28125 9.11133C8.5 9.9082 8.09375 10.6113 8.09375 11.2363V11.877C8.09375 11.877 8.15625 12.2676 8.59375 12.2676C9.03125 12.2676 9.09375 11.877 9.09375 11.877V11.4238C9.09375 10.8926 9.46875 10.2676 10.2188 9.5332C11.0156 8.81445 11.4062 8.14258 11.4062 7.54883C11.3438 5.89258 10.4844 5.0332 8.8125 4.9707C6.89063 4.9707 5.9375 5.98633 5.9375 8.06445Z" fill="#A5ADCB"/>
<path d="M10.9063 18.2051H2.26562C1.70312 18.2051 1.21875 17.7207 1.21875 17.1582V2.26758C1.21875 1.70508 1.70312 1.2207 2.26562 1.2207H15.0781C15.6406 1.2207 16.125 1.70508 16.125 2.26758V2.73633H16.1094V10.5176L10.9063 18.2051ZM2.26562 2.1582C2.21875 2.1582 2.15625 2.2207 2.15625 2.26758V17.1582C2.15625 17.2051 2.21875 17.2676 2.26562 17.2676H10.4062L15.1719 10.2363V2.2207C15.1562 2.18945 15.1094 2.1582 15.0781 2.1582H2.26562ZM12.3594 17.377L12.2812 17.4863V17.627L12.25 19.9395V20.627L12.8906 20.377L15.0469 19.502L15.1719 19.4551L15.25 19.3457L19.25 13.502L19.5 13.127L19.125 12.877L17 11.4238L16.625 11.1738L16.375 11.5488L12.3594 17.377ZM16.4844 12.1582L18.6094 13.6113L18.4844 12.9863L14.4844 18.8301L14.6875 18.6582L12.5312 19.5332L13.1562 19.9551L13.1875 17.6426L13.1094 17.8926L17.1094 12.0488L16.4844 12.1582Z" fill="#A5ADCB"/>
<path d="M14.6702 19.0068L12.9292 17.8157L13.4586 17.042L15.1995 18.2332L14.6702 19.0068Z" fill="black"/>
</g>
<defs>
<clipPath id="clip0_1162_6218">
<rect width="20" height="20" fill="white" transform="translate(0 0.751953)"/>
</clipPath>
</defs>
</svg>
