<svg width="100%" height="100%" viewBox="0 0 21 21" fill="none" xmlns="http://www.w3.org/2000/svg">
<path d="M15.1265 19.1625C8.10459 19.1625 2.31318 13.8633 1.65693 6.84143V6.82502C1.64053 6.71018 1.62412 6.56252 1.60771 6.43127C1.60771 6.33284 1.59131 6.21799 1.59131 6.13596C1.60771 4.69221 2.32959 3.36331 3.54365 2.54299C4.16709 2.11643 4.90537 1.87034 5.66006 1.83752H5.92256C7.21865 1.83752 8.44912 2.41174 9.26943 3.41252C10.1718 4.49534 10.4671 5.93909 10.1062 7.35002C9.74522 8.74456 8.67881 9.84377 7.26787 10.3031L6.8085 10.4508L7.10381 10.8281C8.3999 12.4688 9.9749 13.7649 11.796 14.7L12.1733 14.8969L12.2718 14.4867C12.5999 13.0102 13.9288 11.911 15.5202 11.8289H15.6843C17.6202 11.8289 19.2444 13.3055 19.4085 15.2086C19.4577 15.7336 19.3757 16.2586 19.2116 16.7672C18.7522 18.0469 17.6202 18.9657 16.2585 19.1625C16.1601 19.1789 16.078 19.1789 15.9796 19.1953C15.7007 19.1461 15.4054 19.1625 15.1265 19.1625ZM2.41162 6.72659C3.03506 13.3711 8.49834 18.375 15.1265 18.375C15.389 18.375 15.6679 18.3586 15.9468 18.3422H16.0124C16.0616 18.3422 16.1108 18.3422 16.1601 18.3258C17.2429 18.1782 18.1288 17.4399 18.5062 16.4391C18.6538 16.0453 18.703 15.6352 18.6702 15.2086C18.5554 13.7321 17.2429 12.5344 15.7663 12.5344H15.6351C14.3554 12.6164 13.2726 13.486 12.9608 14.7C12.846 15.1266 12.403 15.4547 11.9272 15.4547C11.7632 15.4547 11.6155 15.4219 11.4843 15.3563C9.22022 14.2078 7.28428 12.4688 5.85693 10.3524C5.7749 10.2375 5.7749 10.0899 5.82412 9.97502C5.88975 9.84377 6.021 9.74534 6.16865 9.72893C7.69443 9.63049 9.02334 8.58049 9.40068 7.15315C9.7124 5.98831 9.4499 4.79065 8.71162 3.90471C8.02256 3.0844 7.02178 2.60862 5.95537 2.60862H5.74209C5.11865 2.64143 4.51162 2.85471 4.00303 3.19924C3.00225 3.85549 2.39522 4.97112 2.39522 6.15237V6.39846C2.37881 6.4969 2.39521 6.61174 2.41162 6.72659Z" fill="#8087A2"/>
</svg>
