<svg width="20" height="5" viewBox="0 0 20 5" fill="none" xmlns="http://www.w3.org/2000/svg">
<path d="M17.0002 2.17863H17.0118M10.0002 2.17863H10.0118M3.00016 2.17863H3.01183M11.1668 2.17863C11.1668 2.82298 10.6445 3.3453 10.0002 3.3453C9.35581 3.3453 8.8335 2.82298 8.8335 2.17863C8.8335 1.53428 9.35581 1.01196 10.0002 1.01196C10.6445 1.01196 11.1668 1.53428 11.1668 2.17863ZM18.1668 2.17863C18.1668 2.82298 17.6445 3.3453 17.0002 3.3453C16.3558 3.3453 15.8335 2.82298 15.8335 2.17863C15.8335 1.53428 16.3558 1.01196 17.0002 1.01196C17.6445 1.01196 18.1668 1.53428 18.1668 2.17863ZM4.16683 2.17863C4.16683 2.82298 3.64449 3.3453 3.00016 3.3453C2.35584 3.3453 1.8335 2.82298 1.8335 2.17863C1.8335 1.53428 2.35584 1.01196 3.00016 1.01196C3.64449 1.01196 4.16683 1.53428 4.16683 2.17863Z" stroke="#A5ADCB" stroke-width="2" stroke-linecap="round" stroke-linejoin="round"/>
</svg>
