<svg width="100%" height="100%" viewBox="0 0 20 21" fill="none" xmlns="http://www.w3.org/2000/svg">
<g clip-path="url(#clip0_197_54)">
<path d="M10 0.25C8.02219 0.25 6.08879 0.83649 4.4443 1.9353C2.79981 3.03412 1.51809 4.5959 0.761209 6.42317C0.00433286 8.25043 -0.193701 10.2611 0.192152 12.2009C0.578004 14.1407 1.53041 15.9225 2.92894 17.3211C4.32746 18.7196 6.10929 19.672 8.0491 20.0579C9.98891 20.4437 11.9996 20.2457 13.8268 19.4888C15.6541 18.7319 17.2159 17.4502 18.3147 15.8057C19.4135 14.1612 20 12.2278 20 10.25C19.9971 7.59872 18.9426 5.05684 17.0679 3.1821C15.1932 1.30736 12.6513 0.252868 10 0.25ZM10 18.5833C8.35183 18.5833 6.74066 18.0946 5.37025 17.1789C3.99984 16.2632 2.93174 14.9617 2.30101 13.439C1.67028 11.9163 1.50525 10.2408 1.82679 8.62425C2.14834 7.00774 2.94201 5.52288 4.10745 4.35744C5.27289 3.19201 6.75774 2.39833 8.37425 2.07679C9.99076 1.75525 11.6663 1.92027 13.189 2.551C14.7118 3.18173 16.0132 4.24984 16.9289 5.62025C17.8446 6.99066 18.3333 8.60182 18.3333 10.25C18.3309 12.4594 17.4522 14.5776 15.8899 16.1399C14.3276 17.7022 12.2094 18.5809 10 18.5833ZM11.6667 10.25C11.668 10.5429 11.5921 10.8309 11.4467 11.0851C11.3012 11.3394 11.0914 11.5508 10.8382 11.6981C10.5851 11.8454 10.2976 11.9234 10.0047 11.9242C9.71186 11.925 9.42393 11.8487 9.16996 11.7028C8.91599 11.5569 8.70494 11.3467 8.55807 11.0933C8.41119 10.8399 8.33369 10.5523 8.33336 10.2594C8.33302 9.96655 8.40987 9.67876 8.55617 9.42503C8.70246 9.1713 8.91303 8.96061 9.16667 8.81417V6.08333C9.16667 5.86232 9.25447 5.65036 9.41075 5.49408C9.56703 5.3378 9.77899 5.25 10 5.25C10.221 5.25 10.433 5.3378 10.5893 5.49408C10.7455 5.65036 10.8333 5.86232 10.8333 6.08333V8.81417C11.0859 8.95942 11.2959 9.16854 11.4422 9.42056C11.5884 9.67257 11.6659 9.95862 11.6667 10.25Z" fill="#B7BDF8"/>
</g>
<defs>
<clipPath id="clip0_197_54">
<rect width="20" height="20" fill="white" transform="translate(0 0.25)"/>
</clipPath>
</defs>
</svg>
