<svg width="100%" height="100%" viewBox="0 0 28 29" fill="none" xmlns="http://www.w3.org/2000/svg">
<path d="M5.8335 8.65152H10.7335M10.7335 8.65152V7.16667C10.7335 6.52234 11.2558 6 11.9002 6H16.1002C16.7445 6 17.2668 6.52234 17.2668 7.16667V8.65152M10.7335 8.65152H17.2668M22.1668 8.65152H17.2668M7.46683 10.7727V19.2575C7.46683 21.2574 7.46683 22.2574 8.10468 22.8787C8.74254 23.5 9.76915 23.5 11.8223 23.5H16.178C18.2312 23.5 19.2577 23.5 19.8957 22.8787C20.5335 22.2574 20.5335 21.2574 20.5335 19.2575V10.7727M10.7335 12.8939V19.2575M14.0002 12.8939V19.2575M17.2668 12.8939V19.2575"  stroke-width="2" stroke-linecap="round" stroke-linejoin="round"/>
</svg>
