
    <svg
      width="91"
      height="20"
      viewBox="0 0 91 20"
      fill="none"
      xmlns="http://www.w3.org/2000/svg">
      <g clip-path="url(#clip0_432_1797)">
        <path
          d="M22.022 15.6867H9.36134C6.26756 15.6867 3.76055 13.1098 3.76055 9.9024C3.76055 6.72246 6.26756 4.14558 9.36134 4.14558H22.022C23.968 4.14558 25.6791 5.14562 26.6897 6.68078C27.1678 7.407 27.8997 7.98347 28.7526 7.98347C30.0279 7.98347 30.9866 6.76212 30.4107 5.59226C28.8621 2.44634 25.6859 0.280273 22.022 0.280273L9.36134 0.280275C4.18727 0.280275 0 4.5842 0 9.9024C0 15.2207 4.18727 19.552 9.36134 19.552H22.022C25.6846 19.552 28.8598 17.3875 30.409 14.2434C30.9862 13.072 30.0261 11.8488 28.7489 11.8488C27.8975 11.8488 27.1658 12.4222 26.6865 13.1456C25.6755 14.6715 23.9659 15.6867 22.022 15.6867Z"
          fill="white"
        />
        <path
          d="M33.3483 15.4342L31.7681 18.1513H56.725L52.2913 11.4006H34.9384V1.90479H52.2913V6.86277"
          stroke="#B7BDF8"
          stroke-width="3"
          stroke-linecap="round"
          stroke-linejoin="round"
        />
        <path
          d="M63.3186 2.52117C63.3186 1.28356 62.3427 0.280273 61.1389 0.280273H57.6788C56.6407 0.280273 55.7988 1.15237 55.7988 2.21974C55.7988 3.27962 56.6347 4.14558 57.6657 4.14558C58.6961 4.14558 59.532 5.00478 59.532 6.06464V17.6055C59.532 18.6805 60.3799 19.552 61.4256 19.552C62.4707 19.552 63.3186 18.6805 63.3186 17.6055V2.52117Z"
          fill="white"
        />
        <path
          d="M76.9264 12.8359C81.7985 12.1779 90.9998 11.2731 90.9998 6.00911C90.9998 2.82873 88.4703 0.224121 85.3818 0.224121L68.5757 0.333796C65.9666 0.333796 63.8633 2.49973 63.8633 5.18659C63.8633 5.64087 64.2213 6.00911 64.6632 6.00911H66.8172C67.2592 6.00911 67.6172 5.64087 67.6172 5.18659C67.6172 4.63825 68.0433 4.19958 68.5757 4.19958L76.2338 4.19958L85.3818 4.0899C86.4204 4.0899 87.2459 4.93983 87.2459 6.00911C87.2459 7.73633 83.9443 8.31213 76.4469 8.99751C71.5749 9.65555 63.8633 10.4781 63.8633 15.7421V17.3581C63.8633 18.5991 64.8447 19.6038 66.0516 19.599L88.8616 19.5059C89.8969 19.5016 90.7333 18.6378 90.7333 17.5736C90.7333 16.5029 89.8871 15.6364 88.8452 15.6414L69.8072 15.7317C68.5991 15.7375 68.0144 14.7518 69.1418 14.3065C70.9477 13.593 74.0733 13.2144 76.9264 12.8359Z"
          fill="white"
        />
      </g>
      <defs>
        <clipPath id="clip0_432_1797">
          <rect width="91" height="20" fill="white" />
        </clipPath>
      </defs>
    </svg>

